<svg preserveAspectRatio="none" width="100%" height="100%" overflow="visible" style="display: block;" viewBox="0 0 52.2222 40.5556" fill="none" xmlns="http://www.w3.org/2000/svg">
<g id="Frame 5">
<g id="Rectangle 4" filter="url(#filter0_f_0_4)">
<rect x="3.33333" y="30.5556" width="45.5556" height="6.66667" fill="var(--fill-0, black)" fill-opacity="0.5"/>
</g>
<path id="Vector" d="M16.7701 10.3432C16.3583 8.03705 16.8256 5.87355 18.1668 3.94438C19.5722 1.96212 21.6952 0.606009 24.0846 0.164129C26.6818 -0.299571 29.2553 0.218003 31.423 1.73581C33.3327 3.05226 34.6391 5.07523 35.0534 7.35734C35.2197 8.29887 35.2459 9.74683 34.9615 10.6646C34.7482 11.4697 34.5445 12.1167 34.1468 12.8606C34.0102 13.1162 33.7271 13.5147 33.631 13.7605C33.6359 14.0179 33.6328 14.2605 33.6787 14.5146L33.6951 14.5687C33.7302 14.7549 33.6949 14.8608 33.7154 15.0196C34.0484 15.0351 34.7846 15.0428 35.1113 15.0163L35.1508 15.0289C35.1921 15.4429 35.2293 16.6059 35.0802 16.957C35.0373 17.0354 35.0165 17.0768 34.9607 17.1485C34.5121 17.2072 34.165 17.1758 33.7323 17.1945C33.7201 17.3407 33.6985 17.7891 33.6647 17.9013L33.6013 19.0019C33.5774 19.6975 33.5582 20.3752 33.4907 21.0688C33.4522 21.4623 33.5226 21.9556 33.5987 22.3411C33.9008 22.6219 34.2123 23.4246 34.4536 23.7968C35.3947 25.2478 36.9029 26.1705 38.5438 26.6303L38.5937 26.6371C38.9722 26.6913 39.3439 26.8189 39.7429 26.8391C40.9373 26.8999 42.2644 26.7859 43.4445 26.8262C44.2422 26.8015 45.0399 26.783 45.8379 26.7711C46.247 26.7672 47.052 26.7812 47.43 26.7404C48.1524 27.9122 48.3599 29.1702 48.3124 30.5215C48.3145 30.8657 48.3192 31.2099 48.3262 31.5541C48.369 32.5807 48.2077 32.9628 48.1537 33.8563C48.1072 34.287 47.9521 35.4185 47.5864 35.6606C47.3292 35.977 47.1739 36.1568 46.8596 36.4259C46.5598 36.4786 45.8184 36.4602 45.4802 36.4602C44.5783 36.4636 43.6764 36.4576 42.7746 36.4417L35.8402 36.4171L14.0699 36.3771L7.9809 36.3467C6.85273 36.3394 5.69817 36.3137 4.57094 36.3371C4.51704 36.11 4.46662 35.9204 4.39861 35.6973C4.26639 35.4349 4.19379 35.0609 4.05375 34.7777C3.87501 34.4166 3.57805 34.0717 3.46329 33.6942C3.06066 32.2549 3.69139 29.5409 4.0298 28.087C4.12158 27.6927 4.26065 27.2701 4.34843 26.8516C4.37604 26.8519 4.40368 26.8521 4.43132 26.8524C5.12563 26.8558 5.84977 26.8046 6.54442 26.7768L10.3111 26.6274L12.2402 26.5573C12.5951 26.5433 13.3936 26.5303 13.7073 26.4217C15.1382 25.9271 16.5333 24.7585 17.6505 23.7615C18.1426 23.3222 18.1075 22.1146 18.0989 21.4813C18.0095 20.9436 18.1086 20.3238 18.0466 19.8022C17.9518 19.0063 17.8931 18.3003 17.8623 17.4974C17.6349 17.517 17.4603 17.5214 17.2351 17.4919C17.1954 17.3556 17.1877 17.2616 17.1705 17.1218C17.1966 17.1904 17.1976 17.198 17.2382 17.2581C17.2924 17.1783 17.2452 16.9102 17.2956 16.7619L17.2927 16.74C17.2837 16.6744 17.2838 16.6784 17.2988 16.6138L17.3438 16.5968C17.3488 16.5195 17.3454 16.4105 17.3453 16.331L17.28 16.294C17.2581 16.2069 17.2868 16.0525 17.2984 15.9569C17.3107 15.814 17.3072 15.2469 17.2694 15.1237C17.4152 15.1313 17.5981 15.1286 17.747 15.1305C17.7453 15.0254 17.7316 14.8141 17.7622 14.7241L17.7899 14.5899C17.7995 14.3118 17.8403 13.4253 17.775 13.1913C17.6205 12.6373 17.187 12.1212 17.0817 11.4901C16.9481 11.1629 16.8479 10.6899 16.7701 10.3432Z" fill="var(--fill-0, #FEFEFE)"/>
<path id="Vector_2" d="M16.7701 10.3432C16.3583 8.03702 16.8256 5.87351 18.1668 3.94435C19.5722 1.96208 21.6952 0.605971 24.0846 0.164091C26.6818 -0.299609 29.2553 0.217966 31.423 1.73578C33.3328 3.05222 34.6391 5.07519 35.0534 7.3573C35.2197 8.29883 35.2459 9.74679 34.9615 10.6645C34.7482 11.4696 34.5445 12.1166 34.1468 12.8605C34.0102 13.1161 33.7271 13.5147 33.631 13.7604C33.5141 13.9563 32.5394 14.9361 32.3433 15.0467C32.2527 15.1196 32.0062 15.3328 31.9145 15.3524C31.8456 15.3172 31.7757 15.3274 31.6963 15.328C30.7481 16.1819 29.3218 16.8467 28.0861 17.1207C27.9193 17.1285 27.7141 17.1865 27.5388 17.2152C27.0839 17.2893 26.6107 17.361 26.1506 17.3903C25.9012 17.4062 25.5744 17.3745 25.3263 17.3704C25.1895 17.3682 24.5811 17.2845 24.5152 17.2995C24.0805 17.3137 22.8215 16.8835 22.4172 16.7448L22.3798 16.8061C21.936 16.6153 21.4318 16.3863 21.0174 16.1415C20.7275 15.9703 20.4287 15.7533 20.1345 15.5708C20.1433 15.5488 20.1531 15.508 20.1597 15.4838L20.1038 15.3981L20.1152 15.3545C20.0819 15.297 19.735 14.9627 19.6561 14.8945C19.3138 14.5983 19.0856 14.1901 18.7928 13.879C18.7919 13.8487 18.744 13.7878 18.7242 13.7587C18.2759 13.1013 17.9873 12.3853 17.7143 11.644C17.6545 11.4815 17.5691 10.8539 17.5101 10.7537L17.4822 10.7171C17.47 10.609 17.4586 10.5008 17.4481 10.3925C17.3017 10.379 17.2224 10.4673 16.9316 10.4544L16.8691 10.4906C16.8213 10.7102 17.1576 11.4046 17.0817 11.4901C16.9481 11.1629 16.8479 10.6899 16.7701 10.3432Z" fill="var(--fill-0, #CAC8C6)"/>
<path id="Vector_3" d="M16.7701 10.3432C16.3583 8.03702 16.8256 5.87351 18.1668 3.94435C19.5722 1.96208 21.6952 0.605971 24.0846 0.164091C26.6818 -0.299609 29.2553 0.217966 31.423 1.73578C33.3328 3.05222 34.6391 5.07519 35.0534 7.3573C35.2197 8.29883 35.2459 9.74679 34.9615 10.6645C34.8591 10.4855 34.9487 10.0394 34.9339 9.76679C34.91 9.89244 34.9017 9.95933 34.8937 10.0871C34.89 9.94756 34.8963 9.85503 34.855 9.72092L34.8191 9.69829C34.5788 9.81407 34.6581 9.83145 34.3684 9.81648C34.3079 9.89091 34.37 9.95416 34.2962 10.0758C34.3284 9.68079 34.3037 9.27706 34.2858 8.88145C34.238 8.81092 34.2105 8.46193 34.2175 8.36696C34.0778 7.60786 33.825 6.87398 33.4676 6.18977C33.366 5.99846 33.2221 5.79785 33.1296 5.6163L33.1068 5.57146C32.7699 5.15068 32.5405 4.82055 32.1553 4.42672C30.7481 3.00128 28.8916 2.10583 26.9 1.89197C24.5409 1.61675 22.1696 2.29564 20.3136 3.77766C19.656 4.31058 19.1513 4.88492 18.6644 5.56907C18.346 5.73995 18.4658 6.23084 18.007 6.1353C17.9369 6.12068 17.927 6.12026 17.8639 6.07597C17.8362 5.95168 17.9053 5.95378 17.8882 5.83359C17.7786 5.97874 17.6741 6.19227 17.5879 6.35867C17.1221 7.25757 16.8732 8.17851 16.8223 9.18856C16.8102 9.42796 16.856 10.1472 16.8065 10.3021L16.7982 10.2117L16.7701 10.3432Z" fill="var(--fill-0, #CAC8C6)"/>
<path id="Vector_4" d="M20.9163 2.75544C24.3066 0.778911 27.5837 0.797874 30.9302 2.83391C31.0453 2.95192 31.5144 3.25719 31.6806 3.38341C32.1095 3.70899 33.3099 4.89582 33.4925 5.31751C33.5257 5.46025 33.8595 5.97809 33.9574 6.15771C33.8668 6.19143 33.6507 6.27629 33.5639 6.29058C33.5005 6.15924 33.2384 5.61977 33.1296 5.56896L33.1067 5.57146C32.7698 5.15067 32.5405 4.82054 32.1552 4.42671C30.7481 3.00127 28.8916 2.10582 26.9 1.89196C24.5409 1.61675 22.1696 2.29563 20.3135 3.77765C19.656 4.31057 19.1512 4.88491 18.6644 5.56907C18.3459 5.73994 18.4658 6.23083 18.007 6.13529C17.9368 6.12067 17.927 6.12025 17.8639 6.07596C17.8362 5.95167 17.9052 5.95377 17.8881 5.83358C18.4546 4.88467 19.1913 4.0484 20.0611 3.36671C20.3137 3.16718 20.6515 2.9706 20.8853 2.78087L20.9163 2.75544Z" fill="var(--fill-0, #514F4F)"/>
<path id="Vector_5" d="M21.2777 2.07441C21.2105 2.11981 21.0729 2.22195 21.0028 2.24193C21.2131 2.06155 21.5254 1.86595 21.767 1.72149C23.2835 0.814798 24.9773 0.423753 26.7374 0.566336C28.1663 0.682086 29.5223 1.22842 30.6811 2.05259C30.419 2.12025 30.6127 2.32087 30.373 2.4488C30.5486 2.5573 30.7987 2.67682 30.9458 2.79584L30.9302 2.83387C27.5837 0.797835 24.3066 0.778873 20.9162 2.7554L20.9056 2.71144C21.1045 2.55577 21.3306 2.54138 21.3959 2.33817C21.3854 2.23135 21.3339 2.16756 21.2777 2.07441Z" fill="var(--fill-0, #FEFEFE)"/>
<path id="Vector_6" d="M33.4925 5.31752C33.7515 5.60759 34.9064 7.68329 34.6339 7.91739C34.5884 7.83058 34.5887 7.18009 34.3372 7.01792C34.2604 7.00566 33.957 7.12725 33.964 7.1939C33.9941 7.48328 34.2845 8.08291 34.2175 8.36696C34.0777 7.60786 33.825 6.87398 33.4676 6.18977C33.366 5.99846 33.2221 5.79784 33.1296 5.6163L33.1068 5.57146L33.1296 5.56897C33.2385 5.61978 33.5006 6.15925 33.5639 6.29058C33.6507 6.2763 33.8668 6.19143 33.9575 6.15772C33.8595 5.97809 33.5258 5.46026 33.4925 5.31752Z" fill="var(--fill-0, #7A7878)"/>
<path id="Vector_7" d="M34.8843 9.37518C34.8817 9.21493 34.8557 8.98915 34.8716 8.85166L34.8687 8.89312C34.9217 8.9924 34.9386 9.62892 34.9339 9.76674C34.91 9.89239 34.9017 9.95928 34.8937 10.087C34.89 9.94751 34.8963 9.85499 34.855 9.72087L34.8191 9.69825C34.5788 9.81402 34.6581 9.8314 34.3684 9.81644C34.3079 9.89086 34.37 9.95411 34.2962 10.0758C34.3284 9.68074 34.3037 9.27702 34.2858 8.8814L34.3123 8.88524C34.3282 9.06261 34.3565 9.27995 34.3383 9.45329C34.5697 9.38721 34.6365 9.36689 34.8843 9.37518Z" fill="var(--fill-0, #888685)"/>
<path id="Vector_8" d="M34.2962 10.0759C34.37 9.95422 34.3079 9.89096 34.3684 9.81654C34.658 9.8315 34.5788 9.81413 34.8191 9.69835L34.8549 9.72098C34.8962 9.85509 34.89 9.94762 34.8936 10.0871C34.9017 9.95939 34.91 9.8925 34.9339 9.76685C34.9487 10.0395 34.8591 10.4856 34.9614 10.6646C34.7482 11.4697 34.5445 12.1167 34.1468 12.8606C34.0102 13.1162 33.727 13.5147 33.6309 13.7605C33.514 13.9564 32.5394 14.9361 32.3433 15.0468C32.2526 15.1196 32.0061 15.3328 31.9144 15.3524C31.8456 15.3173 31.7757 15.3275 31.6962 15.3281C31.7918 15.2141 31.9363 15.0761 32.0446 14.9672C32.3041 14.6531 32.7264 14.2566 32.9537 13.9378C33.7489 12.8217 34.2396 11.4383 34.2962 10.0759Z" fill="var(--fill-0, #A8A6A5)"/>
<path id="Vector_9" d="M32.0446 14.9671L32.0518 15.0146L31.9383 15.1336C31.9646 15.2057 31.9625 15.2007 32.0186 15.2535C32.1451 15.1694 32.1971 15.067 32.3207 15.0255L32.3433 15.0467C32.2526 15.1196 32.0061 15.3328 31.9144 15.3524C31.8456 15.3172 31.7757 15.3274 31.6962 15.328C31.7918 15.2141 31.9363 15.076 32.0446 14.9671Z" fill="var(--fill-0, #888685)"/>
<path id="Vector_10" d="M17.8882 5.83357C17.9053 5.95376 17.8362 5.95165 17.864 6.07595C17.927 6.12024 17.9369 6.12065 18.0071 6.13528C18.4658 6.23082 18.346 5.73992 18.6644 5.56905C18.2376 6.30501 17.774 7.19646 17.57 8.05554C17.5035 8.33553 17.6342 8.3512 17.3031 8.41185C17.3769 8.48656 17.5143 8.3764 17.4972 8.51823C17.4068 9.26683 17.4412 10.0061 17.5101 10.7537L17.4822 10.7171C17.47 10.609 17.4586 10.5007 17.4481 10.3924C17.3017 10.3789 17.2224 10.4672 16.9316 10.4544L16.8691 10.4905C16.8213 10.7102 17.1576 11.4045 17.0817 11.4901C16.9481 11.1629 16.8479 10.6898 16.7702 10.3431L16.7982 10.2117L16.8065 10.3021C16.8561 10.1471 16.8102 9.42794 16.8223 9.18854C16.8733 8.17848 17.1221 7.25755 17.5879 6.35865C17.6741 6.19224 17.7786 5.97872 17.8882 5.83357Z" fill="var(--fill-0, #949393)"/>
<path id="Vector_11" d="M20.1152 15.3545C20.7945 15.9653 21.5816 16.3881 22.4172 16.7448L22.3798 16.8061C21.936 16.6153 21.4318 16.3863 21.0174 16.1415C20.7275 15.9703 20.4287 15.7533 20.1345 15.5708C20.1433 15.5488 20.1531 15.508 20.1597 15.4838L20.1038 15.3981L20.1152 15.3545Z" fill="var(--fill-0, #161515)"/>
<path id="Vector_12" d="M19.2924 9.06371C19.3089 7.61164 20.084 5.95374 21.1179 4.95649C23.89 2.28259 28.6142 2.17357 31.3248 5.01148C32.4563 6.1962 33.1265 7.76127 33.0995 9.41033C33.0943 9.63113 33.0517 10.3392 32.9839 10.5373C32.8704 11.1582 32.7945 11.687 32.5345 12.2679C32.343 12.7645 32.0726 13.0718 31.709 13.4488C31.4206 13.824 31.3541 13.9049 30.9658 14.1756C30.8468 14.4195 30.1813 14.8287 29.9158 14.8878C29.3153 15.3598 27.9411 15.7787 27.198 15.8304C25.1819 15.9707 23.2329 15.4594 21.6612 14.1911C21.1226 13.8382 20.3639 12.8886 20.0844 12.3061C19.8293 12.0217 19.4484 10.7645 19.3744 10.3573C19.2915 9.96173 19.2889 9.4692 19.2924 9.06371Z" fill="var(--fill-0, #C5C1BE)"/>
<path id="Vector_13" d="M19.2925 9.06371C19.309 7.61164 20.0841 5.95374 21.1179 4.95649C23.8901 2.28259 28.6142 2.17357 31.3248 5.01148C32.4563 6.1962 33.1265 7.76126 33.0995 9.41033C33.0943 9.63113 33.0517 10.3392 32.9839 10.5373C32.985 10.4377 32.9847 10.3651 32.9772 10.2659L32.9543 10.3153C32.9174 9.93175 32.8938 9.04402 32.6138 8.78491L32.5574 8.79984C32.3776 8.99594 32.3311 9.11348 32.2841 9.37968C32.2244 9.32004 32.2259 9.26489 32.2093 9.17868L32.2023 9.14078L32.2018 9.15891C32.1716 9.07968 32.1529 8.96905 32.1345 8.88382C32.1189 8.7875 32.1166 8.17166 32.1057 8.01097C32.0381 7.02412 31.7368 6.32741 31.1755 5.52311C31.1378 5.52145 31.1103 5.54121 31.0741 5.55696L30.9004 5.35699C30.6668 5.09105 30.2614 4.64517 29.9725 4.43697C27.9817 3.00187 25.2885 2.78525 23.0872 3.85672C22.621 4.08364 22.0353 4.55758 21.6534 4.89823C20.7372 5.88262 20.2658 6.70276 20.12 8.08726C20.0836 8.43288 20.1197 8.88338 20.0338 9.18821C20.0754 9.60043 20.2297 9.88975 20.3074 10.2458C20.2674 10.27 20.2382 10.2849 20.1968 10.3062C19.9951 9.96534 19.8769 9.49013 19.7836 9.10483L19.7763 9.06179C19.7677 8.66807 19.3724 8.74773 19.2925 9.06371Z" fill="var(--fill-0, #888685)"/>
<path id="Vector_14" d="M21.6861 4.75201C22.6508 3.68551 24.3583 3.11702 25.7636 3.06818C27.7817 2.99805 29.9727 3.84819 31.1754 5.52313C31.1378 5.52147 31.1102 5.54124 31.0741 5.55698L30.9004 5.35702C30.6668 5.09107 30.2613 4.64519 29.9725 4.43699C27.9817 3.00189 25.2885 2.78528 23.0872 3.85674C22.621 4.08367 22.0352 4.5576 21.6534 4.89825L21.7105 4.80978L21.6861 4.75201Z" fill="var(--fill-0, #CAC8C6)"/>
<path id="Vector_15" d="M21.6861 4.75199L21.7105 4.80976L21.6533 4.89824C20.7372 5.88263 20.2657 6.70277 20.1199 8.08728C20.0835 8.43289 20.1196 8.88339 20.0338 9.18822C19.9906 8.91176 19.9866 8.54968 20.0024 8.27215C20.0717 6.92118 20.6779 5.65389 21.6861 4.75199Z" fill="var(--fill-0, #DFDEDD)"/>
<path id="Vector_16" d="M19.2924 9.06368C19.3724 8.7477 19.7677 8.66804 19.7763 9.06176L19.7836 9.1048C19.8768 9.4901 19.9951 9.96531 20.1967 10.3062C20.2382 10.2849 20.2673 10.27 20.3074 10.2458C20.4493 10.6999 20.6353 10.9323 20.8205 11.3367C20.7541 11.3486 20.7687 11.3375 20.7167 11.3709L21.2153 12.0673L21.2943 12.1629C21.0976 12.1712 21.1937 12.2481 21.0874 12.3529C21.1582 12.632 21.3707 12.8187 21.1243 13.0583C21.3074 13.2447 21.4935 13.4281 21.6827 13.6084C21.916 13.8226 22.1167 13.9907 22.3826 14.1631C22.4724 14.2204 22.5714 14.2871 22.6622 14.3403C24.1305 15.2963 25.8542 15.8761 27.6086 15.4903C27.9668 15.4115 28.8435 15.1835 29.1371 15.0087C29.907 14.7351 31.1679 13.8701 31.5939 13.1794C31.7183 13.0322 31.8666 12.7577 31.9654 12.5837C31.9537 12.6654 31.9318 12.7148 31.9194 12.8131L31.9503 12.817L31.9254 12.8029L31.9321 12.8275C32.0111 12.7434 32.1233 12.5599 32.1908 12.4572L32.1571 12.6052C32.2976 12.5666 32.4334 12.3816 32.5345 12.2679C32.343 12.7644 32.0726 13.0718 31.709 13.4487C31.4206 13.824 31.3541 13.9048 30.9658 14.1755C30.8468 14.4195 30.1813 14.8287 29.9158 14.8877C29.3153 15.3597 27.9411 15.7786 27.198 15.8304C25.1819 15.9707 23.2329 15.4594 21.6612 14.191C21.1226 13.8381 20.3639 12.8886 20.0844 12.3061C19.8293 12.0217 19.4484 10.7645 19.3744 10.3573C19.2915 9.9617 19.2889 9.46917 19.2924 9.06368Z" fill="var(--fill-0, #514F4D)"/>
<path id="Vector_17" d="M19.2924 9.06368C19.3724 8.7477 19.7677 8.66804 19.7763 9.06176L19.7836 9.1048C19.8768 9.4901 19.9951 9.96531 20.1967 10.3062C20.2382 10.2849 20.2673 10.27 20.3074 10.2458C20.4493 10.6999 20.6353 10.9323 20.8205 11.3367C20.7541 11.3486 20.7687 11.3375 20.7167 11.3709L21.2153 12.0673L21.2943 12.1629C21.0976 12.1712 21.1937 12.2481 21.0874 12.3529C21.1582 12.632 21.3707 12.8187 21.1243 13.0583C20.9955 12.9384 20.8609 12.796 20.7364 12.6694C20.5919 12.5339 20.456 12.2295 20.3754 12.0477L20.4196 12.2593C20.251 12.0042 20.1934 11.5183 20.0737 11.2073L20.058 11.2062L19.9932 11.2575C20.0027 11.5324 20.3145 12.1044 20.2718 12.1848C20.3832 12.4729 20.7585 12.8796 20.9403 13.1409C21.0424 13.2876 21.1414 13.4461 21.2424 13.5954C21.372 13.7342 21.6288 13.956 21.629 14.1025C21.629 14.11 21.6567 14.1796 21.6612 14.191C21.1226 13.8381 20.3639 12.8886 20.0844 12.3061C19.8293 12.0217 19.4484 10.7645 19.3744 10.3573C19.2915 9.9617 19.2889 9.46917 19.2924 9.06368Z" fill="var(--fill-0, #3B3938)"/>
<path id="Vector_18" d="M19.2924 9.06368C19.3724 8.7477 19.7677 8.66804 19.7763 9.06176L19.7836 9.1048C19.391 9.50997 19.97 11.7839 20.2718 12.1848C20.3832 12.4729 20.7585 12.8796 20.9403 13.1409C21.0424 13.2876 21.1414 13.4461 21.2424 13.5954C21.372 13.7342 21.6288 13.956 21.629 14.1025C21.629 14.11 21.6567 14.1796 21.6612 14.191C21.1226 13.8381 20.3639 12.8886 20.0844 12.3061C19.8293 12.0217 19.4484 10.7645 19.3744 10.3573C19.2915 9.9617 19.2889 9.46917 19.2924 9.06368Z" fill="var(--fill-0, #585755)"/>
<path id="Vector_19" d="M20.0844 12.3061C20.3189 12.4517 20.4837 13.0083 20.6811 13.0372L20.7048 12.9855C20.9105 13.2788 20.9611 13.364 21.2423 13.5955C21.3719 13.7343 21.6288 13.9561 21.629 14.1025C21.629 14.11 21.6567 14.1796 21.6612 14.1911C21.1225 13.8382 20.3639 12.8886 20.0844 12.3061Z" fill="var(--fill-0, #727071)"/>
<path id="Vector_20" d="M19.2924 9.06368C19.3724 8.7477 19.7677 8.66804 19.7763 9.06176C19.7414 8.98297 19.7299 8.92819 19.6558 8.88935C19.6128 8.89304 19.5826 8.88569 19.5633 8.91611C19.38 9.20585 19.4283 10.0304 19.3744 10.3573C19.2915 9.9617 19.2889 9.46917 19.2924 9.06368Z" fill="var(--fill-0, #727071)"/>
<path id="Vector_21" d="M20.7363 12.6694C20.5603 12.3356 20.4372 11.7306 20.6372 11.3887L20.7166 11.3709L21.2152 12.0673L21.2943 12.1629C21.0976 12.1712 21.1937 12.2482 21.0873 12.3529C21.1581 12.632 21.3707 12.8187 21.1243 13.0583C20.9955 12.9384 20.8609 12.796 20.7363 12.6694Z" fill="var(--fill-0, #727071)"/>
<path id="Vector_22" d="M21.0874 12.353L21.0522 12.3403L21.0409 12.3581C20.9882 12.3412 21.0128 12.3512 20.9699 12.293C20.9897 12.2131 21.0026 12.1469 21.0172 12.0658C20.986 12.0015 20.9858 12.0039 20.9752 11.9336L21.0073 11.914C21.2175 12.0157 20.9638 11.9714 21.2153 12.0673L21.2943 12.1629C21.0976 12.1713 21.1937 12.2482 21.0874 12.353Z" fill="var(--fill-0, #888685)"/>
<path id="Vector_23" d="M20.058 11.2063C20.0704 11.078 19.8571 10.4766 19.902 10.2641L19.9756 10.5065C20.0309 10.69 20.2065 10.88 20.1159 11.132L20.1011 11.1235C20.0839 11.1644 20.0799 11.1644 20.0737 11.2074L20.058 11.2063Z" fill="var(--fill-0, #3C3A3A)"/>
<path id="Vector_24" d="M32.1571 12.6052C32.2976 12.5666 32.4335 12.3816 32.5345 12.2679C32.3431 12.7645 32.0726 13.0718 31.709 13.4488C31.6064 13.5035 31.5201 13.5389 31.4118 13.58C31.7188 13.2315 31.9267 13.0109 32.1571 12.6052Z" fill="var(--fill-0, #888685)"/>
<path id="Vector_25" d="M31.0609 13.9442C31.0307 14.0551 31.0224 14.0756 30.9658 14.1755C30.8468 14.4195 30.1813 14.8287 29.9158 14.8878C30.1592 14.6408 30.7432 14.205 31.0609 13.9442Z" fill="var(--fill-0, #888685)"/>
<path id="Vector_26" d="M31.4118 13.5799C31.5201 13.5389 31.6064 13.5035 31.709 13.4488C31.4206 13.824 31.3541 13.9049 30.9658 14.1755C31.0224 14.0756 31.0307 14.0551 31.0609 13.9442C31.1832 13.8273 31.2962 13.7037 31.4118 13.5799Z" fill="var(--fill-0, #A7A6A5)"/>
<path id="Vector_27" d="M22.9615 13.5574C24.0459 14.0902 24.9363 14.3577 26.1626 14.3615C26.3582 14.3621 26.7579 14.348 26.9419 14.3023C27.3762 14.2921 27.9788 14.1072 28.3864 13.9594C28.5521 13.8993 28.7386 13.8098 28.9036 13.7664C29.1368 13.762 29.3202 13.529 29.4712 13.6537C29.699 13.8419 29.4231 14.2865 29.3665 14.4936C29.3327 14.6165 29.321 14.7463 29.308 14.8594C29.2407 14.9136 29.1758 14.936 29.1371 15.0087C28.8436 15.1835 27.9669 15.4115 27.6087 15.4903C25.8542 15.8762 24.1305 15.2963 22.6622 14.3403C22.6611 14.2598 22.6539 14.0362 22.7159 13.9878C22.8338 13.8959 23.0508 13.7699 23.2008 13.7658C23.1226 13.6823 23.0194 13.7094 22.9615 13.5574Z" fill="var(--fill-0, #FEFEFE)"/>
<path id="Vector_28" d="M32.5573 8.79979L32.6137 8.78486C32.8937 9.04397 32.9174 9.9317 32.9542 10.3153L32.9771 10.2659C32.9846 10.365 32.9849 10.4377 32.9838 10.5373C32.8703 11.1581 32.7945 11.687 32.5345 12.2679C32.4334 12.3816 32.2976 12.5666 32.157 12.6051L32.1908 12.4572C32.1233 12.5599 32.011 12.7434 31.9321 12.8275L31.9253 12.8029L31.9503 12.8169L31.9193 12.8131C31.9318 12.7148 31.9536 12.6654 31.9653 12.5837C31.8666 12.7576 31.7183 13.0322 31.5939 13.1794C31.1679 13.87 29.907 14.7351 29.137 15.0087C29.1757 14.9359 29.2407 14.9135 29.308 14.8593C29.321 14.7462 29.3326 14.6164 29.3664 14.4935C29.423 14.2865 29.6989 13.8419 29.4711 13.6537C29.3202 13.529 29.1368 13.7619 28.9035 13.7663C28.7386 13.8098 28.5521 13.8993 28.3863 13.9594C27.9788 14.1071 27.3761 14.2921 26.9418 14.3022C26.867 14.2938 26.7732 14.2929 26.6961 14.29L26.6846 14.2485C27.7037 14.1325 28.8038 13.8334 29.6423 13.2228C29.9688 13.0554 30.4821 12.5802 30.7312 12.3133C31.4214 11.4703 31.8235 10.7703 32.0539 9.67846C32.0835 9.72306 32.0926 9.73363 32.1292 9.77301L32.183 9.74278C32.2443 9.65846 32.2872 9.47637 32.2841 9.37963C32.3311 9.11343 32.3776 8.99589 32.5573 8.79979Z" fill="var(--fill-0, #2F2D2D)"/>
<path id="Vector_29" d="M31.1427 12.193C31.3019 12.1247 31.5165 12.0141 31.6866 12.0351C31.902 12.1391 31.8807 12.3869 31.9898 12.5393L31.9653 12.5838C31.8666 12.7577 31.7183 13.0323 31.5939 13.1795C31.1679 13.8701 29.907 14.7351 29.1371 15.0088C29.1758 14.936 29.2407 14.9136 29.308 14.8594C29.321 14.7463 29.3327 14.6165 29.3664 14.4936C29.4231 14.2865 29.6989 13.8419 29.4711 13.6537C29.3202 13.529 29.1368 13.762 28.9035 13.7664C29.4412 13.4824 29.7563 13.2752 30.24 12.9159C30.4333 12.739 30.9284 12.3573 31.1427 12.193Z" fill="var(--fill-0, #C8C7C6)"/>
<path id="Vector_30" d="M31.1427 12.193C31.3019 12.1247 31.5165 12.0141 31.6866 12.0351C31.902 12.1391 31.8807 12.3869 31.9898 12.5393L31.9653 12.5838C31.8666 12.7577 31.7183 13.0323 31.5939 13.1795C31.598 12.9713 31.7201 13.0038 31.7173 12.8249C31.5967 12.7113 31.4689 12.5258 31.3879 12.4793C31.2323 12.4864 30.4678 12.887 30.24 12.9159C30.4333 12.739 30.9284 12.3573 31.1427 12.193Z" fill="var(--fill-0, #7B7A79)"/>
<path id="Vector_31" d="M31.1427 12.1929C31.4282 11.9099 31.7015 11.7302 31.8913 11.3627C31.9797 11.1923 32.0958 10.8825 32.1963 10.738C32.2444 10.7629 32.4072 11.0427 32.4753 11.1288C32.3841 11.5132 32.2202 12.2263 31.9898 12.5392C31.8807 12.3868 31.902 12.139 31.6867 12.035C31.5165 12.014 31.3019 12.1246 31.1427 12.1929Z" fill="var(--fill-0, #504F4F)"/>
<path id="Vector_32" d="M32.5574 8.79979L32.6138 8.78486C32.8938 9.04397 32.9174 9.9317 32.9543 10.3153L32.9772 10.2659C32.9847 10.365 32.985 10.4377 32.9839 10.5373C32.8704 11.1581 32.7946 11.687 32.5346 12.2679C32.4335 12.3816 32.2976 12.5666 32.1571 12.6051L32.1909 12.4572C32.7057 11.3533 32.8247 10.6092 32.765 9.40847C32.7546 9.19577 32.7195 8.94409 32.5574 8.79979Z" fill="var(--fill-0, #585755)"/>
<path id="Vector_33" d="M20.7167 11.3709C20.7687 11.3375 20.7541 11.3486 20.8205 11.3367C21.3368 12.1689 21.902 12.7441 22.7204 13.2828C22.9477 13.2468 23.3248 13.4853 23.5527 13.5858C24.0814 13.8141 24.6392 13.9679 25.2102 14.0429C26.5644 14.2118 28.5511 13.8863 29.6421 13.0361C29.9416 12.8581 30.2668 12.521 30.5705 12.3339C30.6619 12.2776 30.6383 12.2897 30.7313 12.3133C30.4822 12.5802 29.9689 13.0554 29.6423 13.2228C28.8038 13.8334 27.7037 14.1325 26.6847 14.2485L26.6961 14.29C26.7733 14.2929 26.8671 14.2938 26.9419 14.3023C26.758 14.3479 26.3582 14.3621 26.1626 14.3615C24.9363 14.3577 24.0459 14.0902 22.9615 13.5574C23.0194 13.7093 23.1226 13.6822 23.2008 13.7657C23.0508 13.7698 22.8338 13.8959 22.7159 13.9878C22.6539 14.0362 22.6611 14.2598 22.6622 14.3403C22.5714 14.2871 22.4724 14.2204 22.3827 14.1631C22.1167 13.9907 21.916 13.8226 21.6828 13.6084C21.4936 13.4281 21.3074 13.2447 21.1243 13.0583C21.3708 12.8187 21.1582 12.632 21.0874 12.3529C21.1937 12.2481 21.0977 12.1712 21.2943 12.1629L21.2153 12.0673L20.7167 11.3709Z" fill="var(--fill-0, #A7A6A5)"/>
<path id="Vector_34" d="M21.0874 12.3529C21.1937 12.2482 21.0977 12.1712 21.2943 12.1629C21.6612 12.5961 21.9793 12.8959 22.4455 13.224C22.5271 13.2814 22.9328 13.5275 22.9614 13.5574C23.0194 13.7094 23.1226 13.6823 23.2008 13.7658C23.0508 13.7698 22.8337 13.8959 22.7159 13.9878C22.6539 14.0362 22.6611 14.2598 22.6622 14.3403C22.5714 14.2871 22.4724 14.2205 22.3826 14.1631C22.1167 13.9907 21.916 13.8226 21.6827 13.6084C21.4936 13.4281 21.3074 13.2447 21.1243 13.0583C21.3707 12.8188 21.1582 12.632 21.0874 12.3529Z" fill="var(--fill-0, #D6D4D4)"/>
<path id="Vector_35" d="M21.6827 13.6084L21.7358 13.529C21.9451 13.4975 22.3895 13.939 22.3826 14.1632C22.1167 13.9908 21.916 13.8226 21.6827 13.6084Z" fill="var(--fill-0, #CAC8C6)"/>
<path id="Vector_36" d="M20.7167 11.3709C20.7687 11.3375 20.7541 11.3486 20.8205 11.3367C21.3368 12.1689 21.902 12.7441 22.7204 13.2828C23.9385 14.1255 25.2602 14.2778 26.6847 14.2485L26.6961 14.29C26.7733 14.2929 26.8671 14.2938 26.9419 14.3023C26.758 14.3479 26.3582 14.3621 26.1626 14.3615C24.9363 14.3577 24.0459 14.0902 22.9615 13.5574C22.9328 13.5275 22.5271 13.2813 22.4455 13.2239C21.9794 12.8958 21.6612 12.596 21.2943 12.1629L21.2153 12.0673L20.7167 11.3709Z" fill="var(--fill-0, #161515)"/>
<path id="Vector_37" d="M32.1345 8.8838C32.1529 8.96903 32.1716 9.07966 32.2018 9.15889L32.2023 9.14076L32.2093 9.17866C32.2259 9.26487 32.2244 9.32002 32.2841 9.37966C32.2872 9.4764 32.2444 9.65849 32.1831 9.74281L32.1293 9.77304C32.0927 9.73366 32.0836 9.72309 32.054 9.67849C32.0698 9.41455 32.1272 9.18263 32.1345 8.8838Z" fill="var(--fill-0, #3C3A3A)"/>
<path id="Vector_38" d="M23.7835 10.4218C23.1074 9.24398 23.4907 7.74207 24.6484 7.03219C25.8061 6.32231 27.3185 6.6619 28.0616 7.79859C28.8048 8.9353 28.5092 10.4569 27.3943 11.2326C26.2797 12.0083 24.7502 11.7569 23.9426 10.6651C23.8849 10.5872 23.8317 10.5059 23.7835 10.4218Z" fill="var(--fill-0, #FEFEFE)"/>
<path id="Vector_39" d="M23.7835 10.4218C23.7873 10.2289 23.6481 9.92604 23.6046 9.71849C23.3619 8.55858 24.2942 7.16569 25.5346 7.12501C25.5903 7.12358 25.6459 7.1241 25.7015 7.12657C25.6239 7.16356 25.6378 7.1486 25.5635 7.15229C25.0451 7.17803 24.5766 7.47592 24.2183 7.82855C23.7769 8.26305 23.6658 8.91765 23.6538 9.50887C23.6472 9.8303 23.8327 10.3494 23.9426 10.6651C23.8849 10.5872 23.8318 10.5059 23.7835 10.4218Z" fill="var(--fill-0, #CAC8C6)"/>
<path id="Vector_40" d="M26.3223 7.14898C27.5452 7.2401 28.4264 8.28653 28.4074 9.49917C28.3775 9.45231 28.3895 9.4793 28.3754 9.42711C28.25 8.96575 28.0853 8.36261 27.8006 7.9805C27.5372 7.64512 27.1572 7.41466 26.7683 7.25309C26.6496 7.20366 26.4033 7.19472 26.3223 7.14898Z" fill="var(--fill-0, #727071)"/>
<path id="Vector_41" d="M48.3261 31.554C48.369 32.5806 48.2077 32.9627 48.1537 33.8563C48.1072 34.287 47.9521 35.4185 47.5863 35.6606C47.3292 35.977 47.1738 36.1567 46.8595 36.4258C46.5598 36.4786 45.8184 36.4601 45.4802 36.4601C44.5783 36.4635 43.6764 36.4575 42.7745 36.4417L35.8402 36.417L14.0699 36.377L7.98088 36.3466C6.85271 36.3393 5.69815 36.3136 4.57091 36.337C4.51701 36.11 4.46659 35.9204 4.39859 35.6972C4.26637 35.4349 4.19377 35.0608 4.05373 34.7777C3.87499 34.4166 3.57803 34.0716 3.46327 33.6942L3.49618 33.6872L3.51761 33.6412C3.41817 33.098 3.44319 32.4746 3.46781 31.9265C4.41293 31.9322 5.339 31.8426 6.30259 31.8398L17.7301 31.8385L46.4044 31.8403C46.6637 31.812 47.0037 31.8489 47.2694 31.8257C47.3292 31.8205 47.4744 31.6823 47.5414 31.6738C47.7256 31.6504 48.1799 31.6408 48.3261 31.554Z" fill="var(--fill-0, #BAB6B3)"/>
<path id="Vector_42" d="M4.51973 35.3149C4.69429 35.278 5.18874 35.2902 5.38647 35.2915C5.88542 35.297 6.38442 35.2996 6.8834 35.2991L13.9389 35.3139L39.8798 35.3687C40.6029 35.37 47.331 35.3549 47.4944 35.4204L47.5136 35.4814C47.5004 35.5149 47.4658 35.5962 47.4596 35.6269C47.5139 35.638 47.5365 35.6383 47.5864 35.6606C47.3292 35.977 47.1739 36.1568 46.8595 36.4259C46.5598 36.4786 45.8184 36.4602 45.4802 36.4602C44.5783 36.4636 43.6764 36.4576 42.7745 36.4417L35.8402 36.4171L14.0699 36.3771L7.98089 36.3467C6.85272 36.3394 5.69816 36.3137 4.57093 36.3371C4.51703 36.11 4.46661 35.9204 4.3986 35.6973L4.43393 35.6401L4.46855 35.6523L4.52336 35.7913C4.51456 35.6716 4.47362 35.4037 4.51973 35.3149Z" fill="var(--fill-0, #CAC8C6)"/>
<path id="Vector_43" d="M4.51979 35.3149C4.69435 35.278 5.1888 35.2902 5.38653 35.2915C5.88548 35.297 6.38448 35.2996 6.88346 35.2991L13.939 35.3139L39.8798 35.3687C40.603 35.37 47.3311 35.3549 47.4945 35.4204L47.5137 35.4814C47.2453 35.5464 46.2972 35.523 45.9658 35.5225L43.1461 35.5178L29.6746 35.4544L12.0729 35.4201C10.2024 35.4315 8.33171 35.4274 6.46119 35.4076C6.00864 35.4014 5.55265 35.4149 5.10041 35.4017C4.94943 35.3973 4.6731 35.403 4.53595 35.3814L4.51979 35.3149Z" fill="var(--fill-0, #FEFEFE)"/>
<path id="Vector_44" d="M47.4596 35.6268C47.5139 35.638 47.5365 35.6383 47.5864 35.6606C47.3292 35.977 47.1739 36.1567 46.8595 36.4259C46.5598 36.4786 45.8184 36.4601 45.4802 36.4601C44.5783 36.4635 43.6764 36.4575 42.7745 36.4417L35.8402 36.417L14.0699 36.377L7.98089 36.3466C6.85272 36.3394 5.69816 36.3136 4.57093 36.337C4.51703 36.11 4.46661 35.9204 4.3986 35.6972L4.43393 35.6401L4.46855 35.6523L4.52336 35.7913C4.56882 35.8936 4.6241 36.1399 4.64104 36.2503C5.98694 36.211 7.48488 36.2443 8.84169 36.2487L15.6827 36.2627L37.7378 36.3279L44.197 36.3412C45.0204 36.3412 45.987 36.3796 46.7832 36.3549C47.0242 36.1941 47.3175 35.8759 47.4596 35.6268Z" fill="var(--fill-0, #888685)"/>
<path id="Vector_45" d="M48.3262 31.554C48.3691 32.5806 48.2077 32.9627 48.1537 33.8563L48.1192 33.8945C48.076 33.8368 48.0763 33.789 48.0833 33.708C48.1407 33.0632 48.2316 32.5177 48.2335 31.865C47.9633 31.9029 46.7227 31.8655 46.4045 31.8403C46.6637 31.812 47.0038 31.8489 47.2695 31.8257C47.3292 31.8205 47.4744 31.6823 47.5415 31.6738C47.7256 31.6504 48.18 31.6408 48.3262 31.554Z" fill="var(--fill-0, #888685)"/>
<path id="Vector_46" d="M17.0816 11.4901C17.1576 11.4045 16.8212 10.7102 16.869 10.4905L16.9315 10.4544C17.2223 10.4672 17.3016 10.379 17.448 10.3924C17.4585 10.5008 17.4699 10.609 17.4822 10.7171L17.5101 10.7537C17.569 10.8539 17.6544 11.4815 17.7143 11.644C17.9873 12.3852 18.2759 13.1013 18.7242 13.7587C18.744 13.7878 18.7918 13.8487 18.7928 13.879C19.0856 14.1901 19.3138 14.5983 19.6561 14.8945C19.7349 14.9627 20.0819 15.297 20.1152 15.3545L20.1037 15.3981L20.1597 15.4838C20.1531 15.508 20.1433 15.5488 20.1345 15.5708C20.4287 15.7533 20.7274 15.9703 21.0173 16.1415C21.4318 16.3863 21.9359 16.6153 22.3798 16.8061L22.4172 16.7448C22.8215 16.8835 24.0805 17.3137 24.5152 17.2995C24.5811 17.2845 25.1894 17.3682 25.3263 17.3704C25.5744 17.3745 25.9012 17.4061 26.1506 17.3903C26.6106 17.361 27.0839 17.2893 27.5387 17.2151C27.7141 17.1865 27.9193 17.1285 28.0861 17.1207C29.3218 16.8467 30.7481 16.1818 31.6962 15.328C31.7757 15.3274 31.8456 15.3172 31.9144 15.3523C32.0061 15.3328 32.2526 15.1195 32.3433 15.0467C32.5394 14.9361 33.514 13.9563 33.6309 13.7604C33.6359 14.0179 33.6327 14.2604 33.6787 14.5146L33.6951 14.5687C33.7302 14.7549 33.6948 14.8608 33.7154 15.0196C34.0484 15.0351 34.7845 15.0428 35.1113 15.0162L35.1508 15.0288C35.1921 15.4429 35.2292 16.6058 35.0801 16.957C35.0373 17.0354 35.0165 17.0768 34.9606 17.1485C34.512 17.2072 34.165 17.1758 33.7322 17.1944C33.72 17.3406 33.6985 17.789 33.6647 17.9012L33.6013 19.0018C33.5774 19.6975 33.5582 20.3752 33.4907 21.0688C33.4522 21.4623 33.5226 21.9556 33.5987 22.3411C33.5917 22.645 33.6405 22.7785 33.7141 23.0648C33.8174 23.2978 33.8748 23.5422 33.9546 23.7835C34.1775 24.4571 34.4063 25.2421 34.8916 25.7736C34.9921 25.8837 35.277 26.1751 35.3116 26.3279C35.3025 26.3562 35.2937 26.3843 35.2846 26.4123C35.1407 26.5609 34.9622 26.5341 34.7734 26.4985C34.5113 26.5173 34.2762 26.571 33.9826 26.5767C32.6163 26.6038 31.2364 26.5928 29.8698 26.5918C27.3593 26.5939 24.8486 26.5713 22.3384 26.524L19.8186 26.49C19.081 26.4856 17.8334 26.5131 17.1574 26.3502C17.0459 26.3341 16.9808 26.3471 16.9213 26.2783C16.8833 26.0377 17.1713 25.5694 17.2931 25.3442C17.6759 24.7488 17.8621 24.0243 18.0617 23.3526C18.1467 23.0666 18.1183 21.4776 18.1599 21.4163C18.2116 21.4649 18.2179 21.5311 18.2364 21.6028L18.2331 21.394C18.2193 21.2948 18.2167 21.1867 18.1598 21.1082L18.1281 21.1189C18.0846 21.248 18.0967 21.3446 18.0989 21.4813C18.0095 20.9436 18.1086 20.3238 18.0465 19.8022C17.9518 19.0063 17.8931 18.3002 17.8622 17.4973C17.6349 17.5169 17.4603 17.5213 17.2351 17.4919C17.1954 17.3555 17.1877 17.2615 17.1704 17.1218C17.1966 17.1904 17.1976 17.1979 17.2382 17.258C17.2924 17.1782 17.2452 16.9101 17.2956 16.7619L17.2926 16.74C17.2837 16.6743 17.2838 16.6783 17.2988 16.6137L17.3438 16.5967C17.3488 16.5195 17.3453 16.4105 17.3453 16.3309L17.28 16.2939C17.2581 16.2069 17.2867 16.0524 17.2984 15.9569C17.3107 15.814 17.3072 15.2468 17.2694 15.1236C17.4152 15.1313 17.5981 15.1285 17.7469 15.1304C17.7453 15.0253 17.7316 14.8141 17.7622 14.724L17.7898 14.5898C17.7995 14.3118 17.8403 13.4253 17.775 13.1913C17.6204 12.6372 17.187 12.1212 17.0816 11.4901Z" fill="var(--fill-0, #C5C1BE)"/>
<path id="Vector_47" d="M33.3374 14.5026L33.6787 14.5146L33.6951 14.5687C33.7302 14.7549 33.6948 14.8608 33.7154 15.0196C34.0484 15.0351 34.7845 15.0428 35.1113 15.0162L35.1508 15.0289C35.1921 15.4429 35.2293 16.6059 35.0802 16.957C35.0373 17.0354 35.0165 17.0768 34.9607 17.1485C34.5121 17.2072 34.165 17.1758 33.7323 17.1945C33.72 17.3407 33.6985 17.789 33.6647 17.9013L33.6013 19.0019C33.5091 18.8361 33.6452 18.5572 33.5535 18.4444L33.5102 18.4548C33.472 18.5439 33.4769 18.6437 33.4733 18.7421L33.4408 18.7699C33.3881 19.7645 33.3203 20.8246 33.2805 21.8146C33.2106 21.6743 33.2959 20.6532 33.306 20.4337L33.4429 17.7423C33.4517 17.5551 33.4465 17.3587 33.4509 17.1701C33.4553 16.9801 33.6411 16.4214 33.4935 16.3033L33.4481 16.3231C33.3849 16.4771 33.413 16.6312 33.3805 16.7881L33.3556 16.8006C33.3338 16.6421 33.3948 16.4181 33.3639 16.3147C33.2675 16.585 33.3278 16.6718 33.3026 16.9262L33.2746 16.9251C33.2668 16.2287 33.3153 15.2162 33.3374 14.5026Z" fill="var(--fill-0, #888685)"/>
<path id="Vector_48" d="M33.7153 15.0196C34.0484 15.0351 34.7845 15.0428 35.1113 15.0162C35.0721 15.1665 35.0664 15.3398 35.0552 15.4961L35.0443 15.7016L35.0586 15.851C34.9788 15.8772 34.7926 15.912 34.7154 15.9069C34.3486 15.8826 33.481 16.1062 33.7307 15.4303C33.7655 15.336 33.7657 15.1627 33.7681 15.063L33.7153 15.0196Z" fill="var(--fill-0, #DFDEDD)"/>
<path id="Vector_49" d="M35.0443 15.7017C34.9056 15.7817 33.9208 15.8448 33.818 15.6495C33.9328 15.3919 34.8248 15.4307 35.0552 15.4962L35.0443 15.7017Z" fill="var(--fill-0, #FEFEFE)"/>
<path id="Vector_50" d="M33.6587 16.6039C33.9736 16.6923 34.5591 16.7228 34.8942 16.6979C34.9529 16.6935 34.9422 16.665 35.0285 16.7035C35.0352 16.8102 35.0292 16.8631 35.0802 16.957C35.0373 17.0354 35.0165 17.0768 34.9607 17.1485C34.5121 17.2072 34.165 17.1758 33.7323 17.1945C33.72 17.3406 33.6985 17.789 33.6647 17.9012C33.6658 17.613 33.6494 17.3257 33.6564 17.0381C33.6686 16.9254 33.6603 16.7237 33.6587 16.6039Z" fill="var(--fill-0, #C5C1BE)"/>
<path id="Vector_51" d="M33.6951 14.5687C33.7302 14.7549 33.6949 14.8608 33.7154 15.0196L33.7681 15.063C33.7658 15.1627 33.7655 15.336 33.7307 15.4303C33.4811 16.1062 34.3487 15.8826 34.7155 15.9069C34.7926 15.9121 34.9789 15.8772 35.0586 15.851C35.057 15.9209 35.0563 15.9175 35.0311 15.9834C34.7656 16.1641 34.1635 15.9756 33.8808 16.0767C33.7728 16.1153 33.5977 16.3811 33.4359 16.2661C33.3805 16.1201 33.5 15.4068 33.5619 15.235C33.578 15.1901 33.6117 15.1935 33.6751 15.1688C33.7058 15.0873 33.6858 14.7176 33.6951 14.5687Z" fill="var(--fill-0, #CAC8C6)"/>
<path id="Vector_52" d="M33.6369 17.032L33.6564 17.0381C33.6494 17.3257 33.6658 17.613 33.6647 17.9013L33.6014 19.0019C33.5091 18.8361 33.6453 18.5572 33.5536 18.4444L33.5102 18.4548C33.472 18.5439 33.4769 18.6437 33.4733 18.7421L33.4408 18.7699C33.4502 18.2873 33.4884 17.6513 33.5278 17.1678C33.5307 17.2617 33.5216 17.335 33.5678 17.4143L33.599 17.3901C33.6416 17.2331 33.6382 17.1913 33.6369 17.032Z" fill="var(--fill-0, #3C3A3A)"/>
<path id="Vector_53" d="M33.5278 17.1678C33.5346 17.0412 33.538 16.7837 33.6071 16.6873C33.645 16.7906 33.6359 16.9184 33.6369 17.032C33.6382 17.1913 33.6416 17.2331 33.599 17.3901L33.5678 17.4143C33.5216 17.335 33.5307 17.2617 33.5278 17.1678Z" fill="var(--fill-0, #696867)"/>
<path id="Vector_54" d="M34.949 16.3434L34.9565 16.3425L34.9851 16.3647C34.9984 16.4589 35.0069 16.476 34.968 16.5643C34.856 16.5861 34.0069 16.5977 33.8453 16.6006L33.817 16.6C33.7952 16.516 33.8209 16.4447 33.8383 16.3545C34.1287 16.3647 34.6763 16.3892 34.949 16.3434Z" fill="var(--fill-0, #3C3A3A)"/>
<path id="Vector_55" d="M17.7899 14.5899C17.903 14.585 18.0386 14.5755 18.1498 14.5796C18.1642 15.9169 18.221 17.2535 18.32 18.5873C18.3532 19.0741 18.4332 19.5676 18.4529 20.05C18.4743 20.5719 18.2091 20.823 18.2332 21.394C18.2194 21.2948 18.2168 21.1867 18.1599 21.1083L18.1281 21.1189C18.0846 21.248 18.0968 21.3446 18.0989 21.4813C18.0096 20.9436 18.1086 20.3238 18.0466 19.8022C17.9519 19.0063 17.8931 18.3002 17.8623 17.4974C17.635 17.5169 17.4604 17.5214 17.2352 17.4919C17.1954 17.3555 17.1877 17.2616 17.1705 17.1218C17.1966 17.1904 17.1977 17.1979 17.2382 17.258C17.2924 17.1783 17.2453 16.9101 17.2956 16.7619L17.2927 16.74C17.2837 16.6744 17.2838 16.6784 17.2988 16.6137L17.3438 16.5967C17.3488 16.5195 17.3454 16.4105 17.3453 16.331L17.28 16.2939C17.2582 16.2069 17.2868 16.0525 17.2984 15.9569C17.3108 15.814 17.3072 15.2468 17.2695 15.1236C17.4153 15.1313 17.5981 15.1285 17.747 15.1305C17.7453 15.0253 17.7317 14.8141 17.7622 14.7241L17.7899 14.5899Z" fill="var(--fill-0, #8E8C8B)"/>
<path id="Vector_56" d="M17.2927 16.74C17.499 16.7183 17.6167 16.7091 17.8229 16.7127L17.8546 17.0859C17.8824 17.2005 17.8715 17.3764 17.8623 17.4973C17.635 17.5169 17.4604 17.5214 17.2352 17.4919C17.1954 17.3555 17.1877 17.2616 17.1705 17.1218C17.1966 17.1904 17.1977 17.1979 17.2382 17.258C17.2924 17.1783 17.2453 16.9101 17.2956 16.7619L17.2927 16.74Z" fill="var(--fill-0, #C5C1BE)"/>
<path id="Vector_57" d="M17.2956 16.7619C17.3009 16.902 17.3037 17.0556 17.3126 17.1943C17.4596 17.1948 17.8002 17.2399 17.8546 17.0858C17.8824 17.2005 17.8715 17.3764 17.8623 17.4973C17.635 17.5169 17.4604 17.5213 17.2352 17.4919C17.1954 17.3555 17.1877 17.2615 17.1705 17.1218C17.1966 17.1904 17.1977 17.1979 17.2382 17.258C17.2924 17.1782 17.2453 16.9101 17.2956 16.7619Z" fill="var(--fill-0, #A7A6A5)"/>
<path id="Vector_58" d="M17.7469 15.1305C17.7453 15.0253 17.7316 14.8141 17.7622 14.7241C17.7837 14.9158 17.8006 15.8045 17.7823 15.9913C17.6136 16.006 17.416 16.0547 17.2984 15.9569C17.3107 15.814 17.3072 15.2468 17.2694 15.1236C17.4152 15.1313 17.5981 15.1285 17.7469 15.1305Z" fill="var(--fill-0, #FEFEFE)"/>
<path id="Vector_59" d="M17.3453 16.331C17.4359 16.3262 17.7398 16.3609 17.8111 16.43C17.7595 16.5832 17.4793 16.5702 17.3438 16.5968C17.3488 16.5195 17.3454 16.4105 17.3453 16.331Z" fill="var(--fill-0, #3C3A3A)"/>
<path id="Vector_60" d="M33.4408 18.7699L33.4733 18.7421C33.477 18.6437 33.472 18.5439 33.5102 18.4548L33.5536 18.4444C33.6453 18.5572 33.5092 18.8361 33.6014 19.0019C33.5775 19.6975 33.5583 20.3752 33.4907 21.0688C33.4523 21.4623 33.5227 21.9556 33.5988 22.3411C33.5918 22.645 33.6406 22.7785 33.7141 23.0648C33.8175 23.2978 33.8749 23.5422 33.9547 23.7836C34.1775 24.4571 34.4064 25.2421 34.8916 25.7736C34.9921 25.8837 35.2771 26.1752 35.3116 26.3279C35.3026 26.3562 35.2937 26.3843 35.2846 26.4123C35.1407 26.5609 34.9623 26.5342 34.7734 26.4986C34.118 26.2266 34.0749 25.4655 33.8882 24.8888C33.551 23.8482 33.332 22.9087 33.2806 21.8146C33.3203 20.8246 33.3881 19.7645 33.4408 18.7699Z" fill="var(--fill-0, #161515)"/>
<path id="Vector_61" d="M17.2931 25.3442C17.6759 24.7488 17.8621 24.0244 18.0617 23.3526C18.1467 23.0666 18.1183 21.4777 18.1599 21.4164C18.2116 21.4649 18.2179 21.5312 18.2363 21.6029C18.2768 22.2546 18.3118 22.9139 18.2605 23.5656C18.1052 24.3776 17.8948 25.1642 17.7002 25.9663C17.6886 26.0144 17.7112 26.0874 17.7263 26.1339C17.5233 26.3669 17.4521 26.3516 17.1574 26.3503C17.0459 26.3342 16.9808 26.3471 16.9213 26.2783C16.8833 26.0378 17.1713 25.5694 17.2931 25.3442Z" fill="var(--fill-0, #201F1F)"/>
<path id="Vector_62" d="M17.7263 26.1339C17.7112 26.0874 17.6887 26.0144 17.7003 25.9663C17.8949 25.1642 18.1053 24.3776 18.2606 23.5656C18.2904 23.8867 18.3111 24.1799 18.2975 24.5039C18.2888 24.7106 18.1109 25.0927 18.1771 25.2387C18.3751 24.9338 18.604 24.1867 18.592 23.8381C18.5491 23.7898 18.556 23.803 18.4934 23.7708C18.5488 23.7404 18.5182 23.7508 18.5969 23.7643C18.8515 24.0955 17.9958 25.7785 17.7263 26.1339Z" fill="var(--fill-0, #8A8887)"/>
<path id="Vector_63" d="M18.7928 13.879C19.0856 14.1901 19.3138 14.5983 19.6561 14.8945C19.735 14.9627 20.0819 15.297 20.1152 15.3545L20.1038 15.3981L20.1597 15.4838C20.1531 15.508 20.1433 15.5489 20.1345 15.5708C19.8195 15.4145 19.2529 14.9011 19.0039 14.6523C19.1599 14.701 19.2843 14.7734 19.4124 14.7302L19.4083 14.7054C19.3002 14.6093 19.2562 14.5763 19.1913 14.4432L19.1687 14.4409C19.1677 14.5349 19.1851 14.5418 19.1378 14.5955C18.9917 14.5842 18.7639 14.2622 18.6628 14.1493L18.6728 14.106C18.7981 14.1583 19.0067 14.4607 19.09 14.5234C19.0764 14.4762 19.0821 14.5033 19.0768 14.4413L19.1216 14.393C19.0669 14.2363 18.8297 14.0846 18.7928 13.879Z" fill="var(--fill-0, #8A8888)"/>
<path id="Vector_64" d="M31.6962 15.3281C31.7757 15.3274 31.8456 15.3172 31.9144 15.3524C30.864 16.091 29.7924 16.7751 28.5214 17.0533C28.3549 17.0898 28.271 17.1971 28.0861 17.1207C29.3218 16.8467 30.7481 16.1819 31.6962 15.3281Z" fill="var(--fill-0, #3C3A3A)"/>
<path id="Vector_65" d="M22.4172 16.7448C22.8215 16.8835 24.0805 17.3137 24.5152 17.2995C24.2664 17.4335 22.6705 16.9336 22.3798 16.8061L22.4172 16.7448Z" fill="var(--fill-0, #727071)"/>
<path id="Vector_66" d="M33.1569 18.8914C33.2221 19.201 33.0408 19.7577 33.0683 20.0567C33.1146 20.563 32.9569 21.0466 32.9418 21.5134C32.9221 21.5004 32.9093 21.4937 32.8925 21.4752C32.7304 21.2991 33.1665 19.3099 33.1569 18.8914Z" fill="var(--fill-0, #888685)"/>
<path id="Vector_67" d="M18.0989 21.4813C18.0968 21.3446 18.0846 21.248 18.1281 21.1189L18.1599 21.1083C18.2167 21.1867 18.2194 21.2948 18.2331 21.394L18.2364 21.6028C18.2179 21.5312 18.2116 21.4649 18.16 21.4163C18.1183 21.4776 18.1467 23.0666 18.0617 23.3526C17.8621 24.0243 17.6759 24.7488 17.2931 25.3442C17.3526 25.0109 17.6104 24.2566 17.7567 23.961L17.7496 23.8802L17.7195 23.8565C17.5639 23.9521 17.4419 24.0903 17.3015 24.2083C16.4327 24.9382 15.519 25.6484 14.5106 26.1772C14.2352 26.3217 13.8445 26.4895 13.5358 26.5671C12.5822 26.6955 11.5299 26.6892 10.5624 26.7318C8.51721 26.8235 6.4714 26.9009 4.42513 26.9641C4.1755 28.0836 3.91286 29.0533 3.68172 30.2103C3.86187 30.2196 4.11345 30.2256 4.28533 30.2521C5.44023 30.2734 6.65976 30.2526 7.82076 30.2524H14.7771L35.8535 30.2529H44.2373L46.6427 30.2516C47.0837 30.2516 47.7674 30.2355 48.1901 30.2945C48.2986 30.3825 48.2872 30.3685 48.2984 30.5147L48.3124 30.5215C48.3145 30.8657 48.3192 31.2099 48.3262 31.554C48.1799 31.6408 47.7256 31.6504 47.5414 31.6738C47.4744 31.6824 47.3292 31.8206 47.2695 31.8258C47.0037 31.8489 46.6637 31.812 46.4045 31.8403L17.7301 31.8385L6.30261 31.8398C5.33903 31.8426 4.41295 31.9323 3.46784 31.9265C3.44321 32.4746 3.4182 33.0981 3.51763 33.6412L3.4962 33.6872L3.46329 33.6942C3.06066 32.2549 3.69139 29.5409 4.0298 28.087C4.12158 27.6927 4.26065 27.2701 4.34843 26.8516C4.37604 26.8518 4.40368 26.8521 4.43132 26.8524C5.12563 26.8557 5.84977 26.8046 6.54442 26.7768L10.3111 26.6274L12.2402 26.5573C12.5951 26.5432 13.3936 26.5303 13.7073 26.4217C15.1382 25.9271 16.5333 24.7584 17.6505 23.7615C18.1426 23.3222 18.1075 22.1146 18.0989 21.4813Z" fill="var(--fill-0, #161515)"/>
<path id="Vector_68" d="M18.0989 21.4813C18.0968 21.3446 18.0846 21.248 18.1281 21.1189L18.1599 21.1083C18.2167 21.1867 18.2194 21.2948 18.2331 21.394L18.2364 21.6028C18.2179 21.5312 18.2116 21.4649 18.16 21.4163C18.1183 21.4776 18.1467 23.0666 18.0617 23.3526C17.8621 24.0243 17.6759 24.7488 17.2931 25.3442C17.3526 25.0109 17.6104 24.2566 17.7567 23.961L17.7496 23.8802L17.7195 23.8565C17.5639 23.9521 17.4419 24.0903 17.3015 24.2083C16.4327 24.9382 15.519 25.6484 14.5106 26.1772C14.2352 26.3217 13.8445 26.4895 13.5358 26.5671C12.5822 26.6955 11.5299 26.6892 10.5624 26.7318C8.51721 26.8235 6.4714 26.9009 4.42513 26.9641C4.1755 28.0836 3.91286 29.0533 3.68172 30.2103C3.86187 30.2196 4.11345 30.2256 4.28533 30.2521C4.09669 30.2654 3.9318 30.2646 3.74251 30.2638C3.69544 30.4753 3.54262 31.1254 3.60359 31.2896C3.70393 31.3392 5.17722 31.3514 5.42636 31.353L37.1006 31.3548L44.3142 31.3468C45.5278 31.3473 46.7359 31.379 47.9477 31.3034C48.0755 31.2956 48.1555 31.2945 48.281 31.2603C48.2851 31.0426 48.2807 30.7246 48.2984 30.5147L48.3124 30.5215C48.3145 30.8657 48.3192 31.2099 48.3262 31.554C48.1799 31.6408 47.7256 31.6504 47.5414 31.6738C47.4744 31.6824 47.3292 31.8206 47.2695 31.8258C47.0037 31.8489 46.6637 31.812 46.4045 31.8403L17.7301 31.8385L6.30261 31.8398C5.33903 31.8426 4.41295 31.9323 3.46784 31.9265C3.44321 32.4746 3.4182 33.0981 3.51763 33.6412L3.4962 33.6872L3.46329 33.6942C3.06066 32.2549 3.69139 29.5409 4.0298 28.087C4.12158 27.6927 4.26065 27.2701 4.34843 26.8516C4.37604 26.8518 4.40368 26.8521 4.43132 26.8524C5.12563 26.8557 5.84977 26.8046 6.54442 26.7768L10.3111 26.6274L12.2402 26.5573C12.5951 26.5432 13.3936 26.5303 13.7073 26.4217C15.1382 25.9271 16.5333 24.7584 17.6505 23.7615C18.1426 23.3222 18.1075 22.1146 18.0989 21.4813Z" fill="var(--fill-0, #727071)"/>
<path id="Vector_69" d="M43.4445 26.8261C44.2422 26.8014 45.0399 26.783 45.8379 26.771C46.247 26.7671 47.052 26.7812 47.43 26.7404C48.1524 27.9122 48.3599 29.1702 48.3124 30.5215L48.2984 30.5147C48.2872 30.3685 48.2986 30.3825 48.19 30.2944C48.2085 30.2799 48.2381 30.2672 48.2389 30.2381C48.2643 29.0037 47.9801 27.9296 47.4063 26.8445C46.9879 26.8734 46.5606 26.8588 46.1403 26.87C45.374 26.8905 44.5968 26.9134 43.8305 26.9033C43.592 26.8809 43.0899 26.9472 42.9447 26.8731C42.9935 26.8443 43.3359 26.844 43.4445 26.8261Z" fill="var(--fill-0, #585755)"/>
<path id="Vector_70" d="M33.5988 22.3411C33.9009 22.6219 34.2123 23.4246 34.4536 23.7968C35.3947 25.2478 36.9029 26.1705 38.5438 26.6303L38.5257 26.6752C38.4631 26.6841 38.4204 26.6877 38.3573 26.6913C36.8266 26.1786 35.6114 25.4336 34.5833 24.1436C34.4425 23.9667 34.2913 23.6358 34.1572 23.4347C34.0684 23.3014 33.9313 23.1869 33.8783 23.0952C33.8975 23.0552 33.9097 23.0318 33.9326 22.9928L33.9533 22.958C33.9222 22.8274 33.7718 22.7014 33.7128 22.5219L33.6853 22.5172C33.6273 22.7858 33.7918 22.8827 33.7141 23.0648C33.6406 22.7785 33.5917 22.645 33.5988 22.3411Z" fill="var(--fill-0, #585755)"/>
<path id="Vector_71" d="M38.5438 26.6302L38.5937 26.637C38.9722 26.6913 39.3439 26.8188 39.7429 26.8391C40.9373 26.8999 42.2644 26.7858 43.4445 26.8261C43.3359 26.844 42.9936 26.8443 42.9447 26.8731C43.0899 26.9472 43.5921 26.8809 43.8305 26.9033C43.2183 26.9672 42.2441 26.9321 41.5934 26.9516C41.029 26.9687 40.1676 26.997 39.6309 26.9505C39.1977 26.9147 38.7701 26.8277 38.3573 26.6913C38.4205 26.6877 38.4631 26.684 38.5257 26.6752L38.5438 26.6302Z" fill="var(--fill-0, #888685)"/>
<path id="Vector_72" d="M17.2694 15.1236C17.3072 15.2468 17.3107 15.814 17.2984 15.9569C17.2868 16.0525 17.2581 16.2069 17.28 16.2939L17.3453 16.331C17.3453 16.4105 17.3488 16.5195 17.3438 16.5967L17.2988 16.6138C17.2838 16.6784 17.2837 16.6744 17.2927 16.74L17.2956 16.7619C17.2452 16.9101 17.2924 17.1783 17.2382 17.258C17.1976 17.198 17.1966 17.1904 17.1704 17.1218C17.1626 17.0106 17.1565 16.8993 17.1523 16.7878C17.1415 16.5114 17.1183 15.2871 17.2694 15.1236Z" fill="var(--fill-0, #888685)"/>
</g>
<defs>
<filter id="filter0_f_0_4" x="0" y="27.2222" width="52.2222" height="13.3333" filterUnits="userSpaceOnUse" color-interpolation-filters="sRGB">
<feFlood flood-opacity="0" result="BackgroundImageFix"/>
<feBlend mode="normal" in="SourceGraphic" in2="BackgroundImageFix" result="shape"/>
<feGaussianBlur stdDeviation="1.66667" result="effect1_foregroundBlur_0_4"/>
</filter>
</defs>
</svg>
