<svg preserveAspectRatio="none" width="100%" height="100%" overflow="visible" style="display: block;" viewBox="0 0 78.3812 60.8705" fill="none" xmlns="http://www.w3.org/2000/svg">
<g id="Frame 5">
<g id="Rectangle 4" filter="url(#filter0_f_0_4)">
<rect x="5.00306" y="45.8614" width="68.3751" height="10.0061" fill="var(--fill-0, black)" fill-opacity="0.5"/>
</g>
<path id="Vector" d="M25.1706 15.5242C24.5524 12.0629 25.2539 8.81566 27.2669 5.92014C29.3764 2.94492 32.5628 0.909513 36.149 0.246287C40.0473 -0.449688 43.9098 0.327149 47.1634 2.60526C50.0298 4.58113 51.9905 7.61744 52.6123 11.0427C52.8618 12.4559 52.9012 14.6291 52.4743 16.0066C52.1542 17.215 51.8485 18.1861 51.2516 19.3026C51.0466 19.6862 50.6216 20.2844 50.4773 20.6533C50.4847 21.0397 50.4801 21.4037 50.5491 21.7852L50.5736 21.8664C50.6263 22.1459 50.5732 22.3048 50.604 22.5431C51.1039 22.5664 52.2088 22.578 52.6993 22.5381L52.7585 22.5571C52.8205 23.1785 52.8763 24.924 52.6525 25.4511C52.5881 25.5687 52.557 25.6309 52.4731 25.7385C51.7998 25.8266 51.2789 25.7794 50.6294 25.8075C50.6111 26.0269 50.5787 26.6999 50.528 26.8683L50.4329 28.5202C50.397 29.5643 50.3682 30.5815 50.2668 31.6225C50.2091 32.2132 50.3148 32.9535 50.429 33.5321C50.8824 33.9536 51.3499 35.1583 51.7121 35.717C53.1246 37.8949 55.3883 39.2797 57.8511 39.9698L57.926 39.98C58.4941 40.0614 59.052 40.2529 59.6508 40.2833C61.4435 40.3745 63.4354 40.2034 65.2066 40.2638C66.4039 40.2268 67.6013 40.1991 68.799 40.1811C69.413 40.1753 70.6213 40.1963 71.1886 40.1351C72.2728 41.8939 72.5843 43.7821 72.513 45.8102C72.5161 46.3268 72.5231 46.8434 72.5336 47.36C72.598 48.9008 72.3559 49.4743 72.2748 50.8155C72.205 51.4619 71.9722 53.1602 71.4233 53.5236C71.0373 53.9985 70.8041 54.2683 70.3324 54.6722C69.8825 54.7513 68.7697 54.7237 68.2621 54.7237C66.9084 54.7287 65.5548 54.7198 64.2011 54.696L53.7933 54.6589L21.1178 54.5989L11.9787 54.5533C10.2854 54.5424 8.55254 54.5038 6.86065 54.5389C6.77975 54.1981 6.70408 53.9135 6.60201 53.5786C6.40356 53.1848 6.29459 52.6234 6.0844 52.1984C5.81613 51.6565 5.37041 51.1387 5.19817 50.5722C4.59385 48.4119 5.54052 44.3384 6.04846 42.1563C6.1862 41.5644 6.39494 40.9301 6.52668 40.302C6.56813 40.3024 6.60961 40.3028 6.65109 40.3032C7.6932 40.3082 8.78007 40.2314 9.82269 40.1897L15.4762 39.9655L18.3716 39.8603C18.9043 39.8392 20.1027 39.8197 20.5735 39.6567C22.7213 38.9144 24.8152 37.1603 26.492 35.664C27.2306 35.0047 27.178 33.1921 27.165 32.2416C27.0309 31.4346 27.1796 30.5043 27.0864 29.7214C26.9443 28.5268 26.8561 27.4671 26.8099 26.2621C26.4686 26.2915 26.2066 26.2981 25.8686 26.2539C25.8089 26.0492 25.7974 25.9082 25.7715 25.6984C25.8107 25.8014 25.8123 25.8127 25.8732 25.9029C25.9545 25.7831 25.8837 25.3807 25.9593 25.1582L25.9549 25.1253C25.9415 25.0268 25.9416 25.0328 25.9641 24.9358L26.0317 24.9103C26.0391 24.7944 26.034 24.6308 26.034 24.5114L25.9359 24.4558C25.9031 24.3252 25.9461 24.0934 25.9635 23.95C25.9821 23.7355 25.9767 22.8842 25.9201 22.6993C26.1389 22.7108 26.4133 22.7067 26.6368 22.7096C26.6342 22.5518 26.6138 22.2347 26.6596 22.0996L26.7012 21.8982C26.7157 21.4808 26.7769 20.1503 26.6789 19.799C26.4469 18.9674 25.7964 18.1929 25.6382 17.2457C25.4377 16.7546 25.2874 16.0446 25.1706 15.5242Z" fill="var(--fill-0, #FEFEFE)"/>
<path id="Vector_2" d="M25.1706 15.5242C24.5524 12.0629 25.2539 8.81568 27.2669 5.92015C29.3763 2.94494 32.5627 0.909529 36.149 0.246303C40.0472 -0.449672 43.9098 0.327165 47.1633 2.60527C50.0297 4.58115 51.9904 7.61746 52.6123 11.0427C52.8618 12.4559 52.9012 14.6291 52.4743 16.0066C52.1542 17.215 51.8485 18.1861 51.2516 19.3026C51.0465 19.6862 50.6216 20.2844 50.4773 20.6533C50.3019 20.9473 48.839 22.4178 48.5447 22.5839C48.4086 22.6932 48.0386 23.0132 47.901 23.0426C47.7977 22.9899 47.6928 23.0052 47.5735 23.0062C46.1504 24.2876 44.0096 25.2856 42.1549 25.6968C41.9046 25.7084 41.5966 25.7956 41.3334 25.8386C40.6508 25.9499 39.9404 26.0575 39.2499 26.1014C38.8756 26.1252 38.3851 26.0777 38.0127 26.0716C37.8073 26.0683 36.8942 25.9426 36.7953 25.9651C36.1428 25.9865 34.2532 25.3408 33.6464 25.1326L33.5903 25.2246C32.9241 24.9383 32.1674 24.5945 31.5453 24.2271C31.1102 23.9701 30.6618 23.6445 30.2203 23.3705C30.2334 23.3375 30.2481 23.2763 30.2581 23.2399L30.1741 23.1113L30.1913 23.0459C30.1413 22.9595 29.6206 22.4578 29.5022 22.3554C28.9885 21.9108 28.6459 21.2982 28.2065 20.8312C28.205 20.7857 28.1333 20.6944 28.1035 20.6507C27.4306 19.6641 26.9975 18.5893 26.5877 17.4767C26.4979 17.2328 26.3697 16.2909 26.2812 16.1405L26.2394 16.0855C26.221 15.9232 26.2039 15.7608 26.1881 15.5982C25.9684 15.578 25.8493 15.7105 25.4129 15.6913L25.3191 15.7455C25.2473 16.0752 25.7521 17.1173 25.6382 17.2457C25.4377 16.7546 25.2873 16.0446 25.1706 15.5242Z" fill="var(--fill-0, #CAC8C6)"/>
<path id="Vector_3" d="M25.1706 15.5242C24.5524 12.0629 25.2539 8.81568 27.2669 5.92015C29.3763 2.94494 32.5627 0.909529 36.149 0.246303C40.0472 -0.449672 43.9098 0.327165 47.1633 2.60527C50.0297 4.58115 51.9904 7.61746 52.6123 11.0427C52.8618 12.4559 52.9012 14.6291 52.4743 16.0066C52.3207 15.7379 52.4552 15.0683 52.4329 14.6592C52.3971 14.8477 52.3846 14.9481 52.3725 15.1398C52.367 14.9305 52.3764 14.7916 52.3144 14.5903L52.2606 14.5564C51.9 14.7301 52.0189 14.7562 51.5842 14.7337C51.4933 14.8454 51.5865 14.9404 51.4758 15.123C51.5241 14.5301 51.4871 13.9241 51.4602 13.3303C51.3884 13.2245 51.3471 12.7007 51.3576 12.5581C51.1479 11.4188 50.7685 10.3173 50.2321 9.29035C50.0796 9.00321 49.8636 8.7021 49.7248 8.42962L49.6905 8.36232C49.1848 7.73076 48.8406 7.23526 48.2624 6.64416C46.1504 4.50469 43.3639 3.1607 40.3747 2.83971C36.8339 2.42663 33.2747 3.44558 30.489 5.66997C29.502 6.46984 28.7445 7.33187 28.0137 8.35874C27.5358 8.6152 27.7157 9.352 27.0271 9.2086C26.9217 9.18665 26.9069 9.18602 26.8123 9.11955C26.7707 8.93299 26.8743 8.93615 26.8486 8.75575C26.6842 8.97362 26.5274 9.2941 26.398 9.54386C25.6988 10.893 25.3253 12.2753 25.2488 13.7913C25.2307 14.1506 25.2995 15.2301 25.2252 15.4627L25.2127 15.327L25.1706 15.5242Z" fill="var(--fill-0, #CAC8C6)"/>
<path id="Vector_4" d="M31.3936 4.13565C36.4821 1.16905 41.4008 1.19752 46.4237 4.25344C46.5964 4.43056 47.3005 4.88875 47.55 5.07819C48.1937 5.56686 49.9954 7.34819 50.2694 7.98112C50.3194 8.19536 50.8203 8.97259 50.9673 9.24219C50.8313 9.2928 50.5069 9.42017 50.3767 9.44161C50.2815 9.24449 49.8881 8.43478 49.7248 8.35852L49.6905 8.36227C49.1848 7.7307 48.8405 7.2352 48.2623 6.6441C46.1504 4.50464 43.3639 3.16064 40.3747 2.83965C36.8338 2.42657 33.2747 3.44553 30.4889 5.66991C29.502 6.46979 28.7444 7.33181 28.0137 8.35868C27.5357 8.61514 27.7156 9.35194 27.027 9.20854C26.9217 9.18659 26.9069 9.18597 26.8123 9.11949C26.7706 8.93293 26.8743 8.93609 26.8486 8.7557C27.6988 7.33146 28.8045 6.07628 30.1101 5.05312C30.4892 4.75365 30.9963 4.45859 31.3471 4.17382L31.3936 4.13565Z" fill="var(--fill-0, #514F4F)"/>
<path id="Vector_5" d="M31.936 3.11355C31.8353 3.1817 31.6286 3.335 31.5235 3.36498C31.839 3.09425 32.3078 2.80067 32.6704 2.58386C34.9465 1.22298 37.4888 0.636055 40.1306 0.85006C42.2753 1.02379 44.3105 1.84379 46.0497 3.0808C45.6564 3.18236 45.9472 3.48347 45.5873 3.67548C45.8509 3.83834 46.2264 4.01772 46.447 4.19636L46.4236 4.25344C41.4008 1.19752 36.4821 1.16906 31.3936 4.13566L31.3776 4.06969C31.6761 3.83604 32.0154 3.81444 32.1134 3.50943C32.0978 3.34911 32.0205 3.25336 31.936 3.11355Z" fill="var(--fill-0, #FEFEFE)"/>
<path id="Vector_6" d="M50.2695 7.98117C50.6582 8.41655 52.3916 11.532 51.9826 11.8834C51.9144 11.7531 51.9148 10.7767 51.5374 10.5333C51.422 10.5149 50.9666 10.6974 50.9771 10.7975C51.0223 11.2318 51.4582 12.1318 51.3576 12.5581C51.1479 11.4188 50.7685 10.3173 50.2321 9.29035C50.0796 9.0032 49.8636 8.7021 49.7248 8.42961L49.6905 8.36232L49.7248 8.35858C49.8882 8.43484 50.2816 9.24454 50.3767 9.44166C50.5069 9.42022 50.8313 9.29285 50.9674 9.24224C50.8204 8.97264 50.3194 8.19541 50.2695 7.98117Z" fill="var(--fill-0, #7A7878)"/>
<path id="Vector_7" d="M52.3585 14.0714C52.3546 13.8309 52.3156 13.492 52.3394 13.2857L52.3351 13.3479C52.4146 13.4969 52.44 14.4523 52.4329 14.6591C52.3971 14.8477 52.3846 14.9481 52.3725 15.1398C52.367 14.9304 52.3764 14.7916 52.3144 14.5903L52.2606 14.5563C51.9 14.7301 52.0189 14.7562 51.5842 14.7337C51.4933 14.8454 51.5865 14.9403 51.4758 15.1229C51.5241 14.53 51.4871 13.9241 51.4602 13.3303L51.5 13.3361C51.5237 13.6023 51.5662 13.9285 51.5389 14.1887C51.8863 14.0895 51.9865 14.059 52.3585 14.0714Z" fill="var(--fill-0, #888685)"/>
<path id="Vector_8" d="M51.4757 15.123C51.5865 14.9404 51.4933 14.8455 51.5841 14.7338C52.0188 14.7562 51.8999 14.7302 52.2606 14.5564L52.3144 14.5903C52.3764 14.7916 52.367 14.9305 52.3725 15.1399C52.3846 14.9482 52.397 14.8478 52.4329 14.6592C52.4551 15.0684 52.3206 15.7379 52.4742 16.0066C52.1541 17.215 51.8485 18.1861 51.2516 19.3026C51.0465 19.6863 50.6215 20.2845 50.4773 20.6533C50.3018 20.9473 48.839 22.4179 48.5446 22.5839C48.4086 22.6933 48.0386 23.0133 47.9009 23.0427C47.7976 22.99 47.6927 23.0052 47.5734 23.0062C47.7169 22.8351 47.9337 22.6279 48.0963 22.4644C48.4858 21.9931 49.1197 21.398 49.4608 20.9194C50.6543 19.2443 51.3907 17.168 51.4757 15.123Z" fill="var(--fill-0, #A8A6A5)"/>
<path id="Vector_9" d="M48.0963 22.4644L48.1072 22.5357L47.9368 22.7142C47.9762 22.8225 47.9731 22.815 48.0573 22.8942C48.2471 22.768 48.3251 22.6143 48.5107 22.552L48.5446 22.5839C48.4086 22.6932 48.0386 23.0132 47.9009 23.0426C47.7976 22.9899 47.6927 23.0051 47.5734 23.0061C47.7169 22.8351 47.9337 22.6279 48.0963 22.4644Z" fill="var(--fill-0, #888685)"/>
<path id="Vector_10" d="M26.8487 8.75574C26.8744 8.93614 26.7707 8.93298 26.8123 9.11954C26.907 9.18601 26.9218 9.18664 27.0271 9.20859C27.7157 9.35199 27.5358 8.61519 28.0137 8.35873C27.3731 9.46334 26.6773 10.8013 26.3712 12.0907C26.2714 12.511 26.4675 12.5345 25.9705 12.6255C26.0812 12.7377 26.2876 12.5723 26.2619 12.7852C26.1261 13.9088 26.1779 15.0183 26.2812 16.1405L26.2394 16.0855C26.221 15.9232 26.2039 15.7608 26.1881 15.5982C25.9684 15.578 25.8494 15.7105 25.4129 15.6912L25.3191 15.7455C25.2473 16.0752 25.7522 17.1173 25.6382 17.2457C25.4377 16.7546 25.2873 16.0446 25.1706 15.5242L25.2128 15.327L25.2252 15.4627C25.2996 15.2301 25.2307 14.1506 25.2488 13.7913C25.3254 12.2753 25.6988 10.893 26.398 9.54385C26.5274 9.29409 26.6843 8.97361 26.8487 8.75574Z" fill="var(--fill-0, #949393)"/>
<path id="Vector_11" d="M30.1913 23.0459C31.2109 23.9626 32.3922 24.5973 33.6464 25.1326L33.5903 25.2246C32.9241 24.9383 32.1674 24.5945 31.5453 24.2271C31.1102 23.9701 30.6618 23.6444 30.2203 23.3705C30.2334 23.3375 30.2481 23.2762 30.2581 23.2399L30.1741 23.1113L30.1913 23.0459Z" fill="var(--fill-0, #161515)"/>
<path id="Vector_12" d="M28.9563 13.6039C28.9811 11.4244 30.1445 8.93606 31.6962 7.43927C35.857 3.42596 42.9475 3.26233 47.0159 7.52181C48.7142 9.29998 49.7201 11.649 49.6796 14.1241C49.6718 14.4555 49.6078 15.5183 49.5061 15.8157C49.3357 16.7475 49.2219 17.5412 48.8316 18.4131C48.5442 19.1584 48.1384 19.6197 47.5925 20.1855C47.1598 20.7487 47.06 20.8701 46.4771 21.2763C46.2985 21.6425 45.2997 22.2566 44.9012 22.3453C43.9998 23.0537 41.9373 23.6825 40.8219 23.7601C37.796 23.9707 34.8706 23.2033 32.5117 21.2996C31.7032 20.7699 30.5645 19.3447 30.1451 18.4704C29.7622 18.0436 29.1904 16.1567 29.0793 15.5455C28.955 14.9517 28.9511 14.2125 28.9563 13.6039Z" fill="var(--fill-0, #C5C1BE)"/>
<path id="Vector_13" d="M28.9564 13.6039C28.9812 11.4244 30.1445 8.93606 31.6963 7.43927C35.857 3.42596 42.9476 3.26233 47.016 7.52181C48.7143 9.29998 49.7202 11.649 49.6796 14.1241C49.6718 14.4555 49.6079 15.5183 49.5061 15.8157C49.5077 15.6661 49.5073 15.5571 49.496 15.4083L49.4617 15.4824C49.4063 14.9067 49.3708 13.5743 48.9506 13.1854L48.866 13.2078C48.5962 13.5021 48.5264 13.6786 48.4558 14.0781C48.3661 13.9886 48.3685 13.9058 48.3435 13.7764L48.333 13.7195L48.3322 13.7468C48.287 13.6278 48.2589 13.4618 48.2312 13.3339C48.2078 13.1893 48.2043 12.265 48.1879 12.0238C48.0866 10.5426 47.6343 9.4969 46.7918 8.28972C46.7353 8.28722 46.6939 8.31689 46.6397 8.34052L46.3789 8.04039C46.0284 7.64123 45.4198 6.972 44.9863 6.65951C41.9982 4.50554 37.956 4.18042 34.652 5.7886C33.9522 6.1292 33.0731 6.84053 32.4999 7.35182C31.1249 8.82931 30.4172 10.0603 30.1984 12.1383C30.1438 12.657 30.198 13.3332 30.0691 13.7907C30.1315 14.4094 30.3631 14.8437 30.4797 15.3781C30.4197 15.4144 30.3759 15.4368 30.3137 15.4688C30.0111 14.9571 29.8336 14.2439 29.6935 13.6656L29.6826 13.601C29.6697 13.01 29.0764 13.1296 28.9564 13.6039Z" fill="var(--fill-0, #888685)"/>
<path id="Vector_14" d="M32.5491 7.13232C33.9969 5.53159 36.5598 4.67834 38.669 4.60504C41.698 4.49977 44.9866 5.77577 46.7918 8.28972C46.7352 8.28723 46.6939 8.31689 46.6397 8.34052L46.3789 8.04039C46.0284 7.64123 45.4198 6.972 44.9862 6.65951C41.9982 4.50554 37.9559 4.18042 34.6519 5.7886C33.9522 6.1292 33.0731 6.84054 32.4999 7.35182L32.5857 7.21903L32.5491 7.13232Z" fill="var(--fill-0, #CAC8C6)"/>
<path id="Vector_15" d="M32.549 7.13234L32.5856 7.21905L32.4999 7.35184C31.1248 8.82933 30.4172 10.0603 30.1984 12.1383C30.1437 12.6571 30.1979 13.3332 30.0691 13.7908C30.0042 13.3758 29.9982 12.8324 30.0219 12.4158C30.126 10.3881 31.0358 8.48601 32.549 7.13234Z" fill="var(--fill-0, #DFDEDD)"/>
<path id="Vector_16" d="M28.9563 13.6039C29.0764 13.1296 29.6697 13.01 29.6825 13.601L29.6935 13.6656C29.8335 14.2439 30.011 14.9571 30.3136 15.4688C30.3758 15.4368 30.4196 15.4144 30.4797 15.3781C30.6927 16.0598 30.9719 16.4085 31.2499 17.0156C31.1502 17.0334 31.1721 17.0167 31.094 17.0668L31.8424 18.112L31.961 18.2555C31.6658 18.268 31.81 18.3835 31.6504 18.5408C31.7567 18.9596 32.0757 19.2399 31.7058 19.5994C31.9806 19.8793 32.26 20.1545 32.544 20.4251C32.8941 20.7466 33.1953 20.999 33.5945 21.2577C33.7292 21.3437 33.8778 21.4437 34.0141 21.5236C36.2179 22.9585 38.805 23.8288 41.4383 23.2497C41.9759 23.1314 43.2918 22.7892 43.7323 22.5269C44.8879 22.1162 46.7804 20.8179 47.4198 19.7812C47.6066 19.5603 47.8292 19.1482 47.9774 18.8871C47.9598 19.0098 47.9271 19.0839 47.9083 19.2315L47.9547 19.2372L47.9173 19.2161L47.9275 19.253C48.046 19.1268 48.2144 18.8514 48.3158 18.6972L48.2651 18.9193C48.476 18.8614 48.6799 18.5838 48.8316 18.4131C48.5442 19.1584 48.1384 19.6197 47.5925 20.1855C47.1598 20.7487 47.06 20.8701 46.4771 21.2763C46.2985 21.6425 45.2997 22.2566 44.9012 22.3453C43.9998 23.0537 41.9373 23.6825 40.8219 23.7601C37.796 23.9707 34.8706 23.2033 32.5117 21.2996C31.7032 20.7699 30.5645 19.3447 30.1451 18.4704C29.7622 18.0436 29.1904 16.1567 29.0793 15.5455C28.955 14.9517 28.9511 14.2125 28.9563 13.6039Z" fill="var(--fill-0, #514F4D)"/>
<path id="Vector_17" d="M28.9563 13.6039C29.0764 13.1296 29.6697 13.01 29.6825 13.601L29.6935 13.6656C29.8335 14.2439 30.011 14.9571 30.3136 15.4688C30.3758 15.4368 30.4196 15.4144 30.4797 15.3781C30.6927 16.0598 30.9719 16.4085 31.2499 17.0156C31.1502 17.0334 31.1721 17.0167 31.094 17.0668L31.8424 18.112L31.961 18.2555C31.6658 18.268 31.81 18.3835 31.6504 18.5408C31.7567 18.9596 32.0757 19.2399 31.7058 19.5994C31.5126 19.4195 31.3105 19.2057 31.1236 19.0158C30.9068 18.8124 30.7027 18.3555 30.5818 18.0826L30.6482 18.4003C30.3951 18.0174 30.3086 17.2881 30.129 16.8213L30.1054 16.8196L30.0081 16.8966C30.0224 17.3092 30.4904 18.1677 30.4264 18.2884C30.5936 18.7208 31.1569 19.3312 31.4297 19.7235C31.5829 19.9437 31.7315 20.1815 31.883 20.4057C32.0775 20.614 32.463 20.9469 32.4634 21.1667C32.4634 21.178 32.505 21.2824 32.5117 21.2996C31.7032 20.7699 30.5645 19.3447 30.1451 18.4704C29.7622 18.0436 29.1904 16.1567 29.0793 15.5455C28.955 14.9517 28.9511 14.2125 28.9563 13.6039Z" fill="var(--fill-0, #3B3938)"/>
<path id="Vector_18" d="M28.9563 13.6039C29.0764 13.1296 29.6697 13.01 29.6825 13.601L29.6935 13.6656C29.1043 14.2737 29.9733 17.6867 30.4264 18.2884C30.5936 18.7208 31.1569 19.3312 31.4297 19.7235C31.5829 19.9437 31.7315 20.1815 31.883 20.4057C32.0775 20.614 32.463 20.9469 32.4634 21.1667C32.4634 21.178 32.505 21.2824 32.5117 21.2996C31.7032 20.7699 30.5645 19.3447 30.1451 18.4704C29.7622 18.0436 29.1904 16.1567 29.0793 15.5455C28.955 14.9517 28.9511 14.2125 28.9563 13.6039Z" fill="var(--fill-0, #585755)"/>
<path id="Vector_19" d="M30.1451 18.4705C30.4971 18.6889 30.7444 19.5245 31.0405 19.5677L31.0761 19.4902C31.3849 19.9304 31.4609 20.0582 31.883 20.4057C32.0775 20.614 32.463 20.9469 32.4633 21.1668C32.4634 21.178 32.5049 21.2824 32.5116 21.2996C31.7032 20.77 30.5645 19.3448 30.1451 18.4705Z" fill="var(--fill-0, #727071)"/>
<path id="Vector_20" d="M28.9563 13.6039C29.0764 13.1296 29.6697 13.01 29.6825 13.601C29.6302 13.4827 29.613 13.4005 29.5017 13.3422C29.4372 13.3478 29.3918 13.3367 29.363 13.3824C29.0879 13.8173 29.1602 15.0548 29.0793 15.5455C28.955 14.9517 28.9511 14.2125 28.9563 13.6039Z" fill="var(--fill-0, #727071)"/>
<path id="Vector_21" d="M31.1235 19.0157C30.8592 18.5147 30.6746 17.6066 30.9747 17.0935L31.094 17.0668L31.8423 18.112L31.9609 18.2555C31.6658 18.268 31.81 18.3835 31.6504 18.5408C31.7566 18.9596 32.0757 19.2399 31.7058 19.5994C31.5125 19.4195 31.3105 19.2057 31.1235 19.0157Z" fill="var(--fill-0, #727071)"/>
<path id="Vector_22" d="M31.6504 18.5408L31.5975 18.5218L31.5806 18.5485C31.5016 18.5232 31.5384 18.5382 31.4741 18.4508C31.5039 18.3308 31.5232 18.2315 31.545 18.1097C31.4983 18.0132 31.498 18.0168 31.4821 17.9114L31.5302 17.8819C31.8458 18.0345 31.4649 17.968 31.8424 18.1121L31.961 18.2555C31.6658 18.2681 31.81 18.3835 31.6504 18.5408Z" fill="var(--fill-0, #888685)"/>
<path id="Vector_23" d="M30.1053 16.8197C30.1241 16.6271 29.8039 15.7245 29.8712 15.4056L29.9818 15.7694C30.0648 16.0447 30.3283 16.33 30.1923 16.7082L30.1701 16.6954C30.1443 16.7569 30.1383 16.7568 30.129 16.8213L30.1053 16.8197Z" fill="var(--fill-0, #3C3A3A)"/>
<path id="Vector_24" d="M48.2651 18.9194C48.476 18.8615 48.6799 18.5838 48.8316 18.4131C48.5443 19.1584 48.1384 19.6197 47.5926 20.1855C47.4386 20.2677 47.3091 20.3207 47.1465 20.3824C47.6074 19.8594 47.9193 19.5282 48.2651 18.9194Z" fill="var(--fill-0, #888685)"/>
<path id="Vector_25" d="M46.6198 20.9291C46.5746 21.0955 46.5621 21.1263 46.4771 21.2763C46.2985 21.6425 45.2997 22.2567 44.9012 22.3453C45.2665 21.9746 46.143 21.3205 46.6198 20.9291Z" fill="var(--fill-0, #888685)"/>
<path id="Vector_26" d="M47.1465 20.3824C47.3091 20.3207 47.4385 20.2677 47.5925 20.1855C47.1598 20.7487 47.0599 20.8701 46.4771 21.2763C46.5621 21.1263 46.5746 21.0955 46.6198 20.9291C46.8034 20.7536 46.973 20.5681 47.1465 20.3824Z" fill="var(--fill-0, #A7A6A5)"/>
<path id="Vector_27" d="M34.4633 20.3486C36.0909 21.1482 37.4273 21.5498 39.2679 21.5555C39.5614 21.5564 40.1615 21.5351 40.4375 21.4666C41.0894 21.4513 41.9939 21.1737 42.6056 20.9519C42.8544 20.8618 43.1343 20.7275 43.3819 20.6622C43.732 20.6556 44.0073 20.306 44.2338 20.4931C44.5757 20.7756 44.1616 21.4429 44.0766 21.7537C44.026 21.9382 44.0084 22.133 43.9889 22.3027C43.8879 22.3841 43.7905 22.4177 43.7324 22.5269C43.2918 22.7893 41.976 23.1315 41.4383 23.2497C38.8051 23.8288 36.218 22.9586 34.0142 21.5237C34.0124 21.4028 34.0016 21.0673 34.0947 20.9946C34.2716 20.8566 34.5973 20.6674 34.8225 20.6613C34.7051 20.536 34.5502 20.5767 34.4633 20.3486Z" fill="var(--fill-0, #FEFEFE)"/>
<path id="Vector_28" d="M48.8659 13.2078L48.9505 13.1854C49.3707 13.5743 49.4062 14.9067 49.4616 15.4824L49.4959 15.4083C49.5072 15.5571 49.5076 15.6661 49.506 15.8156C49.3357 16.7475 49.2218 17.5412 48.8315 18.4131C48.6799 18.5837 48.476 18.8614 48.265 18.9193L48.3157 18.6972C48.2144 18.8514 48.0459 19.1268 47.9274 19.253L47.9173 19.2161L47.9547 19.2372L47.9083 19.2314C47.927 19.0839 47.9598 19.0098 47.9773 18.8871C47.8292 19.1482 47.6065 19.5603 47.4198 19.7812C46.7804 20.8178 44.8879 22.1162 43.7323 22.5268C43.7904 22.4176 43.8879 22.384 43.9888 22.3026C44.0083 22.1329 44.0259 21.9381 44.0766 21.7536C44.1616 21.4428 44.5756 20.7755 44.2337 20.4931C44.0072 20.3059 43.7319 20.6555 43.3818 20.6622C43.1342 20.7274 42.8543 20.8617 42.6055 20.9519C41.9938 21.1737 41.0893 21.4513 40.4374 21.4665C40.3251 21.4539 40.1844 21.4524 40.0686 21.4481L40.0514 21.3858C41.5809 21.2117 43.2321 20.7629 44.4906 19.8464C44.9807 19.5951 45.7511 18.8819 46.125 18.4812C47.1609 17.216 47.7644 16.1654 48.1103 14.5266C48.1547 14.5936 48.1684 14.6094 48.2233 14.6685L48.304 14.6231C48.396 14.4966 48.4604 14.2233 48.4557 14.0781C48.5263 13.6785 48.5961 13.5021 48.8659 13.2078Z" fill="var(--fill-0, #2F2D2D)"/>
<path id="Vector_29" d="M46.7426 18.3007C46.9816 18.1982 47.3036 18.0321 47.559 18.0637C47.8822 18.2198 47.8502 18.5917 48.014 18.8205L47.9773 18.8872C47.8292 19.1483 47.6066 19.5604 47.4198 19.7813C46.7804 20.8179 44.8879 22.1162 43.7323 22.5269C43.7904 22.4177 43.8879 22.3841 43.9889 22.3027C44.0084 22.133 44.0259 21.9382 44.0766 21.7537C44.1616 21.4429 44.5756 20.7756 44.2337 20.4931C44.0072 20.306 43.7319 20.6556 43.3818 20.6622C44.1889 20.236 44.6618 19.925 45.3878 19.3858C45.6778 19.1201 46.4209 18.5473 46.7426 18.3007Z" fill="var(--fill-0, #C8C7C6)"/>
<path id="Vector_30" d="M46.7426 18.3007C46.9816 18.1982 47.3036 18.0321 47.559 18.0637C47.8822 18.2198 47.8502 18.5917 48.014 18.8205L47.9773 18.8872C47.8292 19.1483 47.6066 19.5604 47.4198 19.7813C47.426 19.4689 47.6093 19.5177 47.605 19.2492C47.4241 19.0786 47.2323 18.8002 47.1106 18.7304C46.8771 18.7411 45.7297 19.3424 45.3878 19.3858C45.6778 19.1201 46.4209 18.5473 46.7426 18.3007Z" fill="var(--fill-0, #7B7A79)"/>
<path id="Vector_31" d="M46.7426 18.3006C47.1711 17.8758 47.5813 17.6061 47.8663 17.0545C47.9988 16.7987 48.1731 16.3338 48.324 16.1169C48.3961 16.1543 48.6406 16.5742 48.7427 16.7034C48.6059 17.2804 48.3599 18.3507 48.014 18.8204C47.8503 18.5916 47.8823 18.2197 47.5591 18.0636C47.3037 18.032 46.9816 18.1981 46.7426 18.3006Z" fill="var(--fill-0, #504F4F)"/>
<path id="Vector_32" d="M48.866 13.2078L48.9506 13.1854C49.3709 13.5743 49.4064 14.9067 49.4617 15.4824L49.496 15.4083C49.5073 15.5571 49.5077 15.6661 49.5062 15.8156C49.3358 16.7475 49.2219 17.5412 48.8317 18.4131C48.68 18.5837 48.4761 18.8614 48.2652 18.9193L48.3159 18.6972C49.0886 17.0404 49.2672 15.9236 49.1775 14.1214C49.1619 13.8021 49.1093 13.4244 48.866 13.2078Z" fill="var(--fill-0, #585755)"/>
<path id="Vector_33" d="M31.094 17.0668C31.1721 17.0167 31.1503 17.0333 31.2499 17.0155C32.0247 18.2646 32.873 19.1279 34.1015 19.9364C34.4426 19.8823 35.0086 20.2403 35.3507 20.3911C36.1442 20.7338 36.9814 20.9647 37.8384 21.0773C39.871 21.3308 42.8528 20.8423 44.4903 19.5662C44.9399 19.2989 45.428 18.793 45.8838 18.5122C46.021 18.4278 45.9855 18.4458 46.1251 18.4812C45.7512 18.8819 44.9808 19.5951 44.4907 19.8464C43.2322 20.7629 41.581 21.2117 40.0515 21.3858L40.0687 21.4481C40.1845 21.4524 40.3252 21.4539 40.4375 21.4665C40.1615 21.5351 39.5615 21.5563 39.2679 21.5554C37.4273 21.5497 36.0909 21.1482 34.4633 20.3485C34.5502 20.5766 34.7051 20.5359 34.8225 20.6613C34.5973 20.6674 34.2716 20.8565 34.0948 20.9945C34.0016 21.0672 34.0124 21.4028 34.0142 21.5236C33.8778 21.4437 33.7292 21.3437 33.5945 21.2577C33.1953 20.9989 32.8941 20.7466 32.544 20.425C32.2601 20.1545 31.9807 19.8792 31.7059 19.5994C32.0758 19.2399 31.7567 18.9596 31.6504 18.5407C31.8101 18.3835 31.6659 18.268 31.961 18.2555L31.8424 18.112L31.094 17.0668Z" fill="var(--fill-0, #A7A6A5)"/>
<path id="Vector_34" d="M31.6504 18.5407C31.81 18.3835 31.6658 18.268 31.961 18.2555C32.5117 18.9056 32.9892 19.3556 33.6889 19.848C33.8113 19.9342 34.4202 20.3037 34.4632 20.3485C34.5502 20.5766 34.7051 20.5359 34.8225 20.6613C34.5973 20.6674 34.2716 20.8565 34.0947 20.9945C34.0016 21.0672 34.0124 21.4028 34.0141 21.5236C33.8778 21.4437 33.7292 21.3437 33.5945 21.2577C33.1953 20.9989 32.8941 20.7466 32.544 20.425C32.2601 20.1545 31.9806 19.8792 31.7059 19.5994C32.0757 19.2399 31.7567 18.9596 31.6504 18.5407Z" fill="var(--fill-0, #D6D4D4)"/>
<path id="Vector_35" d="M32.544 20.425L32.6236 20.3059C32.9379 20.2586 33.6048 20.9212 33.5945 21.2577C33.1953 20.9989 32.8941 20.7466 32.544 20.425Z" fill="var(--fill-0, #CAC8C6)"/>
<path id="Vector_36" d="M31.094 17.0668C31.1721 17.0167 31.1503 17.0333 31.2499 17.0155C32.0247 18.2646 32.873 19.1279 34.1015 19.9364C35.9297 21.2013 37.9136 21.4298 40.0515 21.3858L40.0687 21.4481C40.1845 21.4524 40.3252 21.4539 40.4375 21.4665C40.1615 21.5351 39.5615 21.5563 39.2679 21.5554C37.4273 21.5497 36.0909 21.1482 34.4633 20.3485C34.4202 20.3037 33.8113 19.9342 33.6889 19.848C32.9892 19.3556 32.5117 18.9056 31.961 18.2555L31.8424 18.112L31.094 17.0668Z" fill="var(--fill-0, #161515)"/>
<path id="Vector_37" d="M48.2312 13.3339C48.2589 13.4618 48.287 13.6279 48.3322 13.7468L48.333 13.7196L48.3435 13.7764C48.3685 13.9058 48.3661 13.9886 48.4558 14.0781C48.4605 14.2233 48.3961 14.4966 48.3041 14.6232L48.2234 14.6686C48.1684 14.6095 48.1548 14.5936 48.1104 14.5266C48.1341 14.1305 48.2203 13.7824 48.2312 13.3339Z" fill="var(--fill-0, #3C3A3A)"/>
<path id="Vector_38" d="M35.697 15.6422C34.6823 13.8744 35.2576 11.6202 36.9953 10.5547C38.7329 9.48924 41.0028 9.99893 42.1182 11.705C43.2337 13.4111 42.79 15.6949 41.1166 16.8592C39.4436 18.0235 37.1481 17.6461 35.9358 16.0074C35.8492 15.8904 35.7695 15.7685 35.697 15.6422Z" fill="var(--fill-0, #FEFEFE)"/>
<path id="Vector_39" d="M35.6971 15.6422C35.7027 15.3527 35.4938 14.8981 35.4286 14.5866C35.0643 12.8457 36.4636 10.7551 38.3253 10.694C38.4089 10.6919 38.4924 10.6927 38.5758 10.6964C38.4593 10.7519 38.4802 10.7294 38.3687 10.735C37.5907 10.7736 36.8875 11.2207 36.3497 11.75C35.6872 12.4021 35.5203 13.3846 35.5023 14.272C35.4925 14.7544 35.7709 15.5335 35.9359 16.0074C35.8493 15.8904 35.7696 15.7685 35.6971 15.6422Z" fill="var(--fill-0, #CAC8C6)"/>
<path id="Vector_40" d="M39.5076 10.7301C41.3431 10.8668 42.6656 12.4374 42.6372 14.2575C42.5923 14.1872 42.6103 14.2277 42.5892 14.1493C42.4009 13.4569 42.1537 12.5516 41.7264 11.9781C41.3311 11.4747 40.7607 11.1288 40.177 10.8863C39.9988 10.8121 39.6292 10.7987 39.5076 10.7301Z" fill="var(--fill-0, #727071)"/>
<path id="Vector_41" d="M72.5336 47.36C72.5979 48.9008 72.3558 49.4743 72.2747 50.8155C72.2049 51.4619 71.9721 53.1602 71.4232 53.5236C71.0372 53.9985 70.804 54.2683 70.3323 54.6722C69.8824 54.7513 68.7697 54.7237 68.262 54.7237C66.9084 54.7287 65.5547 54.7198 64.201 54.696L53.7932 54.6589L21.1177 54.5989L11.9786 54.5533C10.2854 54.5424 8.55245 54.5038 6.86057 54.5389C6.77967 54.1981 6.70399 53.9135 6.60192 53.5786C6.40347 53.1848 6.2945 52.6234 6.08431 52.1984C5.81604 51.6565 5.37033 51.1387 5.19808 50.5722L5.24748 50.5617L5.27964 50.4927C5.13039 49.6774 5.16794 48.7417 5.2049 47.9191C6.62344 47.9277 8.0134 47.7932 9.45966 47.7889L26.6114 47.7869L69.6492 47.7896C70.0383 47.7471 70.5487 47.8025 70.9475 47.7678C71.0372 47.76 71.2551 47.5526 71.3557 47.5397C71.6322 47.5046 72.3141 47.4902 72.5336 47.36Z" fill="var(--fill-0, #BAB6B3)"/>
<path id="Vector_42" d="M6.78374 53.0048C7.04574 52.9494 7.78787 52.9677 8.08465 52.9697C8.83353 52.9779 9.58249 52.9818 10.3314 52.981L20.9212 53.0032L59.8562 53.0855C60.9417 53.0874 71.0399 53.0648 71.2852 53.1631L71.314 53.2547C71.2941 53.305 71.2423 53.427 71.2329 53.473C71.3144 53.4898 71.3483 53.4902 71.4232 53.5237C71.0372 53.9986 70.8041 54.2684 70.3323 54.6723C69.8824 54.7514 68.7697 54.7238 68.262 54.7238C66.9084 54.7288 65.5547 54.7199 64.2011 54.6961L53.7932 54.659L21.1178 54.599L11.9787 54.5534C10.2854 54.5425 8.55247 54.5039 6.86058 54.539C6.77968 54.1982 6.70401 53.9136 6.60194 53.5787L6.65496 53.4929L6.70693 53.5112L6.7892 53.7198C6.77598 53.5401 6.71453 53.1381 6.78374 53.0048Z" fill="var(--fill-0, #CAC8C6)"/>
<path id="Vector_43" d="M6.78383 53.0048C7.04583 52.9494 7.78797 52.9677 8.08474 52.9697C8.83363 52.9779 9.58259 52.9818 10.3315 52.981L20.9213 53.0032L59.8563 53.0855C60.9417 53.0874 71.04 53.0648 71.2853 53.1631L71.3141 53.2547C70.9114 53.3522 69.4883 53.3171 68.9908 53.3163L64.7587 53.3093L44.5391 53.2141L18.1205 53.1627C15.3129 53.1798 12.5052 53.1736 9.69772 53.144C9.01847 53.1346 8.33407 53.1549 7.65529 53.135C7.42869 53.1284 7.01394 53.137 6.80808 53.1046L6.78383 53.0048Z" fill="var(--fill-0, #FEFEFE)"/>
<path id="Vector_44" d="M71.2329 53.473C71.3144 53.4897 71.3483 53.4901 71.4232 53.5237C71.0372 53.9985 70.8041 54.2683 70.3323 54.6722C69.8824 54.7514 68.7697 54.7237 68.262 54.7237C66.9084 54.7288 65.5547 54.7198 64.2011 54.696L53.7932 54.659L21.1178 54.599L11.9787 54.5533C10.2854 54.5424 8.55247 54.5038 6.86058 54.5389C6.77968 54.1982 6.70401 53.9135 6.60194 53.5786L6.65496 53.4929L6.70693 53.5112L6.7892 53.7198C6.85743 53.8734 6.94039 54.243 6.96581 54.4087C8.9859 54.3498 11.2342 54.3997 13.2706 54.4064L23.5385 54.4274L56.6413 54.5253L66.336 54.5451C67.572 54.5451 69.0227 54.6029 70.2177 54.5658C70.5795 54.3245 71.0197 53.8469 71.2329 53.473Z" fill="var(--fill-0, #888685)"/>
<path id="Vector_45" d="M72.5336 47.36C72.598 48.9008 72.3559 49.4743 72.2748 50.8155L72.2229 50.8728C72.1582 50.7863 72.1586 50.7145 72.1691 50.5929C72.2553 49.6252 72.3917 48.8065 72.3945 47.8267C71.989 47.8836 70.1269 47.8275 69.6493 47.7896C70.0384 47.7471 70.5488 47.8025 70.9476 47.7678C71.0373 47.76 71.2552 47.5526 71.3558 47.5397C71.6322 47.5046 72.3141 47.4902 72.5336 47.36Z" fill="var(--fill-0, #888685)"/>
<path id="Vector_46" d="M25.6381 17.2456C25.7521 17.1173 25.2473 16.0751 25.319 15.7455L25.4129 15.6912C25.8493 15.7105 25.9683 15.578 26.1881 15.5982C26.2038 15.7608 26.2209 15.9232 26.2393 16.0855L26.2812 16.1405C26.3697 16.2909 26.4979 17.2327 26.5877 17.4767C26.9975 18.5893 27.4306 19.664 28.1035 20.6507C28.1332 20.6943 28.205 20.7857 28.2064 20.8312C28.6459 21.2981 28.9884 21.9108 29.5022 22.3554C29.6205 22.4578 30.1412 22.9595 30.1913 23.0459L30.174 23.1113L30.2581 23.2399C30.2481 23.2762 30.2334 23.3375 30.2202 23.3705C30.6617 23.6444 31.1102 23.9701 31.5453 24.2271C32.1673 24.5945 32.924 24.9383 33.5902 25.2246L33.6463 25.1326C34.2532 25.3407 36.1428 25.9864 36.7953 25.9651C36.8941 25.9426 37.8073 26.0682 38.0126 26.0716C38.385 26.0777 38.8756 26.1252 39.2499 26.1014C39.9403 26.0574 40.6507 25.9498 41.3334 25.8385C41.5966 25.7956 41.9046 25.7084 42.1549 25.6967C44.0095 25.2856 46.1504 24.2876 47.5734 23.0061C47.6927 23.0052 47.7976 22.9899 47.9009 23.0426C48.0386 23.0132 48.4086 22.6932 48.5446 22.5839C48.839 22.4178 50.3018 20.9473 50.4773 20.6533C50.4847 21.0397 50.48 21.4037 50.549 21.7852L50.5736 21.8664C50.6262 22.1459 50.5732 22.3048 50.604 22.5431C51.1038 22.5664 52.2087 22.578 52.6992 22.5381L52.7584 22.5571C52.8204 23.1785 52.8762 24.924 52.6524 25.4511C52.5881 25.5687 52.5569 25.6309 52.473 25.7384C51.7997 25.8266 51.2788 25.7794 50.6293 25.8075C50.611 26.0269 50.5786 26.6999 50.5279 26.8683L50.4328 28.5202C50.3969 29.5643 50.3681 30.5815 50.2667 31.6225C50.209 32.2132 50.3147 32.9535 50.4289 33.5321C50.4184 33.9883 50.4917 34.1887 50.602 34.6183C50.7572 34.968 50.8433 35.3349 50.963 35.6971C51.2976 36.7081 51.641 37.8863 52.3693 38.684C52.5202 38.8493 52.9479 39.2867 52.9998 39.516C52.9861 39.5585 52.9729 39.6006 52.9592 39.6427C52.7432 39.8657 52.4754 39.8256 52.1919 39.7722C51.7986 39.8002 51.4457 39.8809 51.0052 39.8895C48.9544 39.9301 46.8833 39.9137 44.8322 39.9121C41.064 39.9152 37.2957 39.8813 33.5281 39.8104L29.7461 39.7593C28.639 39.7527 26.7664 39.794 25.7519 39.5495C25.5845 39.5254 25.4867 39.5448 25.3975 39.4415C25.3405 39.0805 25.7727 38.3775 25.9555 38.0395C26.5301 37.1459 26.8096 36.0585 27.1092 35.0503C27.2367 34.621 27.1941 32.2362 27.2566 32.1441C27.3341 32.2171 27.3436 32.3165 27.3713 32.4241L27.3664 32.1106C27.3457 31.9617 27.3418 31.7995 27.2564 31.6817L27.2088 31.6977C27.1434 31.8915 27.1617 32.0365 27.1649 32.2416C27.0308 31.4346 27.1795 30.5043 27.0863 29.7214C26.9442 28.5268 26.856 27.4671 26.8098 26.2621C26.4685 26.2915 26.2065 26.2981 25.8685 26.2539C25.8088 26.0492 25.7973 25.9082 25.7714 25.6984C25.8107 25.8014 25.8122 25.8127 25.8731 25.9029C25.9544 25.7831 25.8836 25.3807 25.9592 25.1582L25.9548 25.1253C25.9414 25.0268 25.9415 25.0328 25.964 24.9358L26.0316 24.9103C26.039 24.7944 26.0339 24.6308 26.0339 24.5114L25.9358 24.4558C25.903 24.3252 25.946 24.0934 25.9634 23.95C25.982 23.7355 25.9766 22.8842 25.92 22.6993C26.1388 22.7108 26.4133 22.7067 26.6367 22.7095C26.6342 22.5518 26.6137 22.2347 26.6595 22.0996L26.7011 21.8982C26.7156 21.4808 26.7768 20.1503 26.6788 19.799C26.4468 18.9674 25.7963 18.1929 25.6381 17.2456Z" fill="var(--fill-0, #C5C1BE)"/>
<path id="Vector_47" d="M50.0367 21.7672L50.549 21.7852L50.5736 21.8664C50.6262 22.1459 50.5732 22.3048 50.604 22.5432C51.1038 22.5665 52.2087 22.578 52.6992 22.5381L52.7585 22.5571C52.8205 23.1785 52.8762 24.9241 52.6524 25.4511C52.5881 25.5687 52.5569 25.6309 52.4731 25.7385C51.7997 25.8266 51.2789 25.7795 50.6293 25.8075C50.611 26.0269 50.5786 26.6999 50.528 26.8683L50.4328 28.5202C50.2944 28.2715 50.4987 27.8528 50.3611 27.6836L50.296 27.6992C50.2387 27.8329 50.2461 27.9826 50.2406 28.1304L50.1919 28.1721C50.1127 29.6649 50.011 31.256 49.9513 32.7419C49.8464 32.5313 49.9743 30.9987 49.9895 30.6693L50.195 26.6297C50.2083 26.3487 50.2005 26.054 50.2071 25.771C50.2137 25.4857 50.4925 24.6472 50.271 24.47L50.2028 24.4996C50.1081 24.7308 50.1502 24.962 50.1014 25.1975L50.064 25.2163C50.0312 24.9784 50.1229 24.6422 50.0765 24.487C49.9318 24.8927 50.0223 25.023 49.9845 25.4048L49.9424 25.4032C49.9307 24.358 50.0036 22.8382 50.0367 21.7672Z" fill="var(--fill-0, #888685)"/>
<path id="Vector_48" d="M50.604 22.5431C51.1038 22.5664 52.2087 22.578 52.6992 22.5381C52.6403 22.7636 52.6317 23.0238 52.615 23.2585L52.5986 23.5669L52.62 23.7911C52.5003 23.8304 52.2208 23.8827 52.105 23.875C51.5545 23.8384 50.2523 24.1741 50.627 23.1596C50.6792 23.0181 50.6796 22.7579 50.6831 22.6084L50.604 22.5431Z" fill="var(--fill-0, #DFDEDD)"/>
<path id="Vector_49" d="M52.5986 23.5669C52.3904 23.6869 50.9123 23.7816 50.758 23.4886C50.9303 23.102 52.2691 23.1601 52.615 23.2585L52.5986 23.5669Z" fill="var(--fill-0, #FEFEFE)"/>
<path id="Vector_50" d="M50.519 24.9211C50.9915 25.0538 51.8703 25.0995 52.3733 25.0621C52.4614 25.0556 52.4454 25.0128 52.5748 25.0705C52.585 25.2307 52.576 25.3101 52.6524 25.451C52.5881 25.5686 52.5569 25.6308 52.4731 25.7384C51.7997 25.8266 51.2789 25.7794 50.6293 25.8074C50.611 26.0268 50.5786 26.6998 50.528 26.8682C50.5295 26.4355 50.505 26.0044 50.5155 25.5727C50.5338 25.4036 50.5213 25.1009 50.519 24.9211Z" fill="var(--fill-0, #C5C1BE)"/>
<path id="Vector_51" d="M50.5736 21.8664C50.6262 22.1459 50.5732 22.3048 50.604 22.5432L50.6831 22.6084C50.6796 22.758 50.6792 23.0182 50.627 23.1597C50.2523 24.1742 51.5545 23.8385 52.105 23.875C52.2208 23.8827 52.5004 23.8304 52.6201 23.7911C52.6177 23.896 52.6166 23.8909 52.5787 23.9898C52.1803 24.2609 51.2765 23.978 50.8524 24.1298C50.6902 24.1878 50.4274 24.5868 50.1845 24.4141C50.1014 24.195 50.2808 23.1244 50.3736 22.8665C50.3977 22.7991 50.4484 22.8043 50.5436 22.7671C50.5896 22.6448 50.5595 22.0899 50.5736 21.8664Z" fill="var(--fill-0, #CAC8C6)"/>
<path id="Vector_52" d="M50.4863 25.5636L50.5155 25.5728C50.505 26.0044 50.5296 26.4356 50.528 26.8683L50.4329 28.5202C50.2945 28.2715 50.4987 27.8527 50.3611 27.6835L50.296 27.6991C50.2387 27.8328 50.2461 27.9826 50.2407 28.1303L50.1919 28.172C50.206 27.4476 50.2633 26.4932 50.3225 25.7674C50.3268 25.9084 50.3132 26.0183 50.3826 26.1375L50.4294 26.1011C50.4933 25.8655 50.4882 25.8027 50.4863 25.5636Z" fill="var(--fill-0, #3C3A3A)"/>
<path id="Vector_53" d="M50.3225 25.7674C50.3326 25.5775 50.3377 25.191 50.4414 25.0462C50.4983 25.2013 50.4847 25.3932 50.4863 25.5636C50.4882 25.8027 50.4933 25.8655 50.4293 26.1011L50.3825 26.1375C50.3131 26.0184 50.3268 25.9084 50.3225 25.7674Z" fill="var(--fill-0, #696867)"/>
<path id="Vector_54" d="M52.4556 24.5301L52.4669 24.5287L52.5098 24.562C52.5297 24.7034 52.5425 24.729 52.484 24.8616C52.316 24.8944 51.0415 24.9117 50.799 24.9161L50.7565 24.9151C50.7237 24.7891 50.7623 24.6821 50.7885 24.5468C51.2243 24.562 52.0462 24.5989 52.4556 24.5301Z" fill="var(--fill-0, #3C3A3A)"/>
<path id="Vector_55" d="M26.7011 21.8982C26.8709 21.8909 27.0745 21.8765 27.2414 21.8828C27.263 23.89 27.3481 25.896 27.4968 27.898C27.5466 28.6286 27.6667 29.3694 27.6963 30.0934C27.7284 30.8767 27.3303 31.2537 27.3665 32.1106C27.3458 31.9617 27.3419 31.7995 27.2565 31.6818L27.2088 31.6977C27.1435 31.8915 27.1618 32.0365 27.165 32.2416C27.0309 31.4346 27.1796 30.5043 27.0864 29.7214C26.9443 28.5268 26.8561 27.4672 26.8098 26.2621C26.4686 26.2915 26.2066 26.2981 25.8686 26.2539C25.8089 26.0492 25.7974 25.9082 25.7715 25.6984C25.8107 25.8014 25.8123 25.8127 25.8732 25.9029C25.9545 25.7831 25.8837 25.3807 25.9593 25.1582L25.9549 25.1253C25.9415 25.0269 25.9416 25.0329 25.9641 24.9359L26.0317 24.9103C26.0391 24.7944 26.034 24.6308 26.0339 24.5114L25.9359 24.4558C25.9031 24.3252 25.9461 24.0934 25.9635 23.95C25.982 23.7355 25.9767 22.8842 25.9201 22.6993C26.1389 22.7108 26.4133 22.7067 26.6368 22.7096C26.6342 22.5518 26.6138 22.2347 26.6596 22.0996L26.7011 21.8982Z" fill="var(--fill-0, #8E8C8B)"/>
<path id="Vector_56" d="M25.9549 25.1254C26.2646 25.0928 26.4412 25.0789 26.7507 25.0844L26.7983 25.6445C26.8401 25.8166 26.8236 26.0806 26.8098 26.2621C26.4686 26.2915 26.2066 26.2981 25.8686 26.254C25.8089 26.0493 25.7974 25.9082 25.7715 25.6984C25.8107 25.8014 25.8123 25.8127 25.8732 25.9029C25.9545 25.7832 25.8837 25.3807 25.9593 25.1583L25.9549 25.1254Z" fill="var(--fill-0, #C5C1BE)"/>
<path id="Vector_57" d="M25.9593 25.1582C25.9672 25.3685 25.9715 25.599 25.9848 25.8073C26.2054 25.808 26.7167 25.8756 26.7983 25.6444C26.8401 25.8165 26.8236 26.0806 26.8098 26.2621C26.4686 26.2915 26.2066 26.2981 25.8686 26.2539C25.8089 26.0492 25.7974 25.9082 25.7715 25.6984C25.8107 25.8014 25.8123 25.8127 25.8732 25.9029C25.9545 25.7831 25.8837 25.3807 25.9593 25.1582Z" fill="var(--fill-0, #A7A6A5)"/>
<path id="Vector_58" d="M26.6367 22.7096C26.6342 22.5518 26.6137 22.2347 26.6595 22.0996C26.6919 22.3875 26.7173 23.7213 26.6897 24.0016C26.4366 24.0237 26.14 24.0968 25.9634 23.95C25.982 23.7355 25.9766 22.8842 25.92 22.6993C26.1388 22.7109 26.4133 22.7067 26.6367 22.7096Z" fill="var(--fill-0, #FEFEFE)"/>
<path id="Vector_59" d="M26.0339 24.5115C26.1699 24.5043 26.626 24.5563 26.7329 24.6601C26.6555 24.89 26.235 24.8705 26.0316 24.9104C26.0391 24.7944 26.0339 24.6308 26.0339 24.5115Z" fill="var(--fill-0, #3C3A3A)"/>
<path id="Vector_60" d="M50.1919 28.1721L50.2407 28.1304C50.2461 27.9826 50.2387 27.8329 50.296 27.6992L50.3612 27.6836C50.4988 27.8528 50.2945 28.2715 50.4329 28.5203C50.397 29.5644 50.3682 30.5816 50.2668 31.6226C50.2091 32.2132 50.3148 32.9536 50.429 33.5322C50.4185 33.9884 50.4918 34.1887 50.6021 34.6184C50.7573 34.9681 50.8434 35.335 50.9631 35.6972C51.2976 36.7082 51.6411 37.8864 52.3694 38.6841C52.5203 38.8494 52.948 39.2868 52.9999 39.5161C52.9862 39.5586 52.973 39.6007 52.9593 39.6428C52.7433 39.8658 52.4755 39.8256 52.192 39.7722C51.2084 39.364 51.1436 38.2217 50.8633 37.3561C50.3573 35.7943 50.0286 34.3841 49.9514 32.7419C50.011 31.2561 50.1128 29.665 50.1919 28.1721Z" fill="var(--fill-0, #161515)"/>
<path id="Vector_61" d="M25.9555 38.0395C26.5301 37.1459 26.8095 36.0585 27.1091 35.0503C27.2367 34.6211 27.1941 32.2362 27.2565 32.1441C27.3341 32.2171 27.3436 32.3165 27.3713 32.4241C27.432 33.4023 27.4845 34.3918 27.4075 35.37C27.1744 36.5888 26.8587 37.7693 26.5666 38.9733C26.5491 39.0454 26.583 39.155 26.6057 39.2248C26.3011 39.5745 26.1941 39.5515 25.7518 39.5495C25.5845 39.5254 25.4867 39.5449 25.3974 39.4415C25.3405 39.0805 25.7727 38.3776 25.9555 38.0395Z" fill="var(--fill-0, #201F1F)"/>
<path id="Vector_62" d="M26.6058 39.2248C26.5831 39.155 26.5492 39.0454 26.5667 38.9733C26.8588 37.7694 27.1745 36.5888 27.4076 35.37C27.4524 35.8519 27.4834 36.2921 27.463 36.7783C27.45 37.0886 27.183 37.6621 27.2823 37.8813C27.5796 37.4235 27.9231 36.3022 27.905 35.779C27.8407 35.7065 27.8511 35.7264 27.7571 35.678C27.8403 35.6324 27.7943 35.648 27.9124 35.6683C28.2945 36.1654 27.0102 38.6914 26.6058 39.2248Z" fill="var(--fill-0, #8A8887)"/>
<path id="Vector_63" d="M28.2065 20.8312C28.6459 21.2982 28.9885 21.9108 29.5022 22.3554C29.6206 22.4578 30.1413 22.9595 30.1913 23.0459L30.1741 23.1113L30.2581 23.2399C30.2481 23.2763 30.2334 23.3376 30.2203 23.3706C29.7474 23.1359 28.897 22.3653 28.5233 21.9919C28.7574 22.065 28.9441 22.1737 29.1364 22.1088L29.1303 22.0716C28.968 21.9273 28.9019 21.8778 28.8046 21.6781L28.7707 21.6745C28.7691 21.8157 28.7952 21.826 28.7243 21.9067C28.505 21.8897 28.1631 21.4064 28.0113 21.237L28.0264 21.172C28.2145 21.2505 28.5275 21.7044 28.6525 21.7984C28.6322 21.7276 28.6407 21.7683 28.6327 21.6752L28.6999 21.6028C28.6178 21.3675 28.2618 21.1398 28.2065 20.8312Z" fill="var(--fill-0, #8A8888)"/>
<path id="Vector_64" d="M47.5734 23.0061C47.6927 23.0052 47.7976 22.9899 47.9009 23.0426C46.3243 24.1512 44.716 25.178 42.8083 25.5956C42.5584 25.6503 42.4325 25.8115 42.1549 25.6967C44.0095 25.2856 46.1504 24.2876 47.5734 23.0061Z" fill="var(--fill-0, #3C3A3A)"/>
<path id="Vector_65" d="M33.6464 25.1325C34.2532 25.3407 36.1429 25.9864 36.7954 25.9651C36.4218 26.1663 34.0266 25.4159 33.5903 25.2246L33.6464 25.1325Z" fill="var(--fill-0, #727071)"/>
<path id="Vector_66" d="M49.7658 28.3545C49.8636 28.8192 49.5915 29.6547 49.6328 30.1035C49.7022 30.8634 49.4656 31.5893 49.4429 32.2899C49.4133 32.2704 49.3942 32.2603 49.3689 32.2326C49.1256 31.9683 49.7802 28.9826 49.7658 28.3545Z" fill="var(--fill-0, #888685)"/>
<path id="Vector_67" d="M27.165 32.2416C27.1617 32.0365 27.1435 31.8915 27.2088 31.6977L27.2564 31.6817C27.3418 31.7995 27.3458 31.9616 27.3664 32.1106L27.3713 32.424C27.3436 32.3164 27.3342 32.217 27.2566 32.1441C27.1941 32.2361 27.2368 34.621 27.1092 35.0503C26.8096 36.0585 26.5301 37.1459 25.9556 38.0395C26.0448 37.5393 26.4317 36.4071 26.6514 35.9634L26.6408 35.8421L26.5956 35.8066C26.362 35.9501 26.1788 36.1575 25.9681 36.3345C24.6642 37.4301 23.2927 38.496 21.7793 39.2898C21.3659 39.5066 20.7794 39.7585 20.3162 39.875C18.8849 40.0676 17.3055 40.0583 15.8533 40.1222C12.7836 40.2599 9.71304 40.376 6.64176 40.4708C6.26709 42.1512 5.87288 43.6066 5.52596 45.3431C5.79635 45.3572 6.17395 45.3661 6.43193 45.4059C8.16534 45.4379 9.99575 45.4067 11.7383 45.4063H22.1793L53.8131 45.4071H66.3965L70.0068 45.4051C70.6688 45.4051 71.695 45.3809 72.3293 45.4694C72.4923 45.6016 72.4751 45.5806 72.4919 45.8001L72.5129 45.8102C72.516 46.3268 72.5231 46.8434 72.5336 47.36C72.3141 47.4902 71.6322 47.5046 71.3558 47.5397C71.2552 47.5526 71.0372 47.76 70.9476 47.7678C70.5487 47.8025 70.0384 47.7471 69.6493 47.7896L26.6114 47.7869L9.4597 47.7888C8.01344 47.7931 6.62348 47.9276 5.20494 47.9191C5.16798 48.7417 5.13043 49.6774 5.27968 50.4927L5.24751 50.5617L5.19811 50.5722C4.5938 48.4119 5.54047 44.3384 6.0484 42.1562C6.18615 41.5644 6.39489 40.9301 6.52663 40.302C6.56808 40.3024 6.60956 40.3027 6.65104 40.3031C7.69315 40.3082 8.78002 40.2314 9.82264 40.1897L15.4761 39.9655L18.3715 39.8602C18.9042 39.8392 20.1027 39.8197 20.5735 39.6567C22.7212 38.9144 24.8152 37.1603 26.492 35.664C27.2306 35.0047 27.1779 33.1921 27.165 32.2416Z" fill="var(--fill-0, #161515)"/>
<path id="Vector_68" d="M27.165 32.2416C27.1617 32.0365 27.1435 31.8915 27.2088 31.6977L27.2564 31.6817C27.3418 31.7995 27.3458 31.9616 27.3664 32.1106L27.3713 32.424C27.3436 32.3164 27.3342 32.217 27.2566 32.1441C27.1941 32.2361 27.2368 34.621 27.1092 35.0503C26.8096 36.0585 26.5301 37.1459 25.9556 38.0395C26.0448 37.5393 26.4317 36.4071 26.6514 35.9634L26.6408 35.8421L26.5956 35.8066C26.362 35.9501 26.1788 36.1575 25.9681 36.3345C24.6642 37.4301 23.2927 38.496 21.7793 39.2898C21.3659 39.5066 20.7794 39.7585 20.3162 39.875C18.8849 40.0676 17.3055 40.0583 15.8533 40.1222C12.7836 40.2599 9.71304 40.376 6.64176 40.4708C6.26709 42.1512 5.87288 43.6066 5.52596 45.3431C5.79635 45.3572 6.17395 45.3661 6.43193 45.4059C6.1488 45.4258 5.9013 45.4246 5.6172 45.4234C5.54655 45.7408 5.31718 46.7167 5.40869 46.9631C5.5593 47.0375 7.77058 47.0559 8.14452 47.0582L55.6849 47.0609L66.5119 47.0488C68.3334 47.0496 70.1467 47.0972 71.9655 46.9837C72.1574 46.972 72.2774 46.9705 72.4658 46.919C72.472 46.5923 72.4654 46.1151 72.4919 45.8001L72.5129 45.8102C72.516 46.3268 72.5231 46.8434 72.5336 47.36C72.3141 47.4902 71.6322 47.5046 71.3558 47.5397C71.2552 47.5526 71.0372 47.76 70.9476 47.7678C70.5487 47.8025 70.0384 47.7471 69.6493 47.7896L26.6114 47.7869L9.4597 47.7888C8.01344 47.7931 6.62348 47.9276 5.20494 47.9191C5.16798 48.7417 5.13043 49.6774 5.27968 50.4927L5.24751 50.5617L5.19811 50.5722C4.5938 48.4119 5.54047 44.3384 6.0484 42.1562C6.18615 41.5644 6.39489 40.9301 6.52663 40.302C6.56808 40.3024 6.60956 40.3027 6.65104 40.3031C7.69315 40.3082 8.78002 40.2314 9.82264 40.1897L15.4761 39.9655L18.3715 39.8602C18.9042 39.8392 20.1027 39.8197 20.5735 39.6567C22.7212 38.9144 24.8152 37.1603 26.492 35.664C27.2306 35.0047 27.1779 33.1921 27.165 32.2416Z" fill="var(--fill-0, #727071)"/>
<path id="Vector_69" d="M65.2065 40.2638C66.4039 40.2267 67.6012 40.199 68.7989 40.1811C69.413 40.1753 70.6212 40.1963 71.1885 40.1351C72.2727 41.8939 72.5842 43.782 72.5129 45.8102L72.4918 45.8001C72.4751 45.5806 72.4922 45.6016 72.3293 45.4694C72.3569 45.4476 72.4014 45.4285 72.4026 45.3848C72.4408 43.5321 72.0142 41.92 71.153 40.2914C70.5249 40.3347 69.8835 40.3129 69.2527 40.3297C68.1026 40.3605 66.936 40.3948 65.7859 40.3796C65.428 40.346 64.6744 40.4454 64.4564 40.3343C64.5297 40.2911 65.0436 40.2907 65.2065 40.2638Z" fill="var(--fill-0, #585755)"/>
<path id="Vector_70" d="M50.429 33.5321C50.8824 33.9536 51.3499 35.1583 51.7121 35.717C53.1246 37.8949 55.3882 39.2798 57.8511 39.9698L57.8238 40.0373C57.7299 40.0506 57.6659 40.056 57.5712 40.0615C55.2736 39.2918 53.4498 38.1737 51.9066 36.2375C51.6953 35.972 51.4684 35.4753 51.2672 35.1735C51.1339 34.9735 50.928 34.8016 50.8485 34.664C50.8773 34.6039 50.8956 34.5688 50.93 34.5104L50.9612 34.4581C50.9144 34.262 50.6886 34.0729 50.6001 33.8035L50.5588 33.7965C50.4718 34.1996 50.7186 34.345 50.6021 34.6184C50.4917 34.1887 50.4184 33.9883 50.429 33.5321Z" fill="var(--fill-0, #585755)"/>
<path id="Vector_71" d="M57.8511 39.9698L57.926 39.9799C58.4941 40.0614 59.052 40.2529 59.6508 40.2833C61.4435 40.3745 63.4354 40.2033 65.2066 40.2638C65.0437 40.2907 64.5298 40.2911 64.4565 40.3343C64.6744 40.4455 65.4281 40.346 65.786 40.3796C64.867 40.4755 63.405 40.4228 62.4283 40.4521C61.5811 40.4778 60.2883 40.5203 59.4828 40.4505C58.8325 40.3967 58.1907 40.2661 57.5712 40.0614C57.6659 40.056 57.7299 40.0505 57.8238 40.0373L57.8511 39.9698Z" fill="var(--fill-0, #888685)"/>
<path id="Vector_72" d="M25.92 22.6993C25.9766 22.8842 25.982 23.7355 25.9635 23.95C25.946 24.0934 25.903 24.3252 25.9358 24.4558L26.0339 24.5114C26.0339 24.6307 26.0391 24.7943 26.0316 24.9103L25.9641 24.9358C25.9416 25.0328 25.9414 25.0268 25.9549 25.1253L25.9593 25.1582C25.8837 25.3807 25.9544 25.7831 25.8731 25.9028C25.8122 25.8127 25.8107 25.8014 25.7714 25.6984C25.7596 25.5314 25.7505 25.3643 25.7441 25.1971C25.728 24.7822 25.6932 22.9447 25.92 22.6993Z" fill="var(--fill-0, #888685)"/>
</g>
<defs>
<filter id="filter0_f_0_4" x="2.10468e-07" y="40.8583" width="78.3812" height="20.0122" filterUnits="userSpaceOnUse" color-interpolation-filters="sRGB">
<feFlood flood-opacity="0" result="BackgroundImageFix"/>
<feBlend mode="normal" in="SourceGraphic" in2="BackgroundImageFix" result="shape"/>
<feGaussianBlur stdDeviation="2.50153" result="effect1_foregroundBlur_0_4"/>
</filter>
</defs>
</svg>
