<svg preserveAspectRatio="none" width="100%" height="100%" overflow="visible" style="display: block;" viewBox="0 0 94 73" fill="none" xmlns="http://www.w3.org/2000/svg">
<g id="Frame 5">
<g id="Rectangle 4" filter="url(#filter0_f_0_4)">
<rect x="6" y="55" width="82" height="12" fill="var(--fill-0, black)" fill-opacity="0.5"/>
</g>
<path id="Vector" d="M30.1862 18.6177C29.4449 14.4666 30.2861 10.5723 32.7002 7.09982C35.23 3.53175 39.0514 1.09075 43.3523 0.295364C48.0273 -0.539295 52.6595 0.392339 56.5614 3.1244C59.9989 5.494 62.3504 9.13534 63.0961 13.2431C63.3954 14.9379 63.4426 17.5442 62.9306 19.1961C62.5467 20.6453 62.1802 21.81 61.4643 23.1489C61.2184 23.609 60.7087 24.3264 60.5357 24.7688C60.5446 25.2322 60.539 25.6688 60.6217 26.1262L60.6512 26.2236C60.7143 26.5588 60.6507 26.7494 60.6877 27.0352C61.2871 27.0632 62.6122 27.077 63.2004 27.0292L63.2715 27.0519C63.3458 27.7972 63.4127 29.8906 63.1443 30.5226C63.0671 30.6637 63.0297 30.7383 62.9292 30.8673C62.1217 30.973 61.497 30.9164 60.7181 30.95C60.6961 31.2132 60.6573 32.0202 60.5965 32.2222L60.4824 34.2033C60.4394 35.4555 60.4048 36.6754 60.2832 37.9238C60.214 38.6322 60.3407 39.5201 60.4777 40.2139C61.0215 40.7194 61.5821 42.1642 62.0165 42.8342C63.7105 45.4461 66.4252 47.1069 69.3789 47.9345L69.4687 47.9466C70.1499 48.0443 70.819 48.2739 71.5372 48.3104C73.6871 48.4198 76.0759 48.2145 78.2001 48.287C79.636 48.2426 81.0719 48.2094 82.5083 48.1879C83.2447 48.1809 84.6937 48.2061 85.374 48.1327C86.6743 50.2419 87.0479 52.5064 86.9623 54.9387C86.9661 55.5582 86.9745 56.1777 86.9871 56.7973C87.0643 58.6451 86.7739 59.3329 86.6766 60.9413C86.5929 61.7166 86.3138 63.7533 85.6555 64.1891C85.1926 64.7586 84.913 65.0821 84.3472 65.5665C83.8076 65.6615 82.4732 65.6283 81.8644 65.6283C80.241 65.6343 78.6176 65.6236 76.9942 65.5951L64.5124 65.5506L25.3258 65.4786L14.3656 65.4239C12.3349 65.4108 10.2567 65.3646 8.22769 65.4066C8.13067 64.998 8.03991 64.6567 7.9175 64.255C7.67951 63.7828 7.54882 63.1095 7.29676 62.5998C6.97502 61.9499 6.4405 61.329 6.23392 60.6496C5.50919 58.0588 6.6445 53.1736 7.25365 50.5566C7.41884 49.8468 7.66918 49.0861 7.82717 48.3328C7.87687 48.3333 7.92662 48.3338 7.97637 48.3342C9.22614 48.3403 10.5296 48.2482 11.78 48.1982L18.56 47.9293L22.0323 47.8031C22.6712 47.7778 24.1084 47.7545 24.6731 47.559C27.2488 46.6688 29.76 44.5652 31.7709 42.7706C32.6567 41.98 32.5936 39.8062 32.5781 38.6663C32.4172 37.6984 32.5955 36.5828 32.4838 35.6439C32.3133 34.2113 32.2076 32.9404 32.1521 31.4952C31.7429 31.5305 31.4286 31.5384 31.0232 31.4854C30.9517 31.24 30.9379 31.0708 30.9068 30.8192C30.9539 30.9427 30.9558 30.9563 31.0288 31.0644C31.1263 30.9208 31.0414 30.4382 31.1321 30.1714L31.1268 30.132C31.1107 30.0139 31.1109 30.0211 31.1378 29.9047L31.2189 29.8741C31.2278 29.735 31.2216 29.5388 31.2216 29.3957L31.104 29.329C31.0647 29.1724 31.1162 28.8944 31.1371 28.7224C31.1593 28.4652 31.1529 27.4443 31.085 27.2225C31.3474 27.2363 31.6766 27.2313 31.9445 27.2348C31.9415 27.0456 31.917 26.6653 31.9719 26.5033L32.0217 26.2617C32.0392 25.7613 32.1125 24.1655 31.995 23.7443C31.7168 22.747 30.9366 21.8181 30.747 20.6821C30.5066 20.0932 30.3262 19.2417 30.1862 18.6177Z" fill="var(--fill-0, #FEFEFE)"/>
<path id="Vector_2" d="M30.1862 18.6177C29.4448 14.4666 30.2861 10.5723 32.7002 7.09984C35.23 3.53177 39.0514 1.09077 43.3523 0.295384C48.0273 -0.539276 52.6595 0.392358 56.5614 3.12442C59.9989 5.49402 62.3503 9.13536 63.0961 13.2432C63.3954 14.9379 63.4426 17.5442 62.9306 19.1962C62.5467 20.6454 62.1801 21.81 61.4643 23.149C61.2184 23.6091 60.7087 24.3264 60.5357 24.7688C60.3253 25.1214 58.571 26.8849 58.218 27.0841C58.0548 27.2152 57.6111 27.599 57.446 27.6343C57.3221 27.5711 57.1963 27.5893 57.0532 27.5905C55.3466 29.1274 52.7792 30.3242 50.5549 30.8173C50.2548 30.8313 49.8854 30.9358 49.5698 30.9873C48.7511 31.1208 47.8991 31.2498 47.0711 31.3025C46.6222 31.3311 46.0339 31.2741 45.5873 31.2668C45.341 31.2628 44.2459 31.1122 44.1274 31.1391C43.3449 31.1647 41.0787 30.3903 40.3509 30.1407L40.2836 30.2511C39.4847 29.9076 38.5772 29.4953 37.8312 29.0547C37.3094 28.7466 36.7716 28.356 36.2421 28.0275C36.2579 27.9879 36.2755 27.9144 36.2875 27.8709L36.1867 27.7166L36.2074 27.6382C36.1474 27.5346 35.5229 26.9329 35.381 26.8101C34.7649 26.2769 34.3541 25.5422 33.8271 24.9822C33.8253 24.9276 33.7392 24.818 33.7036 24.7657C32.8966 23.5824 32.3772 22.2935 31.8857 20.9592C31.778 20.6667 31.6243 19.5371 31.5181 19.3567L31.468 19.2908C31.4459 19.0962 31.4254 18.9014 31.4065 18.7064C31.143 18.6822 31.0002 18.8411 30.4768 18.818L30.3643 18.883C30.2782 19.2784 30.8837 20.5282 30.747 20.6822C30.5066 20.0932 30.3262 19.2418 30.1862 18.6177Z" fill="var(--fill-0, #CAC8C6)"/>
<path id="Vector_3" d="M30.1862 18.6177C29.4448 14.4666 30.2861 10.5723 32.7002 7.09984C35.23 3.53177 39.0514 1.09077 43.3523 0.295384C48.0273 -0.539276 52.6595 0.392358 56.5614 3.12442C59.9989 5.49402 62.3503 9.13536 63.0961 13.2432C63.3954 14.9379 63.4426 17.5442 62.9306 19.1962C62.7464 18.8739 62.9077 18.071 62.881 17.5802C62.838 17.8064 62.8231 17.9268 62.8086 18.1567C62.802 17.9056 62.8132 17.7391 62.7389 17.4977L62.6744 17.4569C62.2419 17.6653 62.3845 17.6966 61.8631 17.6697C61.7542 17.8036 61.8659 17.9175 61.7331 18.1365C61.7911 17.4254 61.7467 16.6987 61.7144 15.9866C61.6284 15.8597 61.5788 15.2315 61.5915 15.0606C61.3399 13.6942 60.885 12.3732 60.2416 11.1416C60.0588 10.7972 59.7997 10.4361 59.6333 10.1094L59.5921 10.0287C58.9857 9.27124 58.5728 8.677 57.8794 7.96812C55.3466 5.40233 52.0049 3.79052 48.42 3.40557C44.1736 2.91018 39.9052 4.13217 36.5644 6.7998C35.3807 7.75907 34.4723 8.79287 33.5959 10.0244C33.0227 10.3319 33.2384 11.2155 32.4127 11.0436C32.2863 11.0172 32.2685 11.0165 32.1551 10.9368C32.1051 10.713 32.2295 10.7168 32.1986 10.5005C32.0015 10.7618 31.8134 11.1461 31.6582 11.4456C30.8197 13.0637 30.3718 14.7213 30.28 16.5394C30.2583 16.9703 30.3409 18.2649 30.2517 18.5439L30.2368 18.3811L30.1862 18.6177Z" fill="var(--fill-0, #CAC8C6)"/>
<path id="Vector_4" d="M37.6493 4.95975C43.7519 1.40201 49.6507 1.43614 55.6744 5.101C55.8815 5.31342 56.726 5.86291 57.0252 6.0901C57.7972 6.67615 59.9578 8.81244 60.2865 9.57149C60.3464 9.82842 60.9472 10.7605 61.1235 11.0838C60.9603 11.1445 60.5713 11.2973 60.4151 11.323C60.301 11.0866 59.8292 10.1156 59.6333 10.0241L59.5922 10.0286C58.9857 9.27117 58.5729 8.67694 57.8794 7.96805C55.3466 5.40226 52.0049 3.79045 48.42 3.4055C44.1736 2.91011 39.9053 4.1321 36.5644 6.79973C35.3808 7.759 34.4723 8.7928 33.5959 10.0243C33.0227 10.3319 33.2384 11.2155 32.4127 11.0435C32.2863 11.0172 32.2686 11.0164 32.1551 10.9367C32.1051 10.713 32.2295 10.7168 32.1987 10.5004C33.2183 8.79238 34.5443 7.28708 36.11 6.06004C36.5647 5.7009 37.1728 5.34704 37.5935 5.00553L37.6493 4.95975Z" fill="var(--fill-0, #514F4F)"/>
<path id="Vector_5" d="M38.2998 3.73398C38.179 3.81571 37.9312 3.99956 37.8051 4.03551C38.1836 3.71083 38.7457 3.35875 39.1806 3.09873C41.9103 1.46668 44.9591 0.762799 48.1273 1.01945C50.6994 1.2278 53.1401 2.21119 55.226 3.6947C54.7542 3.8165 55.103 4.17761 54.6714 4.40788C54.9875 4.60319 55.4378 4.81832 55.7024 5.03256L55.6744 5.10101C49.6507 1.43615 43.7519 1.40202 37.6493 4.95976L37.6302 4.88064C37.9882 4.60043 38.3951 4.57453 38.5126 4.20875C38.4938 4.01648 38.4011 3.90165 38.2998 3.73398Z" fill="var(--fill-0, #FEFEFE)"/>
<path id="Vector_6" d="M60.2865 9.57155C60.7527 10.0937 62.8315 13.8299 62.341 14.2513C62.2592 14.0951 62.2596 12.9242 61.807 12.6323C61.6686 12.6102 61.1225 12.8291 61.1351 12.949C61.1894 13.4699 61.7121 14.5493 61.5915 15.0605C61.3399 13.6942 60.885 12.3732 60.2416 11.1416C60.0588 10.7972 59.7998 10.4361 59.6333 10.1094L59.5922 10.0286L59.6333 10.0242C59.8292 10.1156 60.301 11.0867 60.4151 11.3231C60.5713 11.2974 60.9603 11.1446 61.1235 11.0839C60.9472 10.7606 60.3464 9.82848 60.2865 9.57155Z" fill="var(--fill-0, #7A7878)"/>
<path id="Vector_7" d="M62.7917 16.8754C62.7871 16.5869 62.7403 16.1805 62.7688 15.933L62.7637 16.0077C62.8591 16.1864 62.8895 17.3321 62.881 17.5802C62.838 17.8064 62.8231 17.9268 62.8086 18.1567C62.802 17.9056 62.8132 17.739 62.7389 17.4976L62.6744 17.4569C62.2419 17.6653 62.3845 17.6966 61.8631 17.6696C61.7542 17.8036 61.8659 17.9175 61.7332 18.1364C61.7911 17.4254 61.7467 16.6987 61.7145 15.9866L61.7621 15.9935C61.7907 16.3128 61.8416 16.704 61.8089 17.016C62.2255 16.897 62.3457 16.8605 62.7917 16.8754Z" fill="var(--fill-0, #888685)"/>
<path id="Vector_8" d="M61.7332 18.1365C61.8659 17.9175 61.7542 17.8037 61.8631 17.6697C62.3845 17.6967 62.2419 17.6654 62.6744 17.457L62.7389 17.4977C62.8132 17.7391 62.802 17.9057 62.8086 18.1568C62.8231 17.9269 62.838 17.8065 62.881 17.5803C62.9077 18.071 62.7464 18.874 62.9306 19.1962C62.5467 20.6454 62.1802 21.81 61.4643 23.149C61.2184 23.6091 60.7087 24.3265 60.5357 24.7689C60.3253 25.1214 58.571 26.885 58.218 27.0842C58.0548 27.2153 57.6111 27.5991 57.446 27.6343C57.3221 27.5711 57.1963 27.5894 57.0532 27.5905C57.2253 27.3854 57.4853 27.1369 57.6803 26.9409C58.1474 26.3756 58.9076 25.6619 59.3168 25.0879C60.748 23.0791 61.6312 20.589 61.7332 18.1365Z" fill="var(--fill-0, #A8A6A5)"/>
<path id="Vector_9" d="M57.6803 26.9408L57.6934 27.0263L57.489 27.2404C57.5362 27.3702 57.5325 27.3612 57.6335 27.4563C57.8612 27.3049 57.9547 27.1206 58.1773 27.0459L58.218 27.0841C58.0548 27.2152 57.6111 27.599 57.446 27.6342C57.3221 27.571 57.1963 27.5893 57.0532 27.5905C57.2253 27.3853 57.4853 27.1368 57.6803 26.9408Z" fill="var(--fill-0, #888685)"/>
<path id="Vector_10" d="M32.1987 10.5005C32.2295 10.7168 32.1052 10.713 32.1551 10.9368C32.2686 11.0165 32.2863 11.0172 32.4127 11.0436C33.2385 11.2155 33.0227 10.3319 33.5959 10.0243C32.8276 11.3491 31.9932 12.9537 31.626 14.5C31.5063 15.004 31.7415 15.0322 31.1455 15.1414C31.2783 15.2759 31.5258 15.0776 31.4949 15.3329C31.3322 16.6803 31.3942 18.011 31.5182 19.3567L31.468 19.2908C31.4459 19.0962 31.4254 18.9014 31.4065 18.7064C31.143 18.6822 31.0002 18.8411 30.4768 18.818L30.3643 18.883C30.2783 19.2784 30.8837 20.5282 30.747 20.6821C30.5066 20.0932 30.3262 19.2417 30.1862 18.6177L30.2368 18.3811L30.2518 18.5438C30.3409 18.2649 30.2583 16.9703 30.28 16.5394C30.3718 14.7213 30.8197 13.0636 31.6582 11.4456C31.8134 11.1461 32.0015 10.7617 32.1987 10.5005Z" fill="var(--fill-0, #949393)"/>
<path id="Vector_11" d="M36.2074 27.6381C37.4301 28.7376 38.8468 29.4987 40.351 30.1406L40.2837 30.251C39.4847 29.9076 38.5773 29.4953 37.8313 29.0547C37.3095 28.7465 36.7717 28.356 36.2422 28.0275C36.2579 27.9879 36.2756 27.9144 36.2875 27.8708L36.1868 27.7166L36.2074 27.6381Z" fill="var(--fill-0, #161515)"/>
<path id="Vector_12" d="M34.7264 16.3147C34.7561 13.7009 36.1513 10.7167 38.0122 8.92167C43.0021 4.10864 51.5055 3.9124 56.3846 9.02066C58.4214 11.1532 59.6277 13.9703 59.5791 16.9386C59.5697 17.336 59.493 18.6106 59.371 18.9672C59.1667 20.0847 59.0301 21.0366 58.5621 22.0822C58.2175 22.976 57.7308 23.5293 57.0762 24.2078C56.5572 24.8833 56.4375 25.0288 55.7384 25.516C55.5243 25.9551 54.3264 26.6916 53.8485 26.798C52.7675 27.6476 50.2941 28.4016 48.9563 28.4947C45.3275 28.7473 41.8192 27.8269 38.9902 25.5439C38.0206 24.9087 36.655 23.1995 36.152 22.151C35.6928 21.639 35.0071 19.3762 34.8739 18.6432C34.7248 17.9311 34.7201 17.0445 34.7264 16.3147Z" fill="var(--fill-0, #C5C1BE)"/>
<path id="Vector_13" d="M34.7264 16.3147C34.7561 13.7009 36.1513 10.7167 38.0122 8.92167C43.0021 4.10864 51.5055 3.9124 56.3846 9.02066C58.4214 11.1532 59.6277 13.9703 59.5791 16.9386C59.5697 17.336 59.493 18.6106 59.371 18.9672C59.3729 18.7879 59.3724 18.6571 59.3588 18.4787L59.3177 18.5676C59.2513 17.8771 59.2087 16.2792 58.7047 15.8128L58.6032 15.8397C58.2797 16.1927 58.196 16.4042 58.1114 16.8834C58.0038 16.7761 58.0066 16.6768 57.9767 16.5216L57.9641 16.4534L57.9631 16.486C57.9089 16.3434 57.8752 16.1443 57.842 15.9909C57.814 15.8175 57.8098 14.709 57.7901 14.4197C57.6686 12.6434 57.1262 11.3893 56.1158 9.94158C56.048 9.93859 55.9984 9.97417 55.9334 10.0025L55.6206 9.64257C55.2003 9.16387 54.4704 8.36129 53.9505 7.98653C50.367 5.40334 45.5193 5.01344 41.5569 6.94207C40.7177 7.35054 39.6634 8.20362 38.976 8.81679C37.327 10.5887 36.4783 12.065 36.2159 14.5571C36.1504 15.1792 36.2154 15.9901 36.0608 16.5388C36.1356 17.2808 36.4134 17.8015 36.5533 18.4424C36.4812 18.486 36.4287 18.5128 36.3541 18.5512C35.9912 17.9376 35.7783 17.0822 35.6104 16.3887L35.5973 16.3112C35.5819 15.6025 34.8704 15.7459 34.7264 16.3147Z" fill="var(--fill-0, #888685)"/>
<path id="Vector_14" d="M39.035 8.55356C40.7713 6.63385 43.8449 5.61057 46.3744 5.52267C50.007 5.39643 53.9509 6.92669 56.1158 9.94158C56.048 9.93859 55.9984 9.97417 55.9334 10.0025L55.6206 9.64257C55.2003 9.16387 54.4704 8.36129 53.9504 7.98653C50.367 5.40335 45.5193 5.01344 41.5569 6.94207C40.7177 7.35054 39.6634 8.20363 38.976 8.8168L39.0789 8.65754L39.035 8.55356Z" fill="var(--fill-0, #CAC8C6)"/>
<path id="Vector_15" d="M39.035 8.55358L39.0789 8.65757L38.976 8.81682C37.327 10.5887 36.4783 12.065 36.2159 14.5571C36.1504 15.1792 36.2154 15.9901 36.0608 16.5388C35.9831 16.0412 35.9759 15.3894 36.0043 14.8899C36.1291 12.4581 37.2202 10.177 39.035 8.55358Z" fill="var(--fill-0, #DFDEDD)"/>
<path id="Vector_16" d="M34.7264 16.3147C34.8704 15.7459 35.5819 15.6025 35.5973 16.3112L35.6104 16.3887C35.7783 17.0822 35.9912 17.9376 36.3541 18.5512C36.4287 18.5128 36.4812 18.486 36.5533 18.4424C36.8087 19.2599 37.1436 19.6782 37.4769 20.4062C37.3574 20.4276 37.3836 20.4076 37.29 20.4677L38.1875 21.7211L38.3297 21.8932C37.9758 21.9082 38.1487 22.0467 37.9573 22.2353C38.0847 22.7376 38.4673 23.0738 38.0237 23.5049C38.3533 23.8405 38.6884 24.1706 39.0289 24.4951C39.4488 24.8807 39.81 25.1834 40.2887 25.4937C40.4503 25.5968 40.6285 25.7168 40.792 25.8126C43.4349 27.5334 46.5376 28.5771 49.6956 27.8825C50.3403 27.7407 51.9184 27.3303 52.4467 27.0157C53.8326 26.5232 56.1022 24.9662 56.869 23.723C57.093 23.4581 57.36 22.9638 57.5377 22.6507C57.5166 22.7978 57.4773 22.8867 57.4549 23.0637L57.5105 23.0706L57.4656 23.0452L57.4778 23.0895C57.6199 22.9381 57.8219 22.6079 57.9435 22.423L57.8827 22.6893C58.1357 22.6199 58.3802 22.2869 58.5621 22.0822C58.2175 22.976 57.7308 23.5293 57.0762 24.2078C56.5572 24.8833 56.4375 25.0288 55.7384 25.516C55.5243 25.9551 54.3264 26.6916 53.8485 26.798C52.7675 27.6476 50.2941 28.4016 48.9563 28.4947C45.3275 28.7473 41.8192 27.8269 38.9902 25.5439C38.0206 24.9087 36.655 23.1995 36.152 22.151C35.6928 21.639 35.0071 19.3762 34.8739 18.6432C34.7248 17.9311 34.7201 17.0445 34.7264 16.3147Z" fill="var(--fill-0, #514F4D)"/>
<path id="Vector_17" d="M34.7264 16.3147C34.8704 15.7459 35.5819 15.6025 35.5973 16.3112L35.6104 16.3887C35.7783 17.0822 35.9912 17.9376 36.3541 18.5512C36.4287 18.5128 36.4812 18.486 36.5533 18.4424C36.8087 19.2599 37.1436 19.6782 37.4769 20.4062C37.3574 20.4276 37.3836 20.4076 37.29 20.4677L38.1875 21.7211L38.3297 21.8932C37.9758 21.9082 38.1487 22.0467 37.9573 22.2353C38.0847 22.7376 38.4673 23.0738 38.0237 23.5049C37.792 23.2892 37.5497 23.0328 37.3255 22.805C37.0655 22.5611 36.8207 22.0131 36.6757 21.6859L36.7554 22.0668C36.4518 21.6076 36.3481 20.7331 36.1327 20.1732L36.1044 20.1712L35.9877 20.2635C36.0048 20.7584 36.5661 21.7879 36.4893 21.9327C36.6899 22.4512 37.3654 23.1833 37.6926 23.6537C37.8763 23.9178 38.0545 24.2029 38.2363 24.4718C38.4695 24.7216 38.9319 25.1209 38.9322 25.3845C38.9323 25.3981 38.9821 25.5233 38.9902 25.5439C38.0206 24.9087 36.655 23.1995 36.152 22.151C35.6928 21.639 35.0071 19.3762 34.8739 18.6432C34.7248 17.9311 34.7201 17.0445 34.7264 16.3147Z" fill="var(--fill-0, #3B3938)"/>
<path id="Vector_18" d="M34.7264 16.3147C34.8704 15.7459 35.5819 15.6025 35.5973 16.3112L35.6104 16.3887C34.9038 17.118 35.946 21.2111 36.4893 21.9327C36.6899 22.4512 37.3654 23.1833 37.6926 23.6537C37.8763 23.9178 38.0545 24.2029 38.2363 24.4718C38.4695 24.7216 38.9319 25.1209 38.9322 25.3845C38.9323 25.3981 38.9821 25.5233 38.9902 25.5439C38.0206 24.9087 36.655 23.1995 36.152 22.151C35.6928 21.639 35.0071 19.3762 34.8739 18.6432C34.7248 17.9311 34.7201 17.0445 34.7264 16.3147Z" fill="var(--fill-0, #585755)"/>
<path id="Vector_19" d="M36.152 22.151C36.5741 22.413 36.8707 23.415 37.2259 23.4669L37.2686 23.374C37.6389 23.9019 37.73 24.0552 38.2363 24.4719C38.4695 24.7217 38.9319 25.1209 38.9322 25.3846C38.9323 25.3981 38.9821 25.5233 38.9902 25.5439C38.0206 24.9087 36.655 23.1995 36.152 22.151Z" fill="var(--fill-0, #727071)"/>
<path id="Vector_20" d="M34.7264 16.3147C34.8704 15.7459 35.5819 15.6025 35.5973 16.3112C35.5345 16.1694 35.5139 16.0708 35.3804 16.0009C35.303 16.0075 35.2487 15.9943 35.214 16.049C34.8841 16.5706 34.9709 18.0547 34.8739 18.6432C34.7248 17.9311 34.7201 17.0445 34.7264 16.3147Z" fill="var(--fill-0, #727071)"/>
<path id="Vector_21" d="M37.3255 22.8049C37.0085 22.2041 36.7871 21.115 37.147 20.4996L37.29 20.4677L38.1875 21.7211L38.3297 21.8932C37.9758 21.9082 38.1487 22.0467 37.9573 22.2353C38.0847 22.7376 38.4673 23.0737 38.0238 23.5049C37.792 23.2892 37.5497 23.0327 37.3255 22.8049Z" fill="var(--fill-0, #727071)"/>
<path id="Vector_22" d="M37.9573 22.2354L37.8939 22.2126L37.8736 22.2446C37.7788 22.2142 37.823 22.2322 37.7459 22.1275C37.7815 21.9835 37.8047 21.8644 37.8309 21.7184C37.7749 21.6027 37.7745 21.607 37.7554 21.4805L37.8131 21.4452C38.1916 21.6282 37.7348 21.5484 38.1875 21.7212L38.3297 21.8933C37.9758 21.9083 38.1487 22.0468 37.9573 22.2354Z" fill="var(--fill-0, #888685)"/>
<path id="Vector_23" d="M36.1044 20.1713C36.1268 19.9403 35.7429 18.8578 35.8236 18.4754L35.9562 18.9117C36.0558 19.2419 36.3718 19.584 36.2086 20.0376L36.182 20.0222C36.1511 20.0959 36.1438 20.0959 36.1327 20.1732L36.1044 20.1713Z" fill="var(--fill-0, #3C3A3A)"/>
<path id="Vector_24" d="M57.8827 22.6893C58.1357 22.6199 58.3802 22.2869 58.5621 22.0823C58.2175 22.976 57.7308 23.5293 57.0762 24.2078C56.8915 24.3063 56.7362 24.37 56.5412 24.4439C57.0939 23.8167 57.468 23.4195 57.8827 22.6893Z" fill="var(--fill-0, #888685)"/>
<path id="Vector_25" d="M55.9096 25.0996C55.8553 25.2991 55.8404 25.3361 55.7384 25.516C55.5243 25.9551 54.3264 26.6917 53.8485 26.798C54.2866 26.3534 55.3377 25.569 55.9096 25.0996Z" fill="var(--fill-0, #888685)"/>
<path id="Vector_26" d="M56.5413 24.4439C56.7362 24.37 56.8915 24.3063 57.0762 24.2078C56.5572 24.8833 56.4375 25.0288 55.7384 25.516C55.8404 25.3361 55.8553 25.2991 55.9096 25.0996C56.1298 24.8891 56.3332 24.6666 56.5413 24.4439Z" fill="var(--fill-0, #A7A6A5)"/>
<path id="Vector_27" d="M41.3306 24.4034C43.2826 25.3624 44.8852 25.8439 47.0926 25.8508C47.4447 25.8518 48.1643 25.8264 48.4953 25.7442C49.2771 25.7259 50.3618 25.393 51.0955 25.127C51.3938 25.0188 51.7295 24.8577 52.0264 24.7795C52.4463 24.7716 52.7764 24.3523 53.048 24.5767C53.4581 24.9155 52.9615 25.7158 52.8596 26.0885C52.7988 26.3097 52.7778 26.5433 52.7544 26.7469C52.6333 26.8444 52.5164 26.8847 52.4467 27.0158C51.9184 27.3304 50.3403 27.7408 49.6956 27.8826C46.5376 28.5771 43.4349 27.5335 40.792 25.8126C40.7899 25.6677 40.7769 25.2653 40.8886 25.1781C41.1007 25.0126 41.4914 24.7858 41.7614 24.7784C41.6206 24.6281 41.4349 24.6769 41.3306 24.4034Z" fill="var(--fill-0, #FEFEFE)"/>
<path id="Vector_28" d="M58.6032 15.8397L58.7047 15.8128C59.2087 16.2792 59.2513 17.8771 59.3177 18.5675L59.3588 18.4786C59.3724 18.6571 59.3729 18.7878 59.371 18.9672C59.1667 20.0847 59.0301 21.0366 58.5621 22.0822C58.3802 22.2869 58.1357 22.6199 57.8827 22.6893L57.9435 22.4229C57.8219 22.6078 57.6199 22.9381 57.4778 23.0895L57.4656 23.0452L57.5105 23.0706L57.4549 23.0636C57.4773 22.8867 57.5166 22.7978 57.5376 22.6507C57.36 22.9638 57.093 23.458 56.869 23.723C56.1022 24.9661 53.8326 26.5232 52.4467 27.0157C52.5164 26.8847 52.6333 26.8444 52.7544 26.7468C52.7778 26.5432 52.7988 26.3096 52.8596 26.0884C52.9615 25.7157 53.4581 24.9154 53.048 24.5766C52.7764 24.3522 52.4463 24.7715 52.0264 24.7794C51.7295 24.8577 51.3938 25.0187 51.0955 25.1269C50.3618 25.3929 49.2771 25.7258 48.4953 25.7441C48.3606 25.7289 48.1919 25.7272 48.053 25.722L48.0324 25.6473C49.8667 25.4385 51.8468 24.9002 53.3562 23.8011C53.9439 23.4997 54.8678 22.6444 55.3162 22.1639C56.5586 20.6466 57.2824 19.3866 57.6971 17.4213C57.7504 17.5016 57.7668 17.5206 57.8327 17.5915L57.9295 17.537C58.0398 17.3853 58.117 17.0575 58.1114 16.8834C58.196 16.4042 58.2797 16.1926 58.6032 15.8397Z" fill="var(--fill-0, #2F2D2D)"/>
<path id="Vector_29" d="M56.0569 21.9474C56.3435 21.8245 56.7297 21.6253 57.036 21.6632C57.4236 21.8504 57.3852 22.2964 57.5816 22.5708L57.5377 22.6508C57.36 22.9639 57.093 23.4581 56.869 23.723C56.1022 24.9662 53.8326 26.5233 52.4467 27.0158C52.5164 26.8847 52.6333 26.8444 52.7544 26.7469C52.7778 26.5433 52.7988 26.3097 52.8596 26.0885C52.9615 25.7158 53.4581 24.9155 53.048 24.5767C52.7764 24.3523 52.4463 24.7716 52.0264 24.7795C52.9943 24.2684 53.5614 23.8954 54.432 23.2487C54.7799 22.9301 55.6711 22.2432 56.0569 21.9474Z" fill="var(--fill-0, #C8C7C6)"/>
<path id="Vector_30" d="M56.0569 21.9474C56.3435 21.8245 56.7297 21.6253 57.0359 21.6632C57.4236 21.8504 57.3852 22.2964 57.5816 22.5708L57.5376 22.6508C57.36 22.9639 57.093 23.4581 56.869 23.723C56.8765 23.3484 57.0963 23.4069 57.0911 23.0849C56.8742 22.8804 56.6441 22.5464 56.4982 22.4628C56.2182 22.4756 54.8421 23.1966 54.432 23.2487C54.7799 22.9301 55.6711 22.2432 56.0569 21.9474Z" fill="var(--fill-0, #7B7A79)"/>
<path id="Vector_31" d="M56.0568 21.9473C56.5707 21.4379 57.0626 21.1145 57.4044 20.4529C57.5633 20.1461 57.7723 19.5886 57.9533 19.3284C58.0398 19.3733 58.333 19.8768 58.4555 20.0318C58.2914 20.7238 57.9963 22.0073 57.5816 22.5707C57.3852 22.2963 57.4235 21.8503 57.0359 21.6631C56.7297 21.6252 56.3435 21.8244 56.0568 21.9473Z" fill="var(--fill-0, #504F4F)"/>
<path id="Vector_32" d="M58.6033 15.8397L58.7047 15.8128C59.2088 16.2792 59.2513 17.8771 59.3177 18.5675L59.3589 18.4786C59.3724 18.6571 59.3729 18.7878 59.371 18.9672C59.1667 20.0847 59.0302 21.0366 58.5621 22.0822C58.3802 22.2869 58.1357 22.6199 57.8828 22.6893L57.9435 22.4229C58.8703 20.436 59.0844 19.0967 58.9769 16.9353C58.9582 16.5524 58.895 16.0994 58.6033 15.8397Z" fill="var(--fill-0, #585755)"/>
<path id="Vector_33" d="M37.29 20.4676C37.3836 20.4076 37.3574 20.4275 37.4769 20.4062C38.4061 21.9041 39.4235 22.9394 40.8967 23.909C41.3058 23.8442 41.9846 24.2736 42.3949 24.4544C43.3465 24.8653 44.3505 25.1423 45.3782 25.2773C47.8159 25.5813 51.3919 24.9954 53.3557 23.465C53.8948 23.1445 54.4802 22.5378 55.0268 22.2011C55.1914 22.0998 55.1488 22.1215 55.3162 22.1639C54.8678 22.6444 53.9439 23.4997 53.3562 23.8011C51.8468 24.9002 49.8667 25.4385 48.0324 25.6473L48.053 25.722C48.1919 25.7272 48.3606 25.7289 48.4953 25.7441C48.1643 25.8263 47.4447 25.8518 47.0926 25.8507C44.8852 25.8439 43.2826 25.3623 41.3306 24.4033C41.4349 24.6768 41.6206 24.628 41.7614 24.7784C41.4914 24.7857 41.1007 25.0126 40.8886 25.178C40.7769 25.2652 40.7899 25.6676 40.792 25.8125C40.6285 25.7167 40.4503 25.5968 40.2887 25.4936C39.81 25.1833 39.4488 24.8807 39.0289 24.4951C38.6884 24.1706 38.3533 23.8405 38.0237 23.5049C38.4673 23.0737 38.0847 22.7376 37.9573 22.2353C38.1487 22.0467 37.9758 21.9082 38.3297 21.8932L38.1875 21.7211L37.29 20.4676Z" fill="var(--fill-0, #A7A6A5)"/>
<path id="Vector_34" d="M37.9573 22.2353C38.1487 22.0467 37.9758 21.9082 38.3297 21.8932C38.9902 22.6729 39.5628 23.2125 40.4019 23.8031C40.5487 23.9064 41.279 24.3495 41.3306 24.4033C41.4349 24.6768 41.6206 24.628 41.7614 24.7784C41.4914 24.7857 41.1007 25.0126 40.8886 25.178C40.7769 25.2652 40.7899 25.6676 40.792 25.8125C40.6285 25.7167 40.4503 25.5968 40.2888 25.4936C39.81 25.1833 39.4488 24.8807 39.0289 24.4951C38.6884 24.1706 38.3533 23.8405 38.0238 23.5049C38.4673 23.0737 38.0847 22.7376 37.9573 22.2353Z" fill="var(--fill-0, #D6D4D4)"/>
<path id="Vector_35" d="M39.0289 24.4951L39.1244 24.3522C39.5013 24.2955 40.3011 25.0901 40.2887 25.4936C39.81 25.1833 39.4488 24.8807 39.0289 24.4951Z" fill="var(--fill-0, #CAC8C6)"/>
<path id="Vector_36" d="M37.29 20.4676C37.3836 20.4076 37.3574 20.4275 37.4769 20.4062C38.4061 21.9041 39.4235 22.9394 40.8967 23.909C43.0892 25.426 45.4684 25.7001 48.0324 25.6473L48.053 25.722C48.1919 25.7272 48.3606 25.7289 48.4953 25.7441C48.1643 25.8263 47.4447 25.8518 47.0926 25.8507C44.8852 25.8439 43.2826 25.3623 41.3306 24.4033C41.279 24.3495 40.5487 23.9064 40.4019 23.8031C39.5628 23.2125 38.9902 22.6729 38.3297 21.8932L38.1875 21.7211L37.29 20.4676Z" fill="var(--fill-0, #161515)"/>
<path id="Vector_37" d="M57.8421 15.9909C57.8752 16.1443 57.9089 16.3434 57.9632 16.486L57.9641 16.4534L57.9767 16.5216C58.0066 16.6768 58.0038 16.7761 58.1114 16.8834C58.117 17.0575 58.0398 17.3853 57.9295 17.5371L57.8327 17.5915C57.7668 17.5206 57.7504 17.5016 57.6971 17.4213C57.7256 16.9462 57.829 16.5288 57.8421 15.9909Z" fill="var(--fill-0, #3C3A3A)"/>
<path id="Vector_38" d="M42.8103 18.7592C41.5934 16.6391 42.2833 13.9357 44.3672 12.6579C46.4511 11.3801 49.1733 11.9914 50.511 14.0374C51.8487 16.0835 51.3166 18.8224 49.3098 20.2187C47.3035 21.615 44.5505 21.1624 43.0967 19.1972C42.9928 19.0568 42.8972 18.9106 42.8103 18.7592Z" fill="var(--fill-0, #FEFEFE)"/>
<path id="Vector_39" d="M42.8103 18.7592C42.817 18.412 42.5665 17.8668 42.4883 17.4932C42.0514 15.4054 43.7296 12.8982 45.9623 12.825C46.0624 12.8224 46.1626 12.8233 46.2627 12.8278C46.1229 12.8944 46.148 12.8674 46.0142 12.8741C45.0812 12.9204 44.2379 13.4566 43.593 14.0913C42.7984 14.8735 42.5983 16.0517 42.5767 17.1159C42.5649 17.6945 42.8988 18.6288 43.0967 19.1972C42.9928 19.0568 42.8972 18.9106 42.8103 18.7592Z" fill="var(--fill-0, #CAC8C6)"/>
<path id="Vector_40" d="M47.3802 12.8682C49.5815 13.0322 51.1675 14.9158 51.1333 17.0985C51.0796 17.0142 51.1011 17.0628 51.0758 16.9688C50.85 16.1384 50.5536 15.0527 50.0411 14.3649C49.567 13.7613 48.8829 13.3464 48.183 13.0556C47.9693 12.9666 47.526 12.9505 47.3802 12.8682Z" fill="var(--fill-0, #727071)"/>
<path id="Vector_41" d="M86.9871 56.7973C87.0643 58.6451 86.7739 59.3329 86.6766 60.9413C86.5929 61.7166 86.3138 63.7533 85.6555 64.1891C85.1926 64.7586 84.913 65.0821 84.3472 65.5665C83.8076 65.6615 82.4732 65.6283 81.8644 65.6283C80.241 65.6343 78.6176 65.6236 76.9942 65.5951L64.5124 65.5506L25.3259 65.4786L14.3656 65.4239C12.3349 65.4108 10.2567 65.3646 8.2277 65.4066C8.13067 64.998 8.03992 64.6567 7.91751 64.255C7.67952 63.7828 7.54883 63.1095 7.29676 62.5998C6.97503 61.9499 6.4405 61.329 6.23393 60.6496L6.29317 60.637L6.33175 60.5542C6.15276 59.5765 6.19779 58.4543 6.24211 57.4678C7.94332 57.478 9.61025 57.3167 11.3447 57.3116L31.9142 57.3093L83.528 57.3125C83.9947 57.2616 84.6067 57.328 85.085 57.2863C85.1926 57.277 85.4539 57.0282 85.5746 57.0128C85.9061 56.9707 86.7239 56.9534 86.9871 56.7973Z" fill="var(--fill-0, #BAB6B3)"/>
<path id="Vector_42" d="M8.13552 63.5669C8.44972 63.5005 9.33974 63.5224 9.69566 63.5248C10.5938 63.5346 11.492 63.5393 12.3901 63.5383L25.0901 63.565L71.7836 63.6636C73.0853 63.666 85.1958 63.6389 85.4899 63.7567L85.5245 63.8666C85.5007 63.9269 85.4385 64.0732 85.4273 64.1284C85.525 64.1485 85.5657 64.149 85.6554 64.1892C85.1926 64.7587 84.9129 65.0823 84.3472 65.5667C83.8076 65.6616 82.4732 65.6284 81.8644 65.6284C80.241 65.6345 78.6176 65.6237 76.9942 65.5952L64.5124 65.5508L25.3258 65.4788L14.3656 65.4241C12.3349 65.411 10.2567 65.3647 8.22767 65.4068C8.13065 64.9981 8.0399 64.6568 7.91749 64.2551L7.98108 64.1523L8.04341 64.1742L8.14206 64.4244C8.12621 64.2088 8.05252 63.7268 8.13552 63.5669Z" fill="var(--fill-0, #CAC8C6)"/>
<path id="Vector_43" d="M8.13557 63.5669C8.44977 63.5005 9.33979 63.5224 9.69571 63.5248C10.5938 63.5346 11.492 63.5393 12.3902 63.5383L25.0901 63.565L71.7836 63.6636C73.0853 63.666 85.1959 63.6389 85.49 63.7567L85.5246 63.8666C85.0416 63.9835 83.3349 63.9414 82.7383 63.9404L77.6628 63.932L53.4142 63.8179L21.7312 63.7562C18.3642 63.7768 14.997 63.7693 11.6301 63.7338C10.8155 63.7226 9.99472 63.7469 9.18068 63.723C8.90893 63.7151 8.41153 63.7254 8.16465 63.6866L8.13557 63.5669Z" fill="var(--fill-0, #FEFEFE)"/>
<path id="Vector_44" d="M85.4273 64.1283C85.525 64.1485 85.5657 64.1489 85.6554 64.1891C85.1926 64.7586 84.9129 65.0822 84.3472 65.5666C83.8076 65.6615 82.4732 65.6283 81.8644 65.6283C80.241 65.6344 78.6176 65.6236 76.9942 65.5951L64.5124 65.5507L25.3258 65.4787L14.3656 65.424C12.3349 65.4109 10.2567 65.3646 8.22767 65.4067C8.13065 64.998 8.0399 64.6567 7.91749 64.2551L7.98108 64.1522L8.04341 64.1742L8.14206 64.4243C8.22389 64.6085 8.32339 65.0518 8.35387 65.2505C10.7765 65.1799 13.4728 65.2398 15.915 65.2477L28.2289 65.273L67.928 65.3903L79.5546 65.4142C81.0368 65.4142 82.7766 65.4834 84.2097 65.439C84.6436 65.1495 85.1715 64.5767 85.4273 64.1283Z" fill="var(--fill-0, #888685)"/>
<path id="Vector_45" d="M86.9871 56.7973C87.0642 58.6451 86.7739 59.3329 86.6766 60.9413L86.6144 61.0101C86.5368 60.9063 86.5373 60.8202 86.5499 60.6744C86.6533 59.5138 86.8169 58.5319 86.8202 57.3569C86.3339 57.4252 84.1008 57.3579 83.528 57.3125C83.9947 57.2616 84.6067 57.328 85.085 57.2863C85.1926 57.277 85.4539 57.0282 85.5746 57.0128C85.9061 56.9707 86.7239 56.9534 86.9871 56.7973Z" fill="var(--fill-0, #888685)"/>
<path id="Vector_46" d="M30.747 20.6821C30.8837 20.5282 30.2782 19.2784 30.3643 18.883L30.4768 18.818C31.0002 18.8411 31.143 18.6821 31.4065 18.7064C31.4254 18.9014 31.4459 19.0962 31.468 19.2908L31.5182 19.3567C31.6243 19.5371 31.778 20.6666 31.8858 20.9592C32.3772 22.2935 32.8966 23.5824 33.7036 24.7657C33.7393 24.818 33.8253 24.9276 33.8271 24.9821C34.3541 25.5421 34.7649 26.2769 35.381 26.8101C35.5229 26.9329 36.1474 27.5346 36.2074 27.6381L36.1867 27.7166L36.2875 27.8708C36.2755 27.9144 36.2579 27.9879 36.2422 28.0275C36.7716 28.356 37.3094 28.7465 37.8312 29.0547C38.5773 29.4953 39.4847 29.9076 40.2836 30.251L40.3509 30.1407C41.0787 30.3903 43.3449 31.1647 44.1274 31.1391C44.2459 31.1121 45.341 31.2628 45.5873 31.2668C46.0339 31.2741 46.6222 31.3311 47.0711 31.3025C47.8992 31.2498 48.7511 31.1208 49.5698 30.9873C49.8854 30.9358 50.2548 30.8313 50.555 30.8172C52.7792 30.3241 55.3466 29.1273 57.0532 27.5905C57.1963 27.5893 57.3221 27.571 57.446 27.6342C57.6111 27.599 58.0548 27.2152 58.218 27.0841C58.571 26.8849 60.3253 25.1214 60.5357 24.7688C60.5446 25.2322 60.539 25.6688 60.6217 26.1262L60.6512 26.2236C60.7143 26.5588 60.6507 26.7494 60.6877 27.0352C61.2871 27.0632 62.6122 27.077 63.2004 27.0292L63.2715 27.0519C63.3458 27.7972 63.4127 29.8905 63.1443 30.5226C63.0671 30.6637 63.0297 30.7383 62.9292 30.8673C62.1217 30.973 61.497 30.9164 60.7181 30.95C60.6961 31.2132 60.6573 32.0202 60.5965 32.2222L60.4824 34.2033C60.4394 35.4555 60.4048 36.6754 60.2832 37.9238C60.214 38.6322 60.3407 39.5201 60.4777 40.2139C60.4651 40.761 60.553 41.0013 60.6853 41.5166C60.8714 41.936 60.9748 42.376 61.1183 42.8104C61.5195 44.0228 61.9314 45.4358 62.8048 46.3924C62.9858 46.5907 63.4987 47.1153 63.5609 47.3902C63.5445 47.4412 63.5286 47.4917 63.5123 47.5422C63.2532 47.8096 62.932 47.7615 62.5921 47.6974C62.1203 47.7311 61.6972 47.8279 61.1688 47.8381C58.7094 47.8868 56.2256 47.8671 53.7658 47.8653C49.2467 47.869 44.7275 47.8283 40.2091 47.7432L35.6736 47.682C34.3458 47.674 32.1001 47.7236 30.8834 47.4304C30.6826 47.4014 30.5654 47.4248 30.4584 47.3009C30.39 46.8679 30.9084 46.0249 31.1276 45.6195C31.8167 44.5479 32.1518 43.2438 32.5111 42.0347C32.6641 41.5199 32.613 38.6597 32.6879 38.5494C32.7809 38.6368 32.7923 38.7561 32.8255 38.8851L32.8196 38.5092C32.7949 38.3306 32.7901 38.1361 32.6877 37.9949L32.6306 38.014C32.5522 38.2464 32.5742 38.4203 32.578 38.6663C32.4171 37.6984 32.5955 36.5828 32.4838 35.6439C32.3133 34.2113 32.2076 32.9404 32.1521 31.4952C31.7429 31.5305 31.4286 31.5384 31.0232 31.4854C30.9517 31.24 30.9379 31.0708 30.9068 30.8192C30.9539 30.9427 30.9558 30.9563 31.0287 31.0644C31.1263 30.9208 31.0414 30.4382 31.1321 30.1714L31.1268 30.132C31.1107 30.0138 31.1109 30.021 31.1378 29.9047L31.2189 29.8741C31.2278 29.735 31.2216 29.5388 31.2216 29.3957L31.104 29.329C31.0647 29.1724 31.1162 28.8944 31.1371 28.7224C31.1593 28.4652 31.1529 27.4443 31.085 27.2225C31.3474 27.2363 31.6766 27.2313 31.9445 27.2348C31.9415 27.0456 31.9169 26.6653 31.9719 26.5033L32.0217 26.2617C32.0392 25.7612 32.1125 24.1655 31.995 23.7443C31.7168 22.747 30.9366 21.8181 30.747 20.6821Z" fill="var(--fill-0, #C5C1BE)"/>
<path id="Vector_47" d="M60.0074 26.1046L60.6218 26.1263L60.6512 26.2237C60.7143 26.5588 60.6508 26.7495 60.6877 27.0353C61.2871 27.0632 62.6122 27.077 63.2004 27.0292L63.2715 27.052C63.3458 27.7972 63.4127 29.8906 63.1443 30.5227C63.0672 30.6637 63.0297 30.7383 62.9292 30.8673C62.1217 30.973 61.4971 30.9164 60.7181 30.9501C60.6961 31.2132 60.6573 32.0203 60.5965 32.2223L60.4824 34.2034C60.3164 33.9051 60.5614 33.4029 60.3964 33.2L60.3183 33.2187C60.2496 33.379 60.2585 33.5586 60.2519 33.7358L60.1935 33.7858C60.0986 35.5762 59.9765 37.4843 59.905 39.2662C59.7792 39.0137 59.9326 37.1757 59.9508 36.7806L60.1972 31.9361C60.2131 31.5991 60.2038 31.2457 60.2117 30.9062C60.2197 30.5641 60.554 29.5586 60.2884 29.346L60.2066 29.3815C60.0929 29.6588 60.1434 29.9361 60.085 30.2185L60.0401 30.2411C60.0008 29.9557 60.1107 29.5525 60.0551 29.3664C59.8816 29.853 59.9901 30.0093 59.9447 30.4672L59.8942 30.4652C59.8802 29.2117 59.9676 27.3891 60.0074 26.1046Z" fill="var(--fill-0, #888685)"/>
<path id="Vector_48" d="M60.6877 27.0352C61.2871 27.0632 62.6122 27.077 63.2004 27.0292C63.1298 27.2997 63.1195 27.6117 63.0994 27.8931L63.0798 28.263L63.1055 28.5318C62.9619 28.579 62.6267 28.6417 62.4878 28.6325C61.8276 28.5887 60.2659 28.9912 60.7153 27.7746C60.7779 27.6049 60.7784 27.2928 60.7826 27.1135L60.6877 27.0352Z" fill="var(--fill-0, #DFDEDD)"/>
<path id="Vector_49" d="M63.0798 28.263C62.8301 28.407 61.0575 28.5205 60.8724 28.1691C61.079 27.7054 62.6847 27.7752 63.0994 27.8931L63.0798 28.263Z" fill="var(--fill-0, #FEFEFE)"/>
<path id="Vector_50" d="M60.5858 29.887C61.1524 30.0461 62.2064 30.1009 62.8095 30.0562C62.9152 30.0483 62.896 29.997 63.0513 30.0662C63.0634 30.2583 63.0527 30.3536 63.1443 30.5226C63.0672 30.6636 63.0297 30.7382 62.9292 30.8672C62.1217 30.9729 61.4971 30.9163 60.7181 30.95C60.6961 31.2131 60.6573 32.0202 60.5965 32.2222C60.5984 31.7033 60.5689 31.1862 60.5815 30.6685C60.6035 30.4657 60.5886 30.1026 60.5858 29.887Z" fill="var(--fill-0, #C5C1BE)"/>
<path id="Vector_51" d="M60.6512 26.2237C60.7143 26.5588 60.6507 26.7494 60.6877 27.0353L60.7826 27.1135C60.7784 27.2929 60.7779 27.6049 60.7153 27.7746C60.2659 28.9913 61.8276 28.5887 62.4878 28.6325C62.6267 28.6418 62.9619 28.579 63.1055 28.5319C63.1027 28.6577 63.1013 28.6515 63.0559 28.7701C62.5781 29.0953 61.4942 28.756 60.9855 28.938C60.791 29.0076 60.4759 29.4861 60.1846 29.279C60.085 29.0163 60.3001 27.7323 60.4114 27.4231C60.4403 27.3421 60.5011 27.3484 60.6152 27.3038C60.6704 27.1571 60.6344 26.4916 60.6512 26.2237Z" fill="var(--fill-0, #CAC8C6)"/>
<path id="Vector_52" d="M60.5465 30.6576L60.5815 30.6686C60.5689 31.1862 60.5984 31.7033 60.5965 32.2222L60.4824 34.2033C60.3164 33.905 60.5614 33.4028 60.3964 33.1999L60.3183 33.2186C60.2495 33.379 60.2584 33.5585 60.2519 33.7358L60.1934 33.7858C60.2103 32.917 60.279 31.7724 60.3501 30.902C60.3552 31.071 60.3388 31.2029 60.4221 31.3458L60.4782 31.3021C60.5549 31.0196 60.5488 30.9443 60.5465 30.6576Z" fill="var(--fill-0, #3C3A3A)"/>
<path id="Vector_53" d="M60.3501 30.902C60.3622 30.6742 60.3683 30.2107 60.4927 30.0371C60.561 30.2231 60.5446 30.4532 60.5465 30.6576C60.5488 30.9444 60.5549 31.0196 60.4782 31.3022L60.4221 31.3458C60.3389 31.203 60.3552 31.0711 60.3501 30.902Z" fill="var(--fill-0, #696867)"/>
<path id="Vector_54" d="M62.9082 29.4181L62.9217 29.4165L62.9732 29.4564C62.997 29.6259 63.0124 29.6567 62.9423 29.8156C62.7408 29.855 61.2123 29.8758 60.9215 29.8811L60.8705 29.8799C60.8312 29.7288 60.8775 29.6005 60.9088 29.4381C61.4316 29.4564 62.4172 29.5006 62.9082 29.4181Z" fill="var(--fill-0, #3C3A3A)"/>
<path id="Vector_55" d="M32.0217 26.2618C32.2253 26.253 32.4695 26.2358 32.6696 26.2433C32.6955 28.6505 32.7977 31.0563 32.9759 33.4571C33.0357 34.3333 33.1797 35.2217 33.2153 36.09C33.2537 37.0293 32.7763 37.4815 32.8197 38.5092C32.7949 38.3306 32.7902 38.1361 32.6878 37.9949L32.6306 38.014C32.5523 38.2464 32.5742 38.4204 32.5781 38.6663C32.4172 37.6984 32.5955 36.5828 32.4838 35.6439C32.3133 34.2113 32.2076 32.9404 32.1521 31.4952C31.7429 31.5305 31.4286 31.5384 31.0232 31.4854C30.9517 31.24 30.9379 31.0708 30.9068 30.8192C30.9539 30.9427 30.9558 30.9563 31.0288 31.0644C31.1263 30.9209 31.0414 30.4382 31.1321 30.1714L31.1268 30.132C31.1107 30.0139 31.1109 30.0211 31.1378 29.9047L31.2189 29.8741C31.2278 29.7351 31.2216 29.5389 31.2216 29.3957L31.104 29.3291C31.0647 29.1724 31.1162 28.8944 31.1371 28.7224C31.1594 28.4652 31.153 27.4443 31.085 27.2225C31.3474 27.2364 31.6766 27.2314 31.9445 27.2348C31.9415 27.0456 31.917 26.6654 31.9719 26.5033L32.0217 26.2618Z" fill="var(--fill-0, #8E8C8B)"/>
<path id="Vector_56" d="M31.1268 30.132C31.4983 30.093 31.7101 30.0763 32.0812 30.0828L32.1383 30.7546C32.1883 30.9609 32.1686 31.2776 32.1521 31.4953C31.7429 31.5305 31.4286 31.5385 31.0232 31.4855C30.9517 31.24 30.9379 31.0709 30.9068 30.8193C30.9539 30.9428 30.9558 30.9563 31.0288 31.0645C31.1263 30.9209 31.0414 30.4383 31.1321 30.1715L31.1268 30.132Z" fill="var(--fill-0, #C5C1BE)"/>
<path id="Vector_57" d="M31.1321 30.1714C31.1416 30.4236 31.1467 30.7001 31.1626 30.9498C31.4272 30.9507 32.0404 31.0318 32.1383 30.7545C32.1883 30.9609 32.1686 31.2776 32.1521 31.4952C31.7429 31.5305 31.4286 31.5384 31.0232 31.4854C30.9517 31.24 30.9379 31.0708 30.9068 30.8192C30.9539 30.9427 30.9558 30.9563 31.0288 31.0644C31.1263 30.9208 31.0414 30.4382 31.1321 30.1714Z" fill="var(--fill-0, #A7A6A5)"/>
<path id="Vector_58" d="M31.9445 27.2348C31.9415 27.0456 31.9169 26.6654 31.9719 26.5033C32.0107 26.8485 32.0412 28.4481 32.0081 28.7844C31.7046 28.8108 31.3489 28.8985 31.1371 28.7225C31.1593 28.4652 31.1529 27.4443 31.085 27.2225C31.3474 27.2364 31.6766 27.2314 31.9445 27.2348Z" fill="var(--fill-0, #FEFEFE)"/>
<path id="Vector_59" d="M31.2216 29.3958C31.3847 29.3872 31.9317 29.4496 32.0599 29.574C31.9671 29.8498 31.4628 29.8263 31.2189 29.8742C31.2278 29.7351 31.2216 29.5389 31.2216 29.3958Z" fill="var(--fill-0, #3C3A3A)"/>
<path id="Vector_60" d="M60.1935 33.7859L60.2519 33.7358C60.2585 33.5586 60.2496 33.3791 60.3183 33.2187L60.3964 33.2C60.5614 33.4029 60.3164 33.9051 60.4824 34.2034C60.4394 35.4556 60.4048 36.6755 60.2832 37.9239C60.214 38.6322 60.3407 39.5202 60.4777 40.214C60.4651 40.7611 60.553 41.0014 60.6853 41.5167C60.8714 41.9361 60.9748 42.3761 61.1183 42.8105C61.5195 44.0229 61.9314 45.4359 62.8048 46.3925C62.9858 46.5908 63.4987 47.1154 63.5609 47.3903C63.5445 47.4413 63.5286 47.4918 63.5123 47.5423C63.2532 47.8097 62.932 47.7616 62.5921 47.6975C61.4124 47.208 61.3348 45.838 60.9986 44.8C60.3917 42.9269 59.9975 41.2357 59.905 39.2663C59.9765 37.4844 60.0985 35.5762 60.1935 33.7859Z" fill="var(--fill-0, #161515)"/>
<path id="Vector_61" d="M31.1276 45.6195C31.8167 44.5479 32.1518 43.2438 32.5111 42.0347C32.6641 41.5199 32.613 38.6597 32.6879 38.5494C32.7809 38.6368 32.7923 38.7561 32.8255 38.8851C32.8984 40.0582 32.9613 41.2449 32.869 42.4181C32.5894 43.8797 32.2108 45.2955 31.8605 46.7394C31.8395 46.8259 31.8802 46.9572 31.9074 47.0409C31.542 47.4604 31.4138 47.4328 30.8834 47.4304C30.6826 47.4014 30.5654 47.4248 30.4584 47.3009C30.39 46.8679 30.9084 46.0249 31.1276 45.6195Z" fill="var(--fill-0, #201F1F)"/>
<path id="Vector_62" d="M31.9074 47.041C31.8802 46.9573 31.8395 46.8259 31.8605 46.7394C32.2108 45.2955 32.5894 43.8797 32.869 42.4181C32.9226 42.996 32.9599 43.5239 32.9354 44.107C32.9198 44.4792 32.5996 45.167 32.7187 45.4297C33.0752 44.8808 33.4871 43.5361 33.4655 42.9086C33.3884 42.8216 33.4008 42.8455 33.2881 42.7875C33.3878 42.7328 33.3327 42.7515 33.4744 42.7758C33.9326 43.372 32.3924 46.4013 31.9074 47.041Z" fill="var(--fill-0, #8A8887)"/>
<path id="Vector_63" d="M33.8271 24.9822C34.3541 25.5422 34.7649 26.2769 35.381 26.8101C35.5229 26.9329 36.1474 27.5346 36.2074 27.6382L36.1868 27.7166L36.2875 27.8709C36.2755 27.9145 36.2579 27.988 36.2422 28.0275C35.675 27.7461 34.6551 26.8219 34.207 26.3741C34.4877 26.4619 34.7117 26.5922 34.9423 26.5144L34.935 26.4697C34.7403 26.2967 34.6611 26.2373 34.5444 25.9978L34.5037 25.9935C34.5018 26.1628 34.5331 26.1752 34.4481 26.272C34.1851 26.2516 33.775 25.672 33.593 25.4688L33.6111 25.3909C33.8367 25.485 34.2121 26.0294 34.362 26.1421C34.3376 26.0572 34.3478 26.106 34.3383 25.9943L34.4188 25.9075C34.3204 25.6254 33.8935 25.3522 33.8271 24.9822Z" fill="var(--fill-0, #8A8888)"/>
<path id="Vector_64" d="M57.0533 27.5905C57.1964 27.5893 57.3221 27.571 57.446 27.6342C55.5552 28.9638 53.6265 30.1952 51.3386 30.696C51.0389 30.7615 50.8879 30.9548 50.555 30.8172C52.7792 30.3241 55.3466 29.1273 57.0533 27.5905Z" fill="var(--fill-0, #3C3A3A)"/>
<path id="Vector_65" d="M40.3509 30.1406C41.0787 30.3902 43.3449 31.1646 44.1274 31.139C43.6794 31.3803 40.8069 30.4805 40.2837 30.251L40.3509 30.1406Z" fill="var(--fill-0, #727071)"/>
<path id="Vector_66" d="M59.6824 34.0046C59.7997 34.5619 59.4734 35.5639 59.5229 36.1021C59.6062 37.0134 59.3223 37.884 59.2952 38.7242C59.2597 38.7008 59.2368 38.6887 59.2064 38.6555C58.9146 38.3385 59.6997 34.7578 59.6824 34.0046Z" fill="var(--fill-0, #888685)"/>
<path id="Vector_67" d="M32.5781 38.6663C32.5742 38.4203 32.5522 38.2464 32.6306 38.014L32.6877 37.9948C32.7901 38.136 32.7949 38.3305 32.8196 38.5091L32.8255 38.8851C32.7923 38.756 32.7809 38.6368 32.6879 38.5494C32.613 38.6597 32.6641 41.5198 32.5111 42.0346C32.1519 43.2438 31.8167 44.5478 31.1276 45.6195C31.2347 45.0196 31.6987 43.6618 31.9621 43.1297L31.9494 42.9843L31.8952 42.9417C31.615 43.1138 31.3953 43.3625 31.1427 43.5748C29.5789 44.8887 27.9341 46.167 26.1191 47.119C25.6234 47.379 24.92 47.681 24.3645 47.8208C22.648 48.0518 20.7539 48.0406 19.0123 48.1172C15.331 48.2823 11.6485 48.4216 7.96524 48.5353C7.51591 50.5505 7.04315 52.2959 6.6271 54.3785C6.95136 54.3953 7.4042 54.4061 7.7136 54.4538C9.79241 54.4921 11.9876 54.4547 14.0774 54.4542H26.5989L64.5363 54.4552H79.6271L83.9568 54.4528C84.7507 54.4528 85.9814 54.4238 86.7421 54.53C86.9375 54.6885 86.917 54.6632 86.9371 54.9265L86.9623 54.9386C86.9661 55.5582 86.9745 56.1777 86.9871 56.7972C86.7239 56.9534 85.9061 56.9707 85.5746 57.0128C85.4539 57.0282 85.1926 57.277 85.085 57.2863C84.6067 57.3279 83.9947 57.2615 83.528 57.3125L31.9142 57.3092L11.3447 57.3116C9.61025 57.3167 7.94331 57.478 6.24211 57.4677C6.19778 58.4543 6.15275 59.5765 6.33174 60.5542L6.29316 60.6369L6.23392 60.6495C5.50919 58.0587 6.6445 53.1736 7.25365 50.5566C7.41884 49.8468 7.66918 49.0861 7.82717 48.3328C7.87687 48.3333 7.92662 48.3337 7.97637 48.3342C9.22614 48.3403 10.5296 48.2482 11.78 48.1981L18.56 47.9293L22.0323 47.803C22.6712 47.7778 24.1084 47.7544 24.6731 47.559C27.2488 46.6687 29.76 44.5651 31.7709 42.7706C32.6567 41.9799 32.5936 39.8062 32.5781 38.6663Z" fill="var(--fill-0, #161515)"/>
<path id="Vector_68" d="M32.5781 38.6663C32.5742 38.4203 32.5522 38.2464 32.6306 38.014L32.6877 37.9948C32.7901 38.136 32.7949 38.3305 32.8196 38.5091L32.8255 38.8851C32.7923 38.756 32.7809 38.6368 32.6879 38.5494C32.613 38.6597 32.6641 41.5198 32.5111 42.0346C32.1519 43.2438 31.8167 44.5478 31.1276 45.6195C31.2347 45.0196 31.6987 43.6618 31.9621 43.1297L31.9494 42.9843L31.8952 42.9417C31.615 43.1138 31.3953 43.3625 31.1427 43.5748C29.5789 44.8887 27.9341 46.167 26.1191 47.119C25.6234 47.379 24.92 47.681 24.3645 47.8208C22.648 48.0518 20.7539 48.0406 19.0123 48.1172C15.331 48.2823 11.6485 48.4216 7.96524 48.5353C7.51591 50.5505 7.04315 52.2959 6.6271 54.3785C6.95136 54.3953 7.4042 54.4061 7.7136 54.4538C7.37405 54.4776 7.07723 54.4762 6.73651 54.4748C6.65179 54.8554 6.37672 56.0257 6.48646 56.3212C6.66708 56.4105 9.319 56.4325 9.76745 56.4353L66.7811 56.4386L79.7655 56.4241C81.95 56.425 84.1246 56.4821 86.3059 56.346C86.5359 56.332 86.6799 56.3301 86.9057 56.2684C86.9132 55.8766 86.9053 55.3043 86.9371 54.9265L86.9623 54.9386C86.9661 55.5582 86.9745 56.1777 86.9871 56.7972C86.7239 56.9534 85.9061 56.9707 85.5746 57.0128C85.4539 57.0282 85.1926 57.277 85.085 57.2863C84.6067 57.3279 83.9947 57.2615 83.528 57.3125L31.9142 57.3092L11.3447 57.3116C9.61025 57.3167 7.94331 57.478 6.24211 57.4677C6.19778 58.4543 6.15275 59.5765 6.33174 60.5542L6.29316 60.6369L6.23392 60.6495C5.50919 58.0587 6.6445 53.1736 7.25365 50.5566C7.41884 49.8468 7.66918 49.0861 7.82717 48.3328C7.87687 48.3333 7.92662 48.3337 7.97637 48.3342C9.22614 48.3403 10.5296 48.2482 11.78 48.1981L18.56 47.9293L22.0323 47.803C22.6712 47.7778 24.1084 47.7544 24.6731 47.559C27.2488 46.6687 29.76 44.5651 31.7709 42.7706C32.6567 41.9799 32.5936 39.8062 32.5781 38.6663Z" fill="var(--fill-0, #727071)"/>
<path id="Vector_69" d="M78.2 48.287C79.636 48.2426 81.0719 48.2094 82.5082 48.1879C83.2447 48.1808 84.6937 48.2061 85.374 48.1327C86.6743 50.2419 87.0479 52.5063 86.9623 54.9386L86.9371 54.9265C86.917 54.6632 86.9375 54.6885 86.7421 54.53C86.7753 54.5038 86.8286 54.4809 86.83 54.4285C86.8758 52.2066 86.3643 50.2732 85.3314 48.3202C84.5782 48.3721 83.809 48.3459 83.0525 48.366C81.6732 48.4029 80.2742 48.4441 78.8949 48.4259C78.4656 48.3856 77.5618 48.5049 77.3004 48.3716C77.3883 48.3197 78.0046 48.3192 78.2 48.287Z" fill="var(--fill-0, #585755)"/>
<path id="Vector_70" d="M60.4777 40.214C61.0215 40.7194 61.5821 42.1642 62.0165 42.8342C63.7105 45.4461 66.4252 47.1069 69.3789 47.9345L69.3461 48.0154C69.2335 48.0313 69.1568 48.0378 69.0432 48.0444C66.2878 47.1214 64.1005 45.7804 62.2498 43.4584C61.9964 43.14 61.7243 42.5443 61.483 42.1824C61.3231 41.9426 61.0762 41.7364 60.9808 41.5713C61.0154 41.4993 61.0374 41.4572 61.0786 41.3871L61.116 41.3245C61.0599 41.0893 60.7891 40.8625 60.683 40.5394L60.6334 40.531C60.5292 41.0145 60.8251 41.1889 60.6853 41.5166C60.553 41.0014 60.4651 40.761 60.4777 40.214Z" fill="var(--fill-0, #585755)"/>
<path id="Vector_71" d="M69.3789 47.9344L69.4687 47.9466C70.1499 48.0443 70.819 48.2739 71.5372 48.3104C73.6871 48.4198 76.0759 48.2145 78.2001 48.287C78.0046 48.3193 77.3884 48.3197 77.3005 48.3716C77.5618 48.5049 78.4657 48.3857 78.8949 48.4259C77.7928 48.5409 76.0394 48.4778 74.8682 48.5128C73.8521 48.5437 72.3017 48.5947 71.3357 48.511C70.5558 48.4464 69.7861 48.2898 69.0432 48.0443C69.1568 48.0378 69.2335 48.0312 69.3462 48.0153L69.3789 47.9344Z" fill="var(--fill-0, #888685)"/>
<path id="Vector_72" d="M31.085 27.2225C31.1529 27.4443 31.1593 28.4651 31.1371 28.7224C31.1162 28.8944 31.0647 29.1723 31.104 29.329L31.2216 29.3957C31.2216 29.5388 31.2278 29.735 31.2189 29.8741L31.1378 29.9047C31.1109 30.021 31.1107 30.0138 31.1268 30.1319L31.1321 30.1714C31.0414 30.4382 31.1263 30.9208 31.0287 31.0644C30.9558 30.9563 30.9539 30.9427 30.9068 30.8192C30.8927 30.619 30.8817 30.4186 30.8741 30.218C30.8547 29.7205 30.813 27.5168 31.085 27.2225Z" fill="var(--fill-0, #888685)"/>
</g>
<defs>
<filter id="filter0_f_0_4" x="0" y="49" width="94" height="24" filterUnits="userSpaceOnUse" color-interpolation-filters="sRGB">
<feFlood flood-opacity="0" result="BackgroundImageFix"/>
<feBlend mode="normal" in="SourceGraphic" in2="BackgroundImageFix" result="shape"/>
<feGaussianBlur stdDeviation="3" result="effect1_foregroundBlur_0_4"/>
</filter>
</defs>
</svg>
